STARTFONT 2.1
FONT -HP-Pilgi-Bold-R-Normal--64-640-75-75-C-640-KSC5601.1987-1
SIZE 64 75 75
FONTBOUNDINGBOX 64 64 0 -6

STARTPROPERTIES 23
FONTNAME_REGISTRY ""
FOUNDRY "HP"
FAMILY_NAME "Pilgi"
WEIGHT_NAME "Bold"
SLANT "R"
SETWIDTH_NAME "Normal"
ADD_STYLE_NAME ""
PIXEL_SIZE 64
POINT_SIZE 640
RESOLUTION_X 75
RESOLUTION_Y 75
SPACING "C"
AVERAGE_WIDTH 640
CHARSET_REGISTRY "KSC5601.1987"
CHARSET_ENCODING "1"
COPYRIGHT "Copyright (c) 1994 Samsung Hewlett-Packard Company."
WEIGHT 19463
X_HEIGHT 58
QUAD_WIDTH 64
_HP_ASXVERSION "@(#) ASX 3.00 $Revision: 13.9 $ pilB64h"
DEFAULT_CHAR 41702
FONT_DESCENT 6
FONT_ASCENT 58
ENDPROPERTIES

CHARS 3337

STARTCHAR kor_A1A1
ENCODING 41377
SWIDTH 1024 0
DWIDTH 64 0
BBX 64 64 0 -6
BITMAP
0000000000000000
0000000000000000
0000000000000000
0000000000000000
0000000000000000
0000000000000000
0000000000000000
0000000000000000
0000000000000000
0000000000000000
0000000000000000
0000000000000000
0000000000000000
0000000000000000
0000000000000000
0000000000000000
0000000000000000
0000000000000000
0000000000000000
0000000000000000
0000000000000000
0000000000000000
0000000000000000
0000000000000000
0000000000000000
0000000000000000
0000000000000000
0000000000000000
0000000000000000
0000000000000000
0000000000000000
0000000000000000
0000000000000000
0000000000000000
0000000000000000
0000000000000000
0000000000000000
0000000000000000
0000000000000000
0000000000000000
0000000000000000
0000000000000000
0000000000000000
0000000000000000
0000000000000000
0000000000000000
0000000000000000
0000000000000000
0000000000000000
0000000000000000
0000000000000000
0000000000000000
0000000000000000
0000000000000000
0000000000000000
0000000000000000
0000000000000000
0000000000000000
0000000000000000
0000000000000000
0000000000000000
0000000000000000
0000000000000000
0000000000000000
ENDCHAR

STARTCHAR kor_A1A2
ENCODING 41378
SWIDTH 1024 0
DWIDTH 64 0
BBX 64 64 0 -6
BITMAP
0000000000000000
0000000000000000
0000000000000000
0000000000000000
000000000007E000
000000000007FC00
000000000001FF00
0000000000007F80
0000000000003FC0
0000000000001FE0
0000000000000FE0
0000000000000FF0
00000000000007F0
00000000000007F0
00000000000007F0
00000000000003F0
00000000000003F0
00000000000001E0
0000000000000000
0000000000000000
0000000000000000
0000000000000000
0000000000000000
0000000000000000
0000000000000000
0000000000000000
0000000000000000
0000000000000000
0000000000000000
0000000000000000
0000000000000000
0000000000000000
0000000000000000
0000000000000000
0000000000000000
0000000000000000
0000000000000000
0000000000000000
0000000000000000
0000000000000000
0000000000000000
0000000000000000
0000000000000000
0000000000000000
0000000000000000
0000000000000000
0000000000000000
0000000000000000
0000000000000000
0000000000000000
0000000000000000
0000000000000000
0000000000000000
0000000000000000
0000000000000000
0000000000000000
0000000000000000
0000000000000000
0000000000000000
0000000000000000
0000000000000000
0000000000000000
0000000000000000
0000000000000000
ENDCHAR

STARTCHAR kor_A1A3
ENCODING 41379
SWIDTH 1024 0
DWIDTH 64 0
BBX 64 64 0 -6
BITMAP
0000000000000000
0000000000000000
0000000000003F80
000000000000FFE0
000000000001FFF0
000000000003FFF8
000000000003F1F8
000000000007C07C
000000000007C07C
000000000007803C
000000000007803C
000000000007803C
000000000007C07C
000000000007C07C
000000000003F1F8
000000000003FFF8
000000000001FFF0
000000000000FFE0
0000000000003F80
0000000000000000
0000000000000000
0000000000000000
0000000000000000
0000000000000000
0000000000000000
0000000000000000
0000000000000000
0000000000000000
0000000000000000
0000000000000000
0000000000000000
0000000000000000
0000000000000000
0000000000000000
0000000000000000
0000000000000000
0000000000000000
0000000000000000
0000000000000000
0000000000000000
0000000000000000
0000000000000000
0000000000000000
0000000000000000
0000000000000000
0000000000000000
0000000000000000
0000000000000000
0000000000000000
0000000000000000
0000000000000000
0000000000000000
0000000000000000
0000000000000000
0000000000000000
0000000000000000
0000000000000000
0000000000000000
0000000000000000
0000000000000000
0000000000000000
0000000000000000
0000000000000000
0000000000000000
ENDCHAR

STARTCHAR kor_A1A4
ENCODING 41380
SWIDTH 1024 0
DWIDTH 64 0
BBX 64 64 0 -6
BITMAP
0000000000000000
0000000000000000
0000000000000000
0000000000000000
0000000000000000
0000000000000000
0000000000000000
0000000000000000
0000000000000000
0000000000000000
0000000000000000
0000000000000000
0000000000000000
0000000000000000
0000000000000000
0000000000000000
0000000000000000
0000000000000000
0000000000000000
0000000000000000
0000000000000000
0000000000000000
0000000000000000
0000000000000000
0000000000000000
0000000000000000
00000007E0000000
0000001FF8000000
0000001FF8000000
0000003FFC000000
0000003FFC000000
0000003FFC000000
0000003FFC000000
0000003FFC000000
0000001FF8000000
0000001FF8000000
00000007E0000000
0000000000000000
0000000000000000
0000000000000000
0000000000000000
0000000000000000
0000000000000000
0000000000000000
0000000000000000
0000000000000000
0000000000000000
0000000000000000
0000000000000000
0000000000000000
0000000000000000
0000000000000000
0000000000000000
0000000000000000
0000000000000000
0000000000000000
0000000000000000
0000000000000000
0000000000000000
0000000000000000
0000000000000000
0000000000000000
0000000000000000
0000000000000000
ENDCHAR

STARTCHAR kor_A1A5
ENCODING 41381
SWIDTH 1024 0
DWIDTH 64 0
BBX 64 64 0 -6
BITMAP
0000000000000000
0000000000000000
0000000000000000
0000000000000000
0000000000000000
0000000000000000
0000000000000000
0000000000000000
0000000000000000
0000000000000000
0000000000000000
0000000000000000
0000000000000000
0000000000000000
0000000000000000
0000000000000000
0000000000000000
0000000000000000
0000000000000000
0000000000000000
0000000000000000
0000000000000000
0000000000000000
0000000000000000
0000000000000000
0000000000000000
0001E0000003C000
0007F800000FF000
0007F800000FF000
000FFC00001FF800
000FFC00001FF800
000FFC00001FF800
000FFC00001FF800
0007F800000FF000
0007F800000FF000
0001E0000003C000
0000000000000000
0000000000000000
0000000000000000
0000000000000000
0000000000000000
0000000000000000
0000000000000000
0000000000000000
0000000000000000
0000000000000000
0000000000000000
0000000000000000
0000000000000000
0000000000000000
0000000000000000
0000000000000000
0000000000000000
0000000000000000
0000000000000000
0000000000000000
0000000000000000
0000000000000000
0000000000000000
0000000000000000
0000000000000000
0000000000000000
0000000000000000
0000000000000000
ENDCHAR

STARTCHAR kor_A1A6
ENCODING 41382
SWIDTH 1024 0
DWIDTH 64 0
BBX 64 64 0 -6
BITMAP
0000000000000000
0000000000000000
0000000000000000
0000000000000000
0000000000000000
0000000000000000
0000000000000000
0000000000000000
0000000000000000
0000000000000000
0000000000000000
0000000000000000
0000000000000000
0000000000000000
0000000000000000
0000000000000000
0000000000000000
0000000000000000
0000000000000000
0000000000000000
0000000000000000
0000000000000000
0000000000000000
0000000000000000
0000000000000000
0000000000000000
003C0001E0000F00
00FF0007F8003FC0
00FF0007F8003FC0
01FF800FFC007FE0
01FF800FFC007FE0
01FF800FFC007FE0
01FF800FFC007FE0
00FF0007F8003FC0
00FF0007F8003FC0
003C0001E0000F00
0000000000000000
0000000000000000
0000000000000000
0000000000000000
0000000000000000
0000000000000000
0000000000000000
0000000000000000
0000000000000000
0000000000000000
0000000000000000
0000000000000000
0000000000000000
0000000000000000
0000000000000000
0000000000000000
0000000000000000
0000000000000000
0000000000000000
0000000000000000
0000000000000000
0000000000000000
0000000000000000
0000000000000000
0000000000000000
0000000000000000
0000000000000000
0000000000000000
ENDCHAR

STARTCHAR kor_A1A7
ENCODING 41383
SWIDTH 1024 0
DWIDTH 64 0
BBX 64 64 0 -6
BITMAP
0000000000000000
0000000000000000
0000000000000000
0000000000000000
0001E00000078000
0007F800001FE000
0007F800001FE000
000FFC00003FF000
000FFC00003FF000
000FFC00003FF000
000FFC00003FF000
0007F800001FE000
0007F800001FE000
0001E00000078000
0000000000000000
0000000000000000
0000000000000000
0000000000000000
0000000000000000
0000000000000000
0000000000000000
0000000000000000
0000000000000000
0000000000000000
0000000000000000
0000000000000000
0000000000000000
0000000000000000
0000000000000000
0000000000000000
0000000000000000
0000000000000000
0000000000000000
0000000000000000
0000000000000000
0000000000000000
0000000000000000
0000000000000000
0000000000000000
0000000000000000
0000000000000000
0000000000000000
0000000000000000
0000000000000000
0000000000000000
0000000000000000
0000000000000000
0000000000000000
0000000000000000
0000000000000000
0000000000000000
0000000000000000
0000000000000000
0000000000000000
0000000000000000
0000000000000000
0000000000000000
0000000000000000
0000000000000000
0000000000000000
0000000000000000
0000000000000000
0000000000000000
0000000000000000
ENDCHAR

STARTCHAR kor_A1A8
ENCODING 41384
SWIDTH 1024 0
DWIDTH 64 0
BBX 64 64 0 -6
BITMAP
0000000000000000
0000000000000000
0000000000000000
0000000000000000
0000000000000000
0000000000000000
0000000000000000
0000000000000000
0000000000000000
0000000000000000
0000000000000000
0000000000000000
0000000000000000
0000000000000000
0000000000000000
0000000000000000
0000000000000000
0000000000000000
0000000000000000
0000000F07800000
0000001F8FC00000
0000001F8FC00000
0000001F8FC00000
0000001F8FC00000
0000003F9FC00000
0000003F9FC00000
0000003F1F800000
0000003F1F800000
0000007F3F800000
0000007E3F000000
0000007E3F000000
0000007C3E000000
000000FC7E000000
000000F87C000000
000000F87C000000
000001F0F8000000
000001F0F8000000
000003E1F0000000
000003C1E0000000
000007C3E0000000
00000783C0000000
00000F0780000000
00000E0700000000
0000000000000000
0000000000000000
0000000000000000
0000000000000000
0000000000000000
0000000000000000
0000000000000000
0000000000000000
0000000000000000
0000000000000000
0000000000000000
0000000000000000
0000000000000000
0000000000000000
0000000000000000
0000000000000000
0000000000000000
0000000000000000
0000000000000000
0000000000000000
0000000000000000
ENDCHAR

STARTCHAR kor_A1A9
ENCODING 41385
SWIDTH 1024 0
DWIDTH 64 0
BBX 64 64 0 -6
BITMAP
0000000000000000
0000000000000000
0000000000000000
0000000000000000
0000000000000000
0000000000000000
0000000000000000
0000000000000000
0000000000000000
0000000000000000
0000000000000000
0000000000000000
0000000000000000
0000000000000000
0000000000000000
0000000000000000
0000000000000000
0000000000000000
0000000000000000
0000000000000000
0000000000000000
0000000000000000
0000000000000000
0000000000000000
0000000000000000
0000000000000000
0000000000000000
0000000000000000
0000000000000000
000003FFFFE00000
000003FFFFE00000
000003FFFFE00000
000003FFFFE00000
0000000000000000
0000000000000000
0000000000000000
0000000000000000
0000000000000000
0000000000000000
0000000000000000
0000000000000000
0000000000000000
0000000000000000
0000000000000000
0000000000000000
0000000000000000
0000000000000000
0000000000000000
0000000000000000
0000000000000000
0000000000000000
0000000000000000
0000000000000000
0000000000000000
0000000000000000
0000000000000000
0000000000000000
0000000000000000
0000000000000000
0000000000000000
0000000000000000
0000000000000000
0000000000000000
0000000000000000
ENDCHAR

STARTCHAR kor_A1AA
ENCODING 41386
SWIDTH 1024 0
DWIDTH 64 0
BBX 64 64 0 -6
BITMAP
0000000000000000
0000000000000000
0000000000000000
0000000000000000
0000000000000000
0000000000000000
0000000000000000
0000000000000000
0000000000000000
0000000000000000
0000000000000000
0000000000000000
0000000000000000
0000000000000000
0000000000000000
0000000000000000
0000000000000000
0000000000000000
0000000000000000
0000000000000000
0000000000000000
0000000000000000
0000000000000000
0000000000000000
0000000000000000
0000000000000000
0000000000000000
0000000000000000
0000000000000000
1FFFFFFFFFFFFFFC
1FFFFFFFFFFFFFFC
1FFFFFFFFFFFFFFC
1FFFFFFFFFFFFFFC
0000000000000000
0000000000000000
0000000000000000
0000000000000000
0000000000000000
0000000000000000
0000000000000000
0000000000000000
0000000000000000
0000000000000000
0000000000000000
0000000000000000
0000000000000000
0000000000000000
0000000000000000
0000000000000000
0000000000000000
0000000000000000
0000000000000000
0000000000000000
0000000000000000
0000000000000000
0000000000000000
0000000000000000
0000000000000000
0000000000000000
0000000000000000
0000000000000000
0000000000000000
0000000000000000
0000000000000000
ENDCHAR

STARTCHAR kor_A1AB
ENCODING 41387
SWIDTH 1024 0
DWIDTH 64 0
BBX 64 64 0 -6
BITMAP
0000000000000000
0000000000000000
0000000000000000
0000000000000000
0000000000000000
0000000000000000
0000000000000000
0000000000000000
0000000000000000
0000000000000000
000000F00F000000
000000F00F000000
000000F00F000000
000000F00F000000
000000F00F000000
000000F00F000000
000000F00F000000
000000F00F000000
000000F00F000000
000000F00F000000
000000F00F000000
000000F00F000000
000000F00F000000
000000F00F000000
000000F00F000000
000000F00F000000
000000F00F000000
000000F00F000000
000000F00F000000
000000F00F000000
000000F00F000000
000000F00F000000
000000F00F000000
000000F00F000000
000000F00F000000
000000F00F000000
000000F00F000000
000000F00F000000
000000F00F000000
000000F00F000000
000000F00F000000
000000F00F000000
000000F00F000000
000000F00F000000
000000F00F000000
000000F00F000000
000000F00F000000
000000F00F000000
000000F00F000000
000000F00F000000
000000F00F000000
000000F00F000000
000000F00F000000
0000000000000000
0000000000000000
0000000000000000
0000000000000000
0000000000000000
0000000000000000
0000000000000000
0000000000000000
0000000000000000
0000000000000000
0000000000000000
ENDCHAR

STARTCHAR kor_A1AC
ENCODING 41388
SWIDTH 1024 0
DWIDTH 64 0
BBX 64 64 0 -6
BITMAP
0000000000000000
0003800000000000
0007C00000000000
0007C00000000000
0003E00000000000
0003F00000000000
0001F00000000000
0000F80000000000
0000F80000000000
00007C0000000000
00007C0000000000
00003E0000000000
00003F0000000000
00001F0000000000
00000F8000000000
00000F8000000000
000007C000000000
000007C000000000
000003E000000000
000003F000000000
000001F000000000
000000F800000000
000000F800000000
0000007C00000000
0000007C00000000
0000003E00000000
0000003F00000000
0000001F00000000
0000000F80000000
0000000F80000000
00000007C0000000
00000007E0000000
00000003E0000000
00000001F0000000
00000001F0000000
00000000F8000000
00000000FC000000
000000007C000000
000000003E000000
000000003E000000
000000001F000000
000000001F000000
000000000F800000
000000000FC00000
0000000007C00000
0000000003E00000
0000000003E00000
0000000001F00000
0000000001F80000
0000000000F80000
00000000007C0000
00000000007C0000
00000000003E0000
00000000003E0000
00000000001F0000
00000000001F8000
00000000000F8000
000000000007C000
000000000007C000
000000000003E000
000000000003E000
000000000001C000
0000000000000000
0000000000000000
ENDCHAR

STARTCHAR kor_A1AD
ENCODING 41389
SWIDTH 1024 0
DWIDTH 64 0
BBX 64 64 0 -6
BITMAP
0000000000000000
0000000000000000
0000000000000000
0000000000000000
0000000000000000
0000000000000000
0000000000000000
0000000000000000
0000000000000000
0000000000000000
0000000000000000
0000000000000000
0000000000000000
0000000000000000
0000000000000000
0000000000000000
0000000000000000
0000000000000000
0000000000000000
0000000000000000
0000000000000000
0000000000000000
0000000000000000
0000000000000000
0000000000000000
00007FC000000000
0001FFF000000000
0007FFFE00000600
000FFFFFC0001E00
001FFFFFF8007E00
003F807FFF83FC00
003C000FFFFFF800
00300003FFFFF000
000000007FFFE000
000000000FFF8000
0000000000FE0000
0000000000000000
0000000000000000
0000000000000000
0000000000000000
0000000000000000
0000000000000000
0000000000000000
0000000000000000
0000000000000000
0000000000000000
0000000000000000
0000000000000000
0000000000000000
0000000000000000
0000000000000000
0000000000000000
0000000000000000
0000000000000000
0000000000000000
0000000000000000
0000000000000000
0000000000000000
0000000000000000
0000000000000000
0000000000000000
0000000000000000
0000000000000000
0000000000000000
ENDCHAR

STARTCHAR kor_A1AE
ENCODING 41390
SWIDTH 1024 0
DWIDTH 64 0
BBX 64 64 0 -6
BITMAP
0000000000000000
0000000000000038
00000000000000F8
00000000000001F0
00000000000003E0
00000000000007C0
0000000000000F80
0000000000000F80
0000000000001F00
0000000000001F00
0000000000001FE0
0000000000001FF0
0000000000001FF8
0000000000001FF8
0000000000001FF8
0000000000001FF8
0000000000000FF8
0000000000000FF0
00000000000003E0
0000000000000000
0000000000000000
0000000000000000
0000000000000000
0000000000000000
0000000000000000
0000000000000000
0000000000000000
0000000000000000
0000000000000000
0000000000000000
0000000000000000
0000000000000000
0000000000000000
0000000000000000
0000000000000000
0000000000000000
0000000000000000
0000000000000000
0000000000000000
0000000000000000
0000000000000000
0000000000000000
0000000000000000
0000000000000000
0000000000000000
0000000000000000
0000000000000000
0000000000000000
0000000000000000
0000000000000000
0000000000000000
0000000000000000
0000000000000000
0000000000000000
0000000000000000
0000000000000000
0000000000000000
0000000000000000
0000000000000000
0000000000000000
0000000000000000
0000000000000000
0000000000000000
0000000000000000
ENDCHAR

STARTCHAR kor_A1AF
ENCODING 41391
SWIDTH 1024 0
DWIDTH 64 0
BBX 64 64 0 -6
BITMAP
0000000000000000
03E0000000000000
07F8000000000000
0FF8000000000000
0FFC000000000000
0FFC000000000000
0FFC000000000000
0FFC000000000000
07FC000000000000
03FC000000000000
007C000000000000
007C000000000000
00F8000000000000
00F8000000000000
01F0000000000000
03E0000000000000
07C0000000000000
0F80000000000000
0E00000000000000
0000000000000000
0000000000000000
0000000000000000
0000000000000000
0000000000000000
0000000000000000
0000000000000000
0000000000000000
0000000000000000
0000000000000000
0000000000000000
0000000000000000
0000000000000000
0000000000000000
0000000000000000
0000000000000000
0000000000000000
0000000000000000
0000000000000000
0000000000000000
0000000000000000
0000000000000000
0000000000000000
0000000000000000
0000000000000000
0000000000000000
0000000000000000
0000000000000000
0000000000000000
0000000000000000
0000000000000000
0000000000000000
0000000000000000
0000000000000000
0000000000000000
0000000000000000
0000000000000000
0000000000000000
0000000000000000
0000000000000000
0000000000000000
0000000000000000
0000000000000000
0000000000000000
0000000000000000
ENDCHAR

STARTCHAR kor_A1B0
ENCODING 41392
SWIDTH 1024 0
DWIDTH 64 0
BBX 64 64 0 -6
BITMAP
0000000000000000
00000000000E0038
00000000003E00F8
00000000007C01F0
0000000000F803E0
0000000001F007C0
0000000003E00F80
0000000003E00F80
0000000007C01F00
0000000007C01F00
0000000007F81FE0
0000000007FC1FF0
0000000007FE1FF8
0000000007FE1FF8
0000000007FE1FF8
0000000007FE1FF8
0000000003FE0FF8
0000000003FC0FF0
0000000000F803E0
0000000000000000
0000000000000000
0000000000000000
0000000000000000
0000000000000000
0000000000000000
0000000000000000
0000000000000000
0000000000000000
0000000000000000
0000000000000000
0000000000000000
0000000000000000
0000000000000000
0000000000000000
0000000000000000
0000000000000000
0000000000000000
0000000000000000
0000000000000000
0000000000000000
0000000000000000
0000000000000000
0000000000000000
0000000000000000
0000000000000000
0000000000000000
0000000000000000
0000000000000000
0000000000000000
0000000000000000
0000000000000000
0000000000000000
0000000000000000
0000000000000000
0000000000000000
0000000000000000
0000000000000000
0000000000000000
0000000000000000
0000000000000000
0000000000000000
0000000000000000
0000000000000000
0000000000000000
ENDCHAR

STARTCHAR kor_A1B1
ENCODING 41393
SWIDTH 1024 0
DWIDTH 64 0
BBX 64 64 0 -6
BITMAP
0000000000000000
03E00F8000000000
07F81FE000000000
0FF83FE000000000
0FFC3FF000000000
0FFC3FF000000000
0FFC3FF000000000
0FFC3FF000000000
07FC1FF000000000
03FC0FF000000000
007C01F000000000
007C01F000000000
00F803E000000000
00F803E000000000
01F007C000000000
03E00F8000000000
07C01F0000000000
0F803E0000000000
0E00380000000000
0000000000000000
0000000000000000
0000000000000000
0000000000000000
0000000000000000
0000000000000000
0000000000000000
0000000000000000
0000000000000000
0000000000000000
0000000000000000
0000000000000000
0000000000000000
0000000000000000
0000000000000000
0000000000000000
0000000000000000
0000000000000000
0000000000000000
0000000000000000
0000000000000000
0000000000000000
0000000000000000
0000000000000000
0000000000000000
0000000000000000
0000000000000000
0000000000000000
0000000000000000
0000000000000000
0000000000000000
0000000000000000
0000000000000000
0000000000000000
0000000000000000
0000000000000000
0000000000000000
0000000000000000
0000000000000000
0000000000000000
0000000000000000
0000000000000000
0000000000000000
0000000000000000
0000000000000000
ENDCHAR

STARTCHAR kor_A1B2
ENCODING 41394
SWIDTH 1024 0
DWIDTH 64 0
BBX 64 64 0 -6
BITMAP
0000000000000000
00000000000000F0
0000000000000FF8
0000000000007FF8
000000000003FFF8
00000000000FFFC0
00000000000FFC00
00000000000FE000
00000000000F0000
00000000000F0000
00000000000F0000
00000000000F0000
00000000000F0000
00000000000F0000
00000000000F0000
00000000000F0000
00000000000F0000
00000000000F0000
00000000000F0000
00000000000F0000
00000000000F0000
00000000000F0000
00000000000F0000
00000000000F0000
00000000000F0000
00000000000F0000
00000000000F0000
00000000000F0000
00000000000F0000
00000000000F0000
00000000000F0000
00000000000F0000
00000000000F0000
00000000000F0000
00000000000F0000
00000000000F0000
00000000000F0000
00000000000F0000
00000000000F0000
00000000000F0000
00000000000F0000
00000000000F0000
00000000000F0000
00000000000F0000
00000000000F0000
00000000000F0000
00000000000F0000
00000000000F0000
00000000000F0000
00000000000F0000
00000000000F0000
00000000000F0000
00000000000F0000
00000000000F0000
00000000000F0000
00000000000FE000
00000000000FFC00
00000000000FFFC0
000000000003FFF8
0000000000007FF8
0000000000000FF8
00000000000000F0
0000000000000000
0000000000000000
ENDCHAR

STARTCHAR kor_A1B3
ENCODING 41395
SWIDTH 1024 0
DWIDTH 64 0
BBX 64 64 0 -6
BITMAP
0000000000000000
0780000000000000
0FF8000000000000
0FFF000000000000
0FFFE00000000000
01FFF80000000000
001FF80000000000
0003F80000000000
0000780000000000
0000780000000000
0000780000000000
0000780000000000
0000780000000000
0000780000000000
0000780000000000
0000780000000000
0000780000000000
0000780000000000
0000780000000000
0000780000000000
0000780000000000
0000780000000000
0000780000000000
0000780000000000
0000780000000000
0000780000000000
0000780000000000
0000780000000000
0000780000000000
0000780000000000
0000780000000000
0000780000000000
0000780000000000
0000780000000000
0000780000000000
0000780000000000
0000780000000000
0000780000000000
0000780000000000
0000780000000000
0000780000000000
0000780000000000
0000780000000000
0000780000000000
0000780000000000
0000780000000000
0000780000000000
0000780000000000
0000780000000000
0000780000000000
0000780000000000
0000780000000000
0000780000000000
0000780000000000
0000780000000000
0003F80000000000
001FF80000000000
01FFF80000000000
0FFFE00000000000
0FFF000000000000
0FF8000000000000
0780000000000000
0000000000000000
0000000000000000
ENDCHAR

STARTCHAR kor_A1B4
ENCODING 41396
SWIDTH 1024 0
DWIDTH 64 0
BBX 64 64 0 -6
BITMAP
0000000000000000
0000000000000000
0000000000000000
0000000000000000
0000000000000070
00000000000000F8
00000000000001F8
00000000000003F0
00000000000007E0
0000000000000FC0
0000000000000F80
0000000000001F80
0000000000003F00
0000000000007E00
0000000000007C00
000000000000F800
000000000001F800
000000000003F000
000000000007E000
00000000000FC000
00000000001F8000
00000000001F0000
00000000003E0000
00000000007E0000
0000000000FC0000
0000000001F80000
0000000003F00000
0000000003E00000
0000000007E00000
000000000FC00000
000000001F800000
000000001F800000
000000000FC00000
0000000007E00000
0000000003E00000
0000000003F00000
0000000001F80000
0000000000FC0000
00000000007E0000
00000000003E0000
00000000001F0000
00000000001F8000
00000000000FC000
000000000007E000
000000000003F000
000000000001F800
000000000000F800
0000000000007C00
0000000000007E00
0000000000003F00
0000000000001F80
0000000000000F80
0000000000000FC0
00000000000007E0
00000000000003F0
00000000000001F8
00000000000000F8
0000000000000078
0000000000000030
0000000000000000
0000000000000000
0000000000000000
0000000000000000
0000000000000000
ENDCHAR

STARTCHAR kor_A1B5
ENCODING 41397
SWIDTH 1024 0
DWIDTH 64 0
BBX 64 64 0 -6
BITMAP
0000000000000000
0000000000000000
0000000000000000
0000000000000000
0600000000000000
0F00000000000000
0F80000000000000
0FC0000000000000
07E0000000000000
03F0000000000000
01F8000000000000
00F8000000000000
00FC000000000000
007E000000000000
003F000000000000
001F000000000000
000F800000000000
000FC00000000000
0007E00000000000
0003F00000000000
0001F80000000000
0000FC0000000000
00007C0000000000
00003E0000000000
00003F0000000000
00001F8000000000
00000FC000000000
000007E000000000
000003E000000000
000003F000000000
000001F800000000
000000FC00000000
000000FC00000000
000001F800000000
000003F000000000
000003E000000000
000007E000000000
00000FC000000000
00001F8000000000
00003F0000000000
00003E0000000000
00007C0000000000
0000FC0000000000
0001F80000000000
0003F00000000000
0007E00000000000
000FC00000000000
000F800000000000
001F000000000000
003F000000000000
007E000000000000
00FC000000000000
00F8000000000000
01F8000000000000
03F0000000000000
07E0000000000000
0FC0000000000000
0F80000000000000
0700000000000000
0000000000000000
0000000000000000
0000000000000000
0000000000000000
0000000000000000
ENDCHAR

STARTCHAR kor_A1B6
ENCODING 41398
SWIDTH 1024 0
DWIDTH 64 0
BBX 64 64 0 -6
BITMAP
0000000000000000
0000000000000000
0000000000000000
0000000000000000
0000000000003870
0000000000003C78
0000000000007CF8
000000000000FDF8
000000000000F9F0
000000000001F3E0
000000000003F7E0
000000000003E7C0
000000000007CF80
00000000000FDF00
00000000000F9F00
00000000001F3E00
00000000003F7C00
00000000003E7C00
00000000007CF800
00000000007DF000
0000000000F9F000
0000000001FBE000
0000000001F7C000
0000000003E7C000
0000000007EF8000
0000000007DF0000
000000000F9F0000
000000001FBE0000
000000001F7C0000
000000003E7C0000
000000007EF80000
000000007EFC0000
000000003E7C0000
000000001F3E0000
000000001F3E0000
000000000F9F0000
000000000FDF8000
0000000007CF8000
0000000003E7C000
0000000003E7C000
0000000001F3E000
0000000001FBF000
0000000000F9F000
00000000007DF800
00000000007CF800
00000000003E7C00
00000000003F7E00
00000000001F3E00
00000000000F9F00
00000000000F9F80
000000000007CF80
000000000003E7C0
000000000003E7E0
000000000001F3E0
000000000001F9F0
000000000000F9F0
0000000000007CF8
0000000000007CF8
0000000000003870
0000000000000000
0000000000000000
0000000000000000
0000000000000000
0000000000000000
ENDCHAR

STARTCHAR kor_A1B7
ENCODING 41399
SWIDTH 1024 0
DWIDTH 64 0
BBX 64 64 0 -6
BITMAP
0000000000000000
0000000000000000
0000000000000000
0000000000000000
070E000000000000
0F9F000000000000
0F9F000000000000
07CF800000000000
07CFC00000000000
03E7C00000000000
03F3E00000000000
01F3E00000000000
00F9F00000000000
00FCF80000000000
007CF80000000000
003E7C0000000000
003F7E0000000000
001F3E0000000000
000F9F0000000000
000FDF0000000000
0007CF8000000000
0007EFC000000000
0003E7C000000000
0001F3E000000000
0001F3E000000000
0000F9F000000000
0000FDF800000000
00007CF800000000
00003E7C00000000
00003E7C00000000
00001F3E00000000
00001FBF00000000
00000FBF00000000
00001F3E00000000
00001F7C00000000
00003EFC00000000
00007CF800000000
00007DF000000000
0000FBF000000000
0001F3E000000000
0001F7C000000000
0003EFC000000000
0007CF8000000000
0007DF0000000000
000F9F0000000000
001F3E0000000000
001F7E0000000000
003E7C0000000000
007CF80000000000
007DF80000000000
00F9F00000000000
01F3E00000000000
03F7E00000000000
03E7C00000000000
07CF800000000000
0FDF800000000000
0F9F000000000000
0F1E000000000000
070E000000000000
0000000000000000
0000000000000000
0000000000000000
0000000000000000
0000000000000000
ENDCHAR

STARTCHAR kor_A1B8
ENCODING 41400
SWIDTH 1024 0
DWIDTH 64 0
BBX 64 64 0 -6
BITMAP
0000000000000000
0000000001FFFFF8
0000000001FFFFF8
0000000001FFFFF8
0000000001FFFFF8
0000000001E00000
0000000001E00000
0000000001E00000
0000000001E00000
0000000001E00000
0000000001E00000
0000000001E00000
0000000001E00000
0000000001E00000
0000000001E00000
0000000001E00000
0000000001E00000
0000000001E00000
0000000001E00000
0000000001E00000
0000000001E00000
0000000001E00000
0000000001E00000
0000000001E00000
0000000001E00000
0000000001E00000
0000000001E00000
0000000001E00000
0000000001E00000
0000000001E00000
0000000001E00000
0000000001E00000
0000000001E00000
0000000001E00000
0000000000000000
0000000000000000
0000000000000000
0000000000000000
0000000000000000
0000000000000000
0000000000000000
0000000000000000
0000000000000000
0000000000000000
0000000000000000
0000000000000000
0000000000000000
0000000000000000
0000000000000000
0000000000000000
0000000000000000
0000000000000000
0000000000000000
0000000000000000
0000000000000000
0000000000000000
0000000000000000
0000000000000000
0000000000000000
0000000000000000
0000000000000000
0000000000000000
0000000000000000
0000000000000000
ENDCHAR

STARTCHAR kor_A1B9
ENCODING 41401
SWIDTH 1024 0
DWIDTH 64 0
BBX 64 64 0 -6
BITMAP
0000000000000000
0000000000000000
0000000000000000
0000000000000000
0000000000000000
0000000000000000
0000000000000000
0000000000000000
0000000000000000
0000000000000000
0000000000000000
0000000000000000
0000000000000000
0000000000000000
0000000000000000
0000000000000000
0000000000000000
0000000000000000
0000000000000000
0000000000000000
0000000000000000
0000000000000000
0000000000000000
0000000000000000
0000000000000000
0000000000000000
0000000000000000
0000000000000000
0000078000000000
0000078000000000
0000078000000000
0000078000000000
0000078000000000
0000078000000000
0000078000000000
0000078000000000
0000078000000000
0000078000000000
0000078000000000
0000078000000000
0000078000000000
0000078000000000
0000078000000000
0000078000000000
0000078000000000
0000078000000000
0000078000000000
0000078000000000
0000078000000000
0000078000000000
0000078000000000
0000078000000000
0000078000000000
0000078000000000
0000078000000000
0000078000000000
0000078000000000
0000078000000000
1FFFFF8000000000
1FFFFF8000000000
1FFFFF8000000000
1FFFFF8000000000
0000000000000000
0000000000000000
ENDCHAR

STARTCHAR kor_A1BA
ENCODING 41402
SWIDTH 1024 0
DWIDTH 64 0
BBX 64 64 0 -6
BITMAP
0000000000000000
0000000001FFFFF8
0000000001FFFFF8
0000000001FFFFF8
0000000001FFFFF8
0000000001E00078
0000000001EFFFF8
0000000001EFFFF8
0000000001EFFFF8
0000000001EFFFF8
0000000001EF0000
0000000001EF0000
0000000001EF0000
0000000001EF0000
0000000001EF0000
0000000001EF0000
0000000001EF0000
0000000001EF0000
0000000001EF0000
0000000001EF0000
0000000001EF0000
0000000001EF0000
0000000001EF0000
0000000001EF0000
0000000001EF0000
0000000001EF0000
0000000001EF0000
0000000001EF0000
0000000001EF0000
0000000001EF0000
0000000001EF0000
0000000001EF0000
0000000001FF0000
0000000001FF0000
0000000001FF0000
0000000001FF0000
0000000000000000
0000000000000000
0000000000000000
0000000000000000
0000000000000000
0000000000000000
0000000000000000
0000000000000000
0000000000000000
0000000000000000
0000000000000000
0000000000000000
0000000000000000
0000000000000000
0000000000000000
0000000000000000
0000000000000000
0000000000000000
0000000000000000
0000000000000000
0000000000000000
0000000000000000
0000000000000000
0000000000000000
0000000000000000
0000000000000000
0000000000000000
0000000000000000
ENDCHAR

STARTCHAR kor_A1BB
ENCODING 41403
SWIDTH 1024 0
DWIDTH 64 0
BBX 64 64 0 -6
BITMAP
0000000000000000
0000000000000000
0000000000000000
0000000000000000
0000000000000000
0000000000000000
0000000000000000
0000000000000000
0000000000000000
0000000000000000
0000000000000000
0000000000000000
0000000000000000
0000000000000000
0000000000000000
0000000000000000
0000000000000000
0000000000000000
0000000000000000
0000000000000000
0000000000000000
0000000000000000
0000000000000000
0000000000000000
0000000000000000
0000000000000000
0000000000000000
0000FF8000000000
0000FF8000000000
0000FF8000000000
0000FF8000000000
0000F78000000000
0000F78000000000
0000F78000000000
0000F78000000000
0000F78000000000
0000F78000000000
0000F78000000000
0000F78000000000
0000F78000000000
0000F78000000000
0000F78000000000
0000F78000000000
0000F78000000000
0000F78000000000
0000F78000000000
0000F78000000000
0000F78000000000
0000F78000000000
0000F78000000000
0000F78000000000
0000F78000000000
0000F78000000000
1FFFF78000000000
1FFFF78000000000
1FFFF78000000000
1FFFF78000000000
1E00078000000000
1FFFFF8000000000
1FFFFF8000000000
1FFFFF8000000000
1FFFFF8000000000
0000000000000000
0000000000000000
ENDCHAR

STARTCHAR kor_A1BC
ENCODING 41404
SWIDTH 1024 0
DWIDTH 64 0
BBX 64 64 0 -6
BITMAP
0000000000000000
0000000000FFFFFC
0000000000FFFFFC
0000000000FFFFF0
0000000000FFFFE0
0000000000FFFFC0
0000000000FFFFC0
0000000000FFFF80
0000000000FFFF80
0000000000FFFF00
0000000000FFFF00
0000000000FFFE00
0000000000FFFE00
0000000000FFFE00
0000000000FFFC00
0000000000FFFC00
0000000000FFFC00
0000000000FFFC00
0000000000FFF800
0000000000FFF800
0000000000FFF800
0000000000FFF800
0000000000FFF800
0000000000FFF800
0000000000FFF000
0000000000FFF000
0000000000FFF000
0000000000FFF000
0000000000FFF000
0000000000FFF000
0000000000FFF000
0000000000FFF000
0000000000FFF000
0000000000FFF000
0000000000FFF000
0000000000FFF000
0000000000FFF000
0000000000FFF000
0000000000FFF000
0000000000FFF800
0000000000FFF800
0000000000FFF800
0000000000FFF800
0000000000FFF800
0000000000FFF800
0000000000FFFC00
0000000000FFFC00
0000000000FFFC00
0000000000FFFC00
0000000000FFFE00
0000000000FFFE00
0000000000FFFE00
0000000000FFFF00
0000000000FFFF00
0000000000FFFF80
0000000000FFFF80
0000000000FFFFC0
0000000000FFFFC0
0000000000FFFFE0
0000000000FFFFF0
0000000000FFFFFC
0000000000FFFFFC
0000000000000000
0000000000000000
ENDCHAR

STARTCHAR kor_A1BD
ENCODING 41405
SWIDTH 1024 0
DWIDTH 64 0
BBX 64 64 0 -6
BITMAP
0000000000000000
1FFFFF8000000000
1FFFFF8000000000
07FFFF8000000000
03FFFF8000000000
01FFFF8000000000
01FFFF8000000000
00FFFF8000000000
00FFFF8000000000
007FFF8000000000
007FFF8000000000
003FFF8000000000
003FFF8000000000
003FFF8000000000
001FFF8000000000
001FFF8000000000
001FFF8000000000
001FFF8000000000
000FFF8000000000
000FFF8000000000
000FFF8000000000
000FFF8000000000
000FFF8000000000
000FFF8000000000
0007FF8000000000
0007FF8000000000
0007FF8000000000
0007FF8000000000
0007FF8000000000
0007FF8000000000
0007FF8000000000
0007FF8000000000
0007FF8000000000
0007FF8000000000
0007FF8000000000
0007FF8000000000
0007FF8000000000
0007FF8000000000
0007FF8000000000
000FFF8000000000
000FFF8000000000
000FFF8000000000
000FFF8000000000
000FFF8000000000
000FFF8000000000
001FFF8000000000
001FFF8000000000
001FFF8000000000
001FFF8000000000
003FFF8000000000
003FFF8000000000
003FFF8000000000
007FFF8000000000
007FFF8000000000
00FFFF8000000000
00FFFF8000000000
01FFFF8000000000
01FFFF8000000000
03FFFF8000000000
07FFFF8000000000
1FFFFF8000000000
1FFFFF8000000000
0000000000000000
0000000000000000
ENDCHAR

STARTCHAR kor_A1BE
ENCODING 41406
SWIDTH 1024 0
DWIDTH 64 0
BBX 64 64 0 -6
BITMAP
0000000000000000
0000000000000000
0000000000000000
0000000000000000
00000003C0000000
00000003C0000000
00000003C0000000
00000003C0000000
00000003C0000000
00000003C0000000
00000003C0000000
00000003C0000000
00000003C0000000
00000003C0000000
00000003C0000000
00000003C0000000
00000003C0000000
00000003C0000000
00000003C0000000
00000003C0000000
001FFFFFFFFFFC00
001FFFFFFFFFFC00
001FFFFFFFFFFC00
001FFFFFFFFFFC00
00000003C0000000
00000003C0000000
00000003C0000000
00000003C0000000
00000003C0000000
00000003C0000000
00000003C0000000
00000003C0000000
00000003C0000000
00000003C0000000
00000003C0000000
00000003C0000000
00000003C0000000
00000003C0000000
00000003C0000000
00000003C0000000
0000000000000000
0000000000000000
0000000000000000
0000000000000000
001FFFFFFFFFFC00
001FFFFFFFFFFC00
001FFFFFFFFFFC00
001FFFFFFFFFFC00
0000000000000000
0000000000000000
0000000000000000
0000000000000000
0000000000000000
0000000000000000
0000000000000000
0000000000000000
0000000000000000
0000000000000000
0000000000000000
0000000000000000
0000000000000000
0000000000000000
0000000000000000
0000000000000000
ENDCHAR

STARTCHAR kor_A1BF
ENCODING 41407
SWIDTH 1024 0
DWIDTH 64 0
BBX 64 64 0 -6
BITMAP
0000000000000000
0000000000000000
0000000000000000
0000000000000000
0000000000000000
0000000000000000
0000000000000000
0000000000000000
0000000000000000
0000000000000000
0000000000000000
0001800000000000
0003C0000001C000
0003E0000003E000
0003F0000007E000
0001F800000FC000
0000FC00001F8000
00007E00003F0000
00003F00007E0000
00001F8000FC0000
00000FC001F80000
000007E003F00000
000003F007E00000
000001F80FC00000
000000FC1F800000
0000007E3F000000
0000003F7E000000
0000001FFC000000
0000000FF8000000
00000007F0000000
00000007F0000000
0000000FF8000000
0000001FFC000000
0000003F7E000000
0000007E3F000000
000000FC1F800000
000001F80FC00000
000003F007E00000
000007E003F00000
00000FC001F80000
00001F8000FC0000
00003F00007E0000
00007E00003F0000
0000FC00001F8000
0001F800000FC000
0003F0000007C000
0003E0000003C000
0001C00000018000
0000000000000000
0000000000000000
0000000000000000
0000000000000000
0000000000000000
0000000000000000
0000000000000000
0000000000000000
0000000000000000
0000000000000000
0000000000000000
0000000000000000
0000000000000000
0000000000000000
0000000000000000
0000000000000000
ENDCHAR

STARTCHAR kor_A1C0
ENCODING 41408
SWIDTH 1024 0
DWIDTH 64 0
BBX 64 64 0 -6
BITMAP
0000000000000000
0000000000000000
0000000000000000
0000000000000000
0000000000000000
0000000000000000
0000000000000000
0000000000000000
0000000000000000
0000000000000000
0000000000000000
0000000000000000
00000003E0000000
00000007F0000000
0000000FF8000000
0000000FF8000000
0000000FF8000000
0000000FF8000000
0000000FF8000000
00000007F0000000
00000003E0000000
0000000000000000
0000000000000000
0000000000000000
0000000000000000
0000000000000000
0000000000000000
0000000000000000
0000000000000000
001FFFFFFFFFFC00
001FFFFFFFFFFC00
001FFFFFFFFFFC00
001FFFFFFFFFFC00
0000000000000000
0000000000000000
0000000000000000
0000000000000000
0000000000000000
0000000000000000
0000000000000000
0000000000000000
00000003E0000000
00000007F0000000
0000000FF8000000
0000000FF8000000
0000000FF8000000
0000000FF8000000
0000000FF8000000
00000007F0000000
00000003E0000000
0000000000000000
0000000000000000
0000000000000000
0000000000000000
0000000000000000
0000000000000000
0000000000000000
0000000000000000
0000000000000000
0000000000000000
0000000000000000
0000000000000000
0000000000000000
0000000000000000
ENDCHAR

STARTCHAR kor_A1C1
ENCODING 41409
SWIDTH 1024 0
DWIDTH 64 0
BBX 64 64 0 -6
BITMAP
0000000000000000
0000000000000000
0000000000000000
0000000000000000
0000000000000000
0000000000000000
0000000000000000
0000000000000000
0000000000000000
0000000000000000
0000007000000000
000000F000000000
000000F800000000
000000F800000000
0000007800000000
0000007800000000
0000007C00000000
0000007C00000000
0000003C00000000
0000003C00000000
0000003E00000000
0000003E00000000
00FFFFFFFFFFFC00
00FFFFFFFFFFFC00
00FFFFFFFFFFFC00
00FFFFFFFFFFFC00
0000000F00000000
0000000F80000000
0000000F80000000
0000000780000000
0000000780000000
00000007C0000000
00000007C0000000
00FFFFFFFFFFFC00
00FFFFFFFFFFFC00
00FFFFFFFFFFFC00
00FFFFFFFFFFFC00
00000001E0000000
00000001E0000000
00000001F0000000
00000000F0000000
00000000F0000000
00000000F0000000
00000000F8000000
00000000F8000000
0000000078000000
0000000078000000
0000000078000000
0000000070000000
0000000000000000
0000000000000000
0000000000000000
0000000000000000
0000000000000000
0000000000000000
0000000000000000
0000000000000000
0000000000000000
0000000000000000
0000000000000000
0000000000000000
0000000000000000
0000000000000000
0000000000000000
ENDCHAR

STARTCHAR kor_A1C2
ENCODING 41410
SWIDTH 1024 0
DWIDTH 64 0
BBX 64 64 0 -6
BITMAP
0000000000000000
0000000000000000
0000000000000000
0000000000000000
0000000000000000
0000000000000000
0000000000000000
0000000000001800
0000000000007C00
000000000001FC00
000000000007FC00
00000000001FF000
0000000000FFC000
0000000003FF0000
000000000FFC0000
000000003FF00000
00000001FF800000
00000007FE000000
0000001FF8000000
000000FFE0000000
000003FF00000000
00000FFC00000000
00007FF000000000
0001FFC000000000
000FFE0000000000
003FF80000000000
003FF80000000000
000FFF0000000000
0001FFE000000000
00007FFC00000000
00000FFF80000000
000001FFE0000000
0000003FFC000000
00000007FF800000
00000001FFF00000
000000003FFE0000
0000000007FFC000
0000000000FFF000
00000000001FFC00
000000000003FC00
0000000000007C00
0000000000001800
0000000000000000
0000000000000000
003FFFFFFFFFFC00
003FFFFFFFFFFC00
003FFFFFFFFFFC00
003FFFFFFFFFFC00
0000000000000000
0000000000000000
0000000000000000
0000000000000000
0000000000000000
0000000000000000
0000000000000000
0000000000000000
0000000000000000
0000000000000000
0000000000000000
0000000000000000
0000000000000000
0000000000000000
0000000000000000
0000000000000000
ENDCHAR

STARTCHAR kor_A1C3
ENCODING 41411
SWIDTH 1024 0
DWIDTH 64 0
BBX 64 64 0 -6
BITMAP
0000000000000000
0000000000000000
0000000000000000
0000000000000000
0000000000000000
0000000000000000
0000000000000000
0018000000000000
003E000000000000
003F800000000000
003FE00000000000
000FF80000000000
0003FF0000000000
0000FFC000000000
00003FF000000000
00000FFC00000000
000001FF80000000
0000007FE0000000
0000001FF8000000
00000007FF000000
00000000FFC00000
000000003FF00000
000000000FFE0000
0000000003FF8000
00000000007FF000
00000000001FFC00
00000000001FFC00
0000000000FFF000
0000000007FF8000
000000003FFE0000
00000001FFF00000
00000007FF800000
0000003FFC000000
000001FFE0000000
00000FFF80000000
00007FFC00000000
0003FFE000000000
000FFF0000000000
003FF80000000000
003FC00000000000
003E000000000000
0018000000000000
0000000000000000
0000000000000000
003FFFFFFFFFFC00
003FFFFFFFFFFC00
003FFFFFFFFFFC00
003FFFFFFFFFFC00
0000000000000000
0000000000000000
0000000000000000
0000000000000000
0000000000000000
0000000000000000
0000000000000000
0000000000000000
0000000000000000
0000000000000000
0000000000000000
0000000000000000
0000000000000000
0000000000000000
0000000000000000
0000000000000000
ENDCHAR

STARTCHAR kor_A1C4
ENCODING 41412
SWIDTH 1024 0
DWIDTH 64 0
BBX 64 64 0 -6
BITMAP
0000000000000000
0000000000000000
0000000000000000
0000000000000000
0000000000000000
0000000000000000
0000000000000000
0000000000000000
0000000000000000
0000000000000000
0000000000000000
0000000000000000
0000000000000000
0000000000000000
0000000000000000
0000000000000000
0000000000000000
0007FF8001FFC000
001FFFE007FFF000
003FFFF00FFFF800
007FFFF81FFFFC00
00FE01FC3F80FE00
01F8007E7E003F00
01F0003FFC001F80
03E0001FF8000F80
03E0000FF00007C0
03C0000FE00007C0
03C00007E00003C0
03C00007C00003C0
03C00003C00003C0
03C00007C00003C0
03C00007E00003C0
03C0000FE00003C0
03E0000FF00007C0
03E0001FF00007C0
01F0003FF8000F80
01F8007EFC001F80
00FE01FC7F007F00
007FFFF83FFFFE00
003FFFF01FFFFC00
001FFFE00FFFF800
0007FF8003FFE000
0000000000000000
0000000000000000
0000000000000000
0000000000000000
0000000000000000
0000000000000000
0000000000000000
0000000000000000
0000000000000000
0000000000000000
0000000000000000
0000000000000000
0000000000000000
0000000000000000
0000000000000000
0000000000000000
0000000000000000
0000000000000000
0000000000000000
0000000000000000
0000000000000000
0000000000000000
ENDCHAR

STARTCHAR kor_A1C5
ENCODING 41413
SWIDTH 1024 0
DWIDTH 64 0
BBX 64 64 0 -6
BITMAP
0000000000000000
0000000000000000
0000000000000000
0000000000000000
0000000000000000
0000000000000000
0000000000000000
0000000000000000
0000000000000000
0000000000000000
0000000000000000
0000000000000000
00000003E0000000
00000007F0000000
0000000FF8000000
0000000FF8000000
0000000FF8000000
0000000FF8000000
0000000FF8000000
00000007F0000000
00000003E0000000
0000000000000000
0000000000000000
0000000000000000
0000000000000000
0000000000000000
0000000000000000
0000000000000000
0000000000000000
0000000000000000
0000000000000000
0000000000000000
0000000000000000
0000000000000000
0000000000000000
0000000000000000
0000000000000000
0000F800000F8000
0001FC00001FC000
0003FE00003FE000
0003FE00003FE000
0003FE00003FE000
0003FE00003FE000
0003FE00003FE000
0001FC00001FC000
0000F800000F8000
0000000000000000
0000000000000000
0000000000000000
0000000000000000
0000000000000000
0000000000000000
0000000000000000
0000000000000000
0000000000000000
0000000000000000
0000000000000000
0000000000000000
0000000000000000
0000000000000000
0000000000000000
0000000000000000
0000000000000000
0000000000000000
ENDCHAR

STARTCHAR kor_A1C6
ENCODING 41414
SWIDTH 1024 0
DWIDTH 64 0
BBX 64 64 0 -6
BITMAP
0000000000000000
0000000000000000
0000000000000000
0000000000000000
007E000000000000
01FF800000000000
03FFC00000000000
03FFC00000000000
07E7E00000000000
07C3E00000000000
0781E00000000000
0781E00000000000
07C3E00000000000
07E7E00000000000
03FFC00000000000
03FFC00000000000
01FF800000000000
007E000000000000
0000000000000000
0000000000000000
0000000000000000
0000000000000000
0000000000000000
0000000000000000
0000000000000000
0000000000000000
0000000000000000
0000000000000000
0000000000000000
0000000000000000
0000000000000000
0000000000000000
0000000000000000
0000000000000000
0000000000000000
0000000000000000
0000000000000000
0000000000000000
0000000000000000
0000000000000000
0000000000000000
0000000000000000
0000000000000000
0000000000000000
0000000000000000
0000000000000000
0000000000000000
0000000000000000
0000000000000000
0000000000000000
0000000000000000
0000000000000000
0000000000000000
0000000000000000
0000000000000000
0000000000000000
0000000000000000
0000000000000000
0000000000000000
0000000000000000
0000000000000000
0000000000000000
0000000000000000
0000000000000000
ENDCHAR

STARTCHAR kor_A1C7
ENCODING 41415
SWIDTH 1024 0
DWIDTH 64 0
BBX 64 64 0 -6
BITMAP
0000000000000000
000F000000000000
001F800000000000
003FC00000000000
003FC00000000000
007FC00000000000
007FC00000000000
00FF800000000000
00FF000000000000
01FE000000000000
01FC000000000000
03F8000000000000
03F0000000000000
07E0000000000000
07C0000000000000
0F80000000000000
0F00000000000000
1E00000000000000
1C00000000000000
0000000000000000
0000000000000000
0000000000000000
0000000000000000
0000000000000000
0000000000000000
0000000000000000
0000000000000000
0000000000000000
0000000000000000
0000000000000000
0000000000000000
0000000000000000
0000000000000000
0000000000000000
0000000000000000
0000000000000000
0000000000000000
0000000000000000
0000000000000000
0000000000000000
0000000000000000
0000000000000000
0000000000000000
0000000000000000
0000000000000000
0000000000000000
0000000000000000
0000000000000000
0000000000000000
0000000000000000
0000000000000000
0000000000000000
0000000000000000
0000000000000000
0000000000000000
0000000000000000
0000000000000000
0000000000000000
0000000000000000
0000000000000000
0000000000000000
0000000000000000
0000000000000000
0000000000000000
ENDCHAR

STARTCHAR kor_A1C8
ENCODING 41416
SWIDTH 1024 0
DWIDTH 64 0
BBX 64 64 0 -6
BITMAP
0000000000000000
000F03C000000000
001F87E000000000
003FCFF000000000
003FCFF000000000
007FDFF000000000
007FDFF000000000
00FFBFE000000000
00FF3FC000000000
01FE7F8000000000
01FC7F0000000000
03F8FE0000000000
03F0FC0000000000
07E1F80000000000
07C1F00000000000
0F83E00000000000
0F03C00000000000
1E07800000000000
1C07000000000000
0000000000000000
0000000000000000
0000000000000000
0000000000000000
0000000000000000
0000000000000000
0000000000000000
0000000000000000
0000000000000000
0000000000000000
0000000000000000
0000000000000000
0000000000000000
0000000000000000
0000000000000000
0000000000000000
0000000000000000
0000000000000000
0000000000000000
0000000000000000
0000000000000000
0000000000000000
0000000000000000
0000000000000000
0000000000000000
0000000000000000
0000000000000000
0000000000000000
0000000000000000
0000000000000000
0000000000000000
0000000000000000
0000000000000000
0000000000000000
0000000000000000
0000000000000000
0000000000000000
0000000000000000
0000000000000000
0000000000000000
0000000000000000
0000000000000000
0000000000000000
0000000000000000
0000000000000000
ENDCHAR

STARTCHAR kor_A1C9
ENCODING 41417
SWIDTH 1024 0
DWIDTH 64 0
BBX 64 64 0 -6
BITMAP
0000000000000000
0000000000000000
0000000000000000
0007F00000000000
001FFC0000000000
003FFE0000000000
003FFE0000000000
007E3F0000000000
007C1F007FF00E00
00780F01FFFE0E00
00780F07FFFF9E00
007C1F0FE03FFE00
007E3F1F8007FE00
003FFE3F0001FE00
003FFE7E0000FE00
001FFCFC00007E00
0007F1F800003E00
000001F000003E00
000003F000001E00
000003E000001E00
000007E000000E00
000007C000000E00
000007C000000E00
00000FC000000000
00000FC000000000
00000F8000000000
00000F8000000000
00000F8000000000
00000F8000000000
00000F8000000000
00000F8000000000
00000F8000000000
00000F8000000000
00000F8000000000
00000F8000000000
00000F8000000000
00000F8000000000
00000F8000000000
00000FC000000000
00000FC000000000
000007C000000000
000007C000000700
000007E000000700
000003E000000F00
000003F000000F00
000001F000001E00
000001F800001E00
000000FC00003C00
000000FE00007C00
0000007F0000F800
0000003F8003F000
0000001FE00FE000
0000000FFFFFC000
00000003FFFF0000
00000000FFFC0000
0000000000000000
0000000000000000
0000000000000000
0000000000000000
0000000000000000
0000000000000000
0000000000000000
0000000000000000
0000000000000000
ENDCHAR

STARTCHAR kor_A1CA
ENCODING 41418
SWIDTH 1024 0
DWIDTH 64 0
BBX 64 64 0 -6
BITMAP
0000000000000000
0000000000000000
0000000000000000
00000007E0000000
0000001FF8000000
0000003FFC000000
0000003FFC000000
0000007C3E000000
000000781E000000
000000781E000000
000000781E000000
0000007C3E000000
0000003FFC000000
0000003FFC000000
0000001FF8000000
00000007E0000000
0000000060000000
00000001F0000000
00000007F0000000
0000000FF8000000
0000000FF8000000
0000001FFC000000
0000001EFC000000
0000003EFE000000
0000003C7E000000
0000007C7F000000
000000783F000000
000000F83F800000
000000F01F800000
000001F01FC00000
000001E00FC00000
000003E00FE00000
000003C007E00000
000007C007F00000
0000078003F00000
00000F8003F80000
00000F0001F80000
00001F0001FC0000
00001E0000FC0000
00003FFFFFFE0000
00003FFFFFFE0000
00007FFFFFFF0000
00007800003F0000
0000F800003F8000
0000F000001F8000
0001F000001FC000
0001E000000FC000
0003E000000FE000
0003C0000007E000
0007C0000007F000
000FE000000FF800
003FF800001FFE00
01FFFF0003FFFFC0
01FFFF0003FFFFC0
01FFFF0003FFFFC0
0000000000000000
0000000000000000
0000000000000000
0000000000000000
0000000000000000
0000000000000000
0000000000000000
0000000000000000
0000000000000000
ENDCHAR

STARTCHAR kor_A1CB
ENCODING 41419
SWIDTH 1024 0
DWIDTH 64 0
BBX 64 64 0 -6
BITMAP
0000000000000000
0000000000000000
0000000000000000
0000000000000000
0000000000000000
0000000000000000
0000000000000000
0000000007000000
0000000007800000
0000000007800000
000000000F800000
0000000FFF800000
0000007FFF800000
000001FFFFE38000
000003FC1FF38000
000007F01EFF8000
00000FC03E7F8000
00001F803E3F8000
00003F003C1F8000
00003E003C1F8000
00007E007C0F8000
00007C007C0F8000
0000FC0078078000
0000FC0078078000
0000F800F8078000
0001F800F8038000
0001F800F0038000
0001F001F0000000
0001F001F0000000
0001F001E0000000
0001F001E0000000
0001F003E0000000
0001F003E0000000
0001F003C0000000
0001F003C0000000
0001F007C0000000
0001F007C0000000
0001F80780000000
0001F80F80000000
0000F80F80000000
0000FC0F00000000
0000FC0F0001C000
00007E1F0003C000
00007E1F0003C000
00003F1E00078000
00003F3E000F8000
00001FBE001F0000
00001FFC003E0000
00000FFC00FC0000
000007FC03F80000
000003FFFFF00000
000001FFFFC00000
000000FFFF000000
000000F000000000
000001F000000000
000001F000000000
000001E000000000
000001E000000000
000000E000000000
0000000000000000
0000000000000000
0000000000000000
0000000000000000
0000000000000000
ENDCHAR

STARTCHAR kor_A1CC
ENCODING 41420
SWIDTH 1024 0
DWIDTH 64 0
BBX 64 64 0 -6
BITMAP
0000000000000000
0000000000000000
0000000000000000
0000000000000000
0000000000000000
0000000000000000
0000000000000000
0000000000000000
0000000000000000
0000000000000000
0000000000000000
00000003FF800000
0000000FFFE00000
0000003FFFF00000
0000007FFFF80000
0000007F00FC0000
000000FC003E0000
000000F8001E0000
000001F8007F0000
000001F800FF0000
000001F000FF0000
000001F000FF0000
000001F000FF0000
000001F0007E0000
000001F0003C0000
000001F000000000
000001F000000000
000001F000000000
000001F800000000
000001F800000000
000001F800000000
000000F800000000
000000FC00000000
000000FC00000000
0001FFFFFFFF0000
0001FFFFFFFF0000
0001FFFFFFFF0000
0001FFFFFFFF0000
0000007C00000000
0000007E00000000
0000007E00000000
0000003E00000000
00001FBE00000000
00007FFE00070000
0000FFFE00070000
0000FFFF000F0000
0001F8FF800E0000
0001F03FC01E0000
0001F07FE03E0000
0001F07FF8FC0000
0001F8FFFFFC0000
0001FFF9FFF80000
0000FFF0FFF00000
00007FE03FE00000
00001F800F800000
0000000000000000
0000000000000000
0000000000000000
0000000000000000
0000000000000000
0000000000000000
0000000000000000
0000000000000000
0000000000000000
ENDCHAR

STARTCHAR kor_A1CD
ENCODING 41421
SWIDTH 1024 0
DWIDTH 64 0
BBX 64 64 0 -6
BITMAP
0000000000000000
0000000000000000
0000000000000000
0000000000000000
0000000000000000
0000000000000000
0000000000000000
003FFFF007FFFC00
003FFFF007FFFC00
003FFFF007FFFC00
0001FFC000FF8000
00007F00003E0000
00003F00007C0000
00001F8000780000
00001F8000F80000
00000FC000F00000
00000FC001F00000
000007E001E00000
000007E003E00000
000003F003C00000
000003F007C00000
000001F807800000
000001F80F800000
000000FC0F000000
000000FC1F000000
0000007E1E000000
000FFFFFFFFFFC00
000FFFFFFFFFFC00
000FFFFFFFFFFC00
0000001FF8000000
0000001FF8000000
0000000FF0000000
0000000FF0000000
000FFFFFFFFFFC00
000FFFFFFFFFFC00
000FFFFFFFFFFC00
00000007E0000000
00000007E0000000
00000007E0000000
00000007E0000000
00000007E0000000
00000007E0000000
00000007E0000000
00000007E0000000
00000007E0000000
00000007E0000000
00000007E0000000
00000007E0000000
00000007E0000000
00000007E0000000
0000000FF0000000
0000003FFC000000
000003FFFFC00000
000003FFFFC00000
000003FFFFC00000
0000000000000000
0000000000000000
0000000000000000
0000000000000000
0000000000000000
0000000000000000
0000000000000000
0000000000000000
0000000000000000
ENDCHAR

STARTCHAR kor_A1CE
ENCODING 41422
SWIDTH 1024 0
DWIDTH 64 0
BBX 64 64 0 -6
BITMAP
0000000000000000
0000000000000000
0000000000000000
0000000000000000
0000000180000000
00000003C0000000
00000007E0000000
0000000FF0000000
0000001FF8000000
0000003FFC000000
0000007FFE000000
000000FFFF000000
000000FBDF000000
000001F3CF800000
000003F3C7C00000
000007E3C7E00000
00000FC3C3F00000
00001F83C1F80000
00001F03C0F80000
00003E03C07C0000
00007E03C07E0000
0000FC03C03F0000
0001F803C01F8000
0001F003C00F8000
0000E003C0070000
00000003C0000000
00000003C0000000
00000003C0000000
00000003C0000000
00000003C0000000
00000003C0000000
00000003C0000000
00000003C0000000
00000003C0000000
00000003C0000000
00000003C0000000
0000001FF8000000
0000007FFE000000
000000FFFF000000
000001FFFF800000
000003F81FC00000
000007E007E00000
000007C003E00000
00000F8001F00000
00000F8001F00000
00000F0000F00000
00000F0000F00000
00000F0000F00000
00000F0000F00000
00000F0000F00000
00000F0000F00000
00000F8001F00000
00000F8001F00000
000007C003E00000
000007E007E00000
000003F81FC00000
000001FFFF800000
000000FFFF000000
0000007FFE000000
0000001FF8000000
0000000000000000
0000000000000000
0000000000000000
0000000000000000
ENDCHAR

STARTCHAR kor_A1CF
ENCODING 41423
SWIDTH 1024 0
DWIDTH 64 0
BBX 64 64 0 -6
BITMAP
0000000000000000
0000000000000000
0000000000000000
0000000000000000
0000001FF8000000
0000007FFE000000
000000FFFF000000
000001FFFF800000
000003F81FC00000
000007E007E00000
000007C003E00000
00000F8001F00000
00000F8001F00000
00000F0000F00000
00000F0000F00000
00000F0000F00000
00000F0000F00000
00000F0000F00000
00000F0000F00000
00000F8001F00000
00000F8001F00000
000007C003E00000
000007E007E00000
000003F81FC00000
000001FFFF800000
000000FFFF000000
0000007FFE000000
0000001FF8000000
00000003C0000000
00000003C0000000
00000003C0000000
00000003C0000000
00000003C0000000
00000003C0000000
00000003C0000000
000FFFFFFFFFF800
000FFFFFFFFFF800
000FFFFFFFFFF800
000FFFFFFFFFF800
00000003C0000000
00000003C0000000
00000003C0000000
00000003C0000000
00000003C0000000
00000003C0000000
00000003C0000000
00000003C0000000
00000003C0000000
00000003C0000000
00000003C0000000
00000003C0000000
00000003C0000000
00000003C0000000
00000003C0000000
00000003C0000000
00000003C0000000
00000003C0000000
00000003C0000000
00000003C0000000
00000003C0000000
0000000000000000
0000000000000000
0000000000000000
0000000000000000
ENDCHAR

STARTCHAR kor_A1D0
ENCODING 41424
SWIDTH 1024 0
DWIDTH 64 0
BBX 64 64 0 -6
BITMAP
0000000000000000
0000000000000000
0000000000000000
0000000000000000
0000000000000000
0000000000000000
0000000000000000
0000000000000000
0000000000000000
0000000000000000
0000000000000000
0000000000000000
0000000000000000
0000000000000000
0000000000000000
0000000000000000
0000000000300000
0000000000780000
0000000000F80000
0000000000F80000
0000000001F00000
0000000003E00000
0000000007E00000
000000000FC00000
000000001F800000
000000001F000000
000000003E000000
000000007C000000
00000000FC000000
00000001F8000000
00000003F0000000
00000003E0000000
00000007C0000000
0000000F80000000
0000001F80000000
0000003F00000000
0000007E00000000
0000007C00000000
000000F800000000
000001F000000000
000003F000000000
000007E000000000
00000FC000000000
00000F8000000000
00001F0000000000
00003E0000000000
00007E0000000000
0000FC0000000000
0001F80000000000
0003F00000000000
0007E00000000000
000FFFFFFFFFF000
001FFFFFFFFFF000
001FFFFFFFFFF000
001FFFFFFFFFF000
0000000000000000
0000000000000000
0000000000000000
0000000000000000
0000000000000000
0000000000000000
0000000000000000
0000000000000000
0000000000000000
ENDCHAR

STARTCHAR kor_A1D1
ENCODING 41425
SWIDTH 1024 0
DWIDTH 64 0
BBX 64 64 0 -6
BITMAP
0000000000000000
0000000000000000
0000000000000000
0000000000000000
0000000000000000
0000000000000000
0000000000000000
0000000000000000
0000000000000000
0000000000000000
0000000000000000
0000000000000000
0000000000000000
0000000000000000
0000000000000000
0000000000000000
00000003C0000000
00000003C0000000
00000003C0000000
00000003C0000000
00000003C0000000
00000003C0000000
00000003C0000000
00000003C0000000
00000003C0000000
00000003C0000000
00000003C0000000
00000003C0000000
00000003C0000000
00000003C0000000
00000003C0000000
00000003C0000000
00000003C0000000
00000003C0000000
00000003C0000000
00000003C0000000
00000003C0000000
00000003C0000000
00000003C0000000
00000003C0000000
00000003C0000000
00000003C0000000
00000003C0000000
00000003C0000000
00000003C0000000
00000003C0000000
00000003C0000000
00000003C0000000
00000003C0000000
00000003C0000000
00000003C0000000
003FFFFFFFFFFC00
003FFFFFFFFFFC00
003FFFFFFFFFFC00
003FFFFFFFFFFC00
0000000000000000
0000000000000000
0000000000000000
0000000000000000
0000000000000000
0000000000000000
0000000000000000
0000000000000000
0000000000000000
ENDCHAR

STARTCHAR kor_A1D2
ENCODING 41426
SWIDTH 1024 0
DWIDTH 64 0
BBX 64 64 0 -6
BITMAP
0000000000000000
0000000000000000
0000000000000000
0000000000000000
0000000000000000
0000000000000000
0000000000000000
0000000000000000
0000000000000000
0000000000000000
0000000000000000
0000000000000000
0000000000000000
0000000000000000
0000000000000000
0000000000000000
0000000000000000
0000000000000000
0000000000000000
0000000000000000
0000000000000000
0000000000000000
000000FFFE000000
000007FFFFC00000
00001FFFFFF00000
00007FFFFFFC0000
0000FFC007FF0000
0001FE0000FF8000
0003F800003FC000
0007E000000FE000
000FC0000003F000
001F80000001F800
001F00000000F800
001E000000007800
000C000000003000
0000000000000000
0000000000000000
0000000000000000
0000000000000000
0000000000000000
0000000000000000
0000000000000000
0000000000000000
0000000000000000
0000000000000000
0000000000000000
0000000000000000
0000000000000000
0000000000000000
0000000000000000
0000000000000000
0000000000000000
0000000000000000
0000000000000000
0000000000000000
0000000000000000
0000000000000000
0000000000000000
0000000000000000
0000000000000000
0000000000000000
0000000000000000
0000000000000000
0000000000000000
ENDCHAR

STARTCHAR kor_A1D3
ENCODING 41427
SWIDTH 1024 0
DWIDTH 64 0
BBX 64 64 0 -6
BITMAP
0000000000000000
0000000000000000
0000000000000000
0000000000000000
0000000000000000
0000000000000000
0000000000000000
00000003FC000000
0000000FFF000000
0000001FFF800000
0000003FFFC00000
0000007FFFE00000
000000FE0FF00000
000000F803F00000
000001F001F80000
000001E000F80000
000001C000F80000
00000180007C0000
00000000007C0000
00000000003C0000
00000000003C0000
00000000003C0000
00000000003C0000
00000000003C0000
00000000003C0000
00000000003C0000
0000000FE07C0000
0000003FF87C0000
000000FFFC7C0000
000001FFFEFC0000
000003FC1FF80000
000007F00FF80000
00000FE00FF80000
00000FC007F80000
00001F8007F00000
00001F8007F00000
00003F0007F00000
00003F0007E00000
00003E000FE00000
00007E000FE00000
00007E000FC00000
00007C001FC00000
00007C001F800000
00007C003F800000
00007C003F000000
00007C007F000000
00007C007E000000
00007E00FE000000
00007E01FC000000
00003F03FC000000
00003FCFF8000000
00001FFFF0000000
00000FFFE0000000
000007FFC0000000
000001FF00000000
0000000000000000
0000000000000000
0000000000000000
0000000000000000
0000000000000000
0000000000000000
0000000000000000
0000000000000000
0000000000000000
ENDCHAR

STARTCHAR kor_A1D4
ENCODING 41428
SWIDTH 1024 0
DWIDTH 64 0
BBX 64 64 0 -6
BITMAP
0000000000000000
0000000000000000
0000000000000000
0000000000000000
0000000000000000
0000000000000000
0000000000000000
0000000000000000
0000000000000000
0000000000000000
0000000000000000
0000000000000000
0000000000000000
0000000000000000
01FFFFFFFFFFFFC0
01FFFFFFFFFFFFC0
00FFFFFFFFFFFF80
00FFFFFFFFFFFF80
007C000000001F00
003C000000001F00
003E000000003E00
001E000000007C00
001F000000007C00
000F80000000F800
000780000000F000
0007C0000001F000
0003E0000003E000
0001E0000003E000
0001F0000007C000
0000F80000078000
00007800000F8000
00007C00001F0000
00003E00001F0000
00001E00003E0000
00001F00003C0000
00000F80007C0000
00000F8000F80000
000007C000F00000
000003E001F00000
000003E003E00000
000001F003E00000
000000F807C00000
000000F80F800000
0000007C0F800000
0000003E1F000000
0000003E1F000000
0000001F3E000000
0000000FFC000000
0000000FFC000000
00000007F8000000
00000003F0000000
00000003F0000000
00000001E0000000
00000001E0000000
00000000C0000000
0000000000000000
0000000000000000
0000000000000000
0000000000000000
0000000000000000
0000000000000000
0000000000000000
0000000000000000
0000000000000000
ENDCHAR

STARTCHAR kor_A1D5
ENCODING 41429
SWIDTH 1024 0
DWIDTH 64 0
BBX 64 64 0 -6
BITMAP
0000000000000000
0000000000000000
0000000000000000
0000000000000000
0000000000000000
0000000000000000
0000000000000000
0000000000000000
0000000000000000
0000000000000000
0000000000000000
0000000000000000
0000000000000000
0000000000000000
0000000000000000
0000000000000000
0000000000000000
0000000000000000
0000000000000000
003FFFFFFFFFFE00
003FFFFFFFFFFE00
003FFFFFFFFFFE00
003FFFFFFFFFFE00
0000000000000000
0000000000000000
0000000000000000
0000000000000000
0000000000000000
0000000000000000
003FFFFFFFFFFE00
003FFFFFFFFFFE00
003FFFFFFFFFFE00
003FFFFFFFFFFE00
0000000000000000
0000000000000000
0000000000000000
0000000000000000
0000000000000000
0000000000000000
003FFFFFFFFFFE00
003FFFFFFFFFFE00
003FFFFFFFFFFE00
003FFFFFFFFFFE00
0000000000000000
0000000000000000
0000000000000000
0000000000000000
0000000000000000
0000000000000000
0000000000000000
0000000000000000
0000000000000000
0000000000000000
0000000000000000
0000000000000000
0000000000000000
0000000000000000
0000000000000000
0000000000000000
0000000000000000
0000000000000000
0000000000000000
0000000000000000
0000000000000000
ENDCHAR

STARTCHAR kor_A1D6
ENCODING 41430
SWIDTH 1024 0
DWIDTH 64 0
BBX 64 64 0 -6
BITMAP
0000000000000000
0000000000000000
0000000000000000
0000000000000000
0000000000000000
0000000000000000
0000000000000000
0000000000000000
0000000000000000
0000000000000000
0000000000000000
0000000000000000
00007E0000000000
0000FF0000000000
0001FF8000000000
0001FF8000000000
0001FF8000000000
0001FF8000000000
0001FF8000000000
0000FF0000000000
00007E0000000000
0000000000000000
0000000000000000
0000000000000000
003FFFFFFFFFFE00
003FFFFFFFFFFE00
003FFFFFFFFFFE00
003FFFFFFFFFFE00
0000000000000000
0000000000000000
0000000000000000
0000000000000000
0000000000000000
0000000000000000
0000000000000000
003FFFFFFFFFFE00
003FFFFFFFFFFE00
003FFFFFFFFFFE00
003FFFFFFFFFFE00
0000000000000000
0000000000000000
0000000000000000
00000000003F0000
00000000007F8000
0000000000FFC000
0000000000FFC000
0000000000FFC000
0000000000FFC000
0000000000FFC000
00000000007F8000
00000000003F0000
0000000000000000
0000000000000000
0000000000000000
0000000000000000
0000000000000000
0000000000000000
0000000000000000
0000000000000000
0000000000000000
0000000000000000
0000000000000000
0000000000000000
0000000000000000
ENDCHAR

STARTCHAR kor_A1D7
ENCODING 41431
SWIDTH 1024 0
DWIDTH 64 0
BBX 64 64 0 -6
BITMAP
0000000000000000
0000001FFC000000
0000007FFF000000
000000FFFF800000
000001FFFFC00000
000003FC3FE00000
000003F83FE00000
000007F07FE00000
000007F07FE00000
000007F07FE00000
000007F03FE00000
000007F83FC00000
000007F80F000000
000007FC00000000
000003FE00000000
000003FF00000000
000001FF80000000
000001FFC0000000
000000FFE0000000
0000007FF0000000
0000003FF8000000
000000FFFE000000
000003FFFF000000
000007FFFF800000
00000FFFFFC00000
00001FE0FFE00000
00001FC07FF00000
00003F803FF80000
00003F801FFC0000
00003F800FFC0000
00003F8007FE0000
00003FC003FE0000
00003FC001FE0000
00001FE000FE0000
00001FF000FE0000
00000FF800FE0000
00000FFC00FE0000
000007FF01FC0000
000003FFC3FC0000
000001FFFFF80000
000000FFFFF00000
0000007FFFC00000
0000001FFF000000
00000007FF800000
00000003FFC00000
00000001FFE00000
000000007FF00000
000000003FF00000
000000F81FF80000
000003FE0FF80000
000003FE07F80000
000007FF07F80000
000007FF03F80000
000007FF03F80000
000007FE03F80000
000007FE03F80000
000007FC07F00000
000003FC1FF00000
000001FFFFE00000
000000FFFFC00000
0000007FFF800000
0000001FFE000000
0000000000000000
0000000000000000
ENDCHAR

STARTCHAR kor_A1D8
ENCODING 41432
SWIDTH 1024 0
DWIDTH 64 0
BBX 64 64 0 -6
BITMAP
0000000000000000
0000000000000000
0000000000000000
0000000000000000
0000000000000000
0000000000000000
0000000000000000
0000000000000000
0000000000000000
0000000000000000
001C000000007000
003E0003C000F800
003F000FF001F800
001F801FF803F000
000FC01FF807E000
0007E03FFC0FC000
0003F03FFC1F8000
0001F83FFC3F0000
0000FC3FFC7E0000
00007E1FF8FC0000
00003F1FF9F80000
00001F8FF3F00000
00000FC3C7E00000
000007E00FC00000
000003F01F800000
0000F1F83F0F0000
0003FCFC7E3FC000
0007FE7EFC7FE000
0007FE3FF87FE000
000FFF1FF0FFF000
000FFF0FE0FFF000
000FFF0FE0FFF000
000FFF1FF0FFF000
0007FE3FF87FE000
0007FE7EFC7FE000
0003FCFC7E3FC000
0000F1F83F0F0000
000003F01F800000
000007E00FC00000
00000FC3C7E00000
00001F8FF3F00000
00003F1FF9F80000
00007E1FF8FC0000
0000FC3FFC7E0000
0001F83FFC3F0000
0003F03FFC1F8000
0007E03FFC0FC000
000FC01FF807E000
001F801FF803F000
001F000FF001F800
001E0003C000F800
000C000000007000
0000000000000000
0000000000000000
0000000000000000
0000000000000000
0000000000000000
0000000000000000
0000000000000000
0000000000000000
0000000000000000
0000000000000000
0000000000000000
0000000000000000
ENDCHAR

STARTCHAR kor_A1D9
ENCODING 41433
SWIDTH 1024 0
DWIDTH 64 0
BBX 64 64 0 -6
BITMAP
0000000000000000
0000000000000000
0000000000000000
0000000000000000
0000000000000000
0000000000000000
0000000000000000
0000000180000000
0000000180000000
00000003C0000000
00000003C0000000
00000003C0000000
00000007E0000000
00000007E0000000
00000007E0000000
0000000FF0000000
0000000FF0000000
0000001FF8000000
0000001EF8000000
0000001E78000000
0000003E7C000000
0000003C7C000000
0000003C3C000000
0000007C3E000000
03FFFFF83FFFFFC0
03FFFFF81FFFFFC0
01FFFFF01FFFFF80
00FC000000003F00
007F00000000FE00
001F80000001F800
000FC0000003F000
0007F0000007E000
0003F800001F8000
0000FE00003F0000
00007F00007E0000
00001F8001FC0000
00000F8001F80000
0000078001E00000
00000F8001F00000
00000F0000F00000
00000F0000F00000
00001E03C0780000
00001E07F0780000
00003E1FF8780000
00003C3FFC3C0000
00003C7FFF3C0000
000079FC3FBC0000
00007BF81FDE0000
00007FE00FFE0000
0000FFC003FE0000
0000FF8001FF0000
0000FE0000FF0000
0001FC00003F0000
0001F000001F8000
0003E000000F8000
0003C00000038000
0003000000018000
0000000000000000
0000000000000000
0000000000000000
0000000000000000
0000000000000000
0000000000000000
0000000000000000
ENDCHAR

STARTCHAR kor_A1DA
ENCODING 41434
SWIDTH 1024 0
DWIDTH 64 0
BBX 64 64 0 -6
BITMAP
0000000000000000
0000000000000000
0000000000000000
0000000000000000
0000000000000000
0000000000000000
0000000000000000
0000000180000000
0000000180000000
00000003C0000000
00000003C0000000
00000003C0000000
00000007E0000000
00000007E0000000
00000007E0000000
0000000FF0000000
0000000FF0000000
0000001FF8000000
0000001FF8000000
0000001FF8000000
0000003FFC000000
0000003FFC000000
0000003FFC000000
0000007FFE000000
03FFFFFFFFFFFFC0
03FFFFFFFFFFFFC0
01FFFFFFFFFFFF80
00FFFFFFFFFFFF00
007FFFFFFFFFFE00
001FFFFFFFFFF800
000FFFFFFFFFF000
0007FFFFFFFFE000
0003FFFFFFFF8000
0000FFFFFFFF0000
00007FFFFFFE0000
00001FFFFFFC0000
00000FFFFFF80000
000007FFFFE00000
00000FFFFFF00000
00000FFFFFF00000
00000FFFFFF00000
00001FFFFFF80000
00001FFFFFF80000
00003FFFFFF80000
00003FFFFFFC0000
00003FFFFFFC0000
00007FFC3FFC0000
00007FF81FFE0000
00007FE00FFE0000
0000FFC003FE0000
0000FF8001FF0000
0000FE0000FF0000
0001FC00003F0000
0001F000001F8000
0003E000000F8000
0003C00000038000
0003000000018000
0000000000000000
0000000000000000
0000000000000000
0000000000000000
0000000000000000
0000000000000000
0000000000000000
ENDCHAR

STARTCHAR kor_A1DB
ENCODING 41435
SWIDTH 1024 0
DWIDTH 64 0
BBX 64 64 0 -6
BITMAP
0000000000000000
0000000000000000
0000003FFE000000
000003FFFFE00000
00000FFFFFF80000
00003FF007FE0000
0000FF00007F8000
0001FC00001FC000
0003F0000007F000
000FC0000001F800
001F80000000FC00
003F000000003E00
003C000000001F00
0078000000000F80
00F8000000000780
01F00000000003C0
01E00000000003C0
03C00000000001E0
03C00000000001E0
07800000000000F0
07800000000000F0
0F00000000000078
0F00000000000078
0E00000000000038
0E00000000000038
1E0000000000003C
1E0000000000003C
1C0000000000001C
1C0000000000001C
1C0000000000001C
1C0000000000001C
1C0000000000001C
1C0000000000001C
1C0000000000001C
1C0000000000001C
1C0000000000001C
1E0000000000003C
1E0000000000003C
0E00000000000038
0E00000000000038
0F00000000000078
0F00000000000078
07800000000000F0
07800000000000F0
03C00000000001E0
03C00000000001E0
01E00000000003C0
01F00000000007C0
00F0000000000780
0078000000000F00
007C000000001F00
003E000000003E00
001F80000000FC00
000FC0000001F800
0007F0000007F000
0001FC00001FC000
0000FF00007F8000
00003FF007FE0000
00000FFFFFF80000
000003FFFFE00000
0000003FFE000000
0000000000000000
0000000000000000
0000000000000000
ENDCHAR

STARTCHAR kor_A1DC
ENCODING 41436
SWIDTH 1024 0
DWIDTH 64 0
BBX 64 64 0 -6
BITMAP
0000000000000000
0000000000000000
0000003FFE000000
000003FFFFE00000
00000FFFFFF80000
00003FFFFFFE0000
0000FFFFFFFF8000
0003FFFFFFFFC000
0007FFFFFFFFF000
000FFFFFFFFFF800
001FFFFFFFFFFC00
003FFFFFFFFFFE00
007FFFFFFFFFFF00
007FFFFFFFFFFF80
00FFFFFFFFFFFF80
01FFFFFFFFFFFFC0
01FFFFFFFFFFFFC0
03FFFFFFFFFFFFE0
03FFFFFFFFFFFFE0
07FFFFFFFFFFFFF0
07FFFFFFFFFFFFF0
0FFFFFFFFFFFFFF8
0FFFFFFFFFFFFFF8
0FFFFFFFFFFFFFF8
0FFFFFFFFFFFFFF8
1FFFFFFFFFFFFFFC
1FFFFFFFFFFFFFFC
1FFFFFFFFFFFFFFC
1FFFFFFFFFFFFFFC
1FFFFFFFFFFFFFFC
1FFFFFFFFFFFFFFC
1FFFFFFFFFFFFFFC
1FFFFFFFFFFFFFFC
1FFFFFFFFFFFFFFC
1FFFFFFFFFFFFFFC
1FFFFFFFFFFFFFFC
1FFFFFFFFFFFFFFC
1FFFFFFFFFFFFFFC
0FFFFFFFFFFFFFFC
0FFFFFFFFFFFFFF8
0FFFFFFFFFFFFFF8
0FFFFFFFFFFFFFF8
07FFFFFFFFFFFFF0
07FFFFFFFFFFFFF0
03FFFFFFFFFFFFE0
03FFFFFFFFFFFFE0
01FFFFFFFFFFFFC0
01FFFFFFFFFFFFC0
00FFFFFFFFFFFF80
007FFFFFFFFFFF00
007FFFFFFFFFFE00
003FFFFFFFFFFE00
001FFFFFFFFFFC00
000FFFFFFFFFF800
0007FFFFFFFFE000
0001FFFFFFFFC000
0000FFFFFFFF8000
00003FFFFFFE0000
00000FFFFFF80000
000003FFFFE00000
0000003FFE000000
0000000000000000
0000000000000000
0000000000000000
ENDCHAR

STARTCHAR kor_A1DD
ENCODING 41437
SWIDTH 1024 0
DWIDTH 64 0
BBX 64 64 0 -6
BITMAP
0000000000000000
0000000000000000
0000003FFE000000
000003FFFFE00000
00000FFFFFF80000
00003FF007FE0000
0000FF00007F8000
0001FC00001FC000
0003F0000007E000
000FC0000001F800
001F80000000FC00
003F000000007E00
003C001FFC001E00
007800FFFF800F00
00F803FFFFE00F80
01F007F80FF007C0
01E00FC001F803C0
03C01F00007C01E0
03C03E00003E01E0
07807C00001F00F0
0780F800000F80F0
0F01F0000007C078
0F01E0000003C078
0E03C0000001E038
0E03C0000001E038
1E0380000000E03C
1E0780000000F03C
1C0780000000F01C
1C0700000000701C
1C0700000000701C
1C0700000000701C
1C0700000000701C
1C0700000000701C
1C0700000000701C
1C0700000000701C
1C0780000000F01C
1E0780000000F03C
1E0380000000E03C
0E03C0000001E038
0E03C0000001E038
0F01E0000003C078
0F01F0000007C078
0780F800000F80F0
07807C00001F00F0
03C03E00003E01E0
03C01F00007C01E0
01E00FC001F803C0
01F007F80FF007C0
00F803FFFFE00F80
007800FFFF800F00
003C001FFC001E00
003F000000007E00
001F80000000FC00
000FC0000001F800
0003F0000007E000
0001FC00001FC000
0000FF00007F8000
00003FF007FE0000
00000FFFFFF80000
000003FFFFE00000
0000003FFE000000
0000000000000000
0000000000000000
0000000000000000
ENDCHAR

STARTCHAR kor_A1DE
ENCODING 41438
SWIDTH 1024 0
DWIDTH 64 0
BBX 64 64 0 -6
BITMAP
0000000000000000
0000000000000000
00000000C0000000
00000001E0000000
00000003F0000000
00000007F8000000
0000000FFC000000
0000001FFE000000
0000003F3F000000
0000007E1F800000
000000FC0FC00000
000001F807E00000
000003F003F00000
000007E001F80000
00000FC000FC0000
00001F80007E0000
00003F00003F0000
00007E00001F8000
0000FC00000FC000
0001F8000007E000
0003F0000003F000
0007E0000001F800
000FC0000000FC00
001F800000007E00
003F000000003F00
007E000000001F80
00FC000000000FC0
01F80000000007E0
03F00000000003F0
07E00000000001F8
0FC00000000000FC
1F8000000000007E
1F8000000000007E
0FC00000000000FC
07E00000000001F8
03F00000000003F0
01F80000000007E0
00FC000000000FC0
007E000000001F80
003F000000003F00
001F800000007E00
000FC0000000FC00
0007E0000001F800
0003F0000003F000
0001F8000007E000
0000FC00000FC000
00007E00001F8000
00003F00003F0000
00001F80007E0000
00000FC000FC0000
000007E001F80000
000003F003F00000
000001F807E00000
000000FC0FC00000
0000007E1F800000
0000003F3F000000
0000001FFE000000
0000000FFC000000
00000007F8000000
00000003F0000000
00000001E0000000
00000000C0000000
0000000000000000
0000000000000000
ENDCHAR

STARTCHAR kor_A1DF
ENCODING 41439
SWIDTH 1024 0
DWIDTH 64 0
BBX 64 64 0 -6
BITMAP
0000000000000000
0000000000000000
00000000C0000000
00000001E0000000
00000003F0000000
00000007F8000000
0000000FFC000000
0000001FFE000000
0000003FFF000000
0000007FFF800000
000000FFFFC00000
000001FFFFE00000
000003FFFFF00000
000007FFFFF80000
00000FFFFFFC0000
00001FFFFFFE0000
00003FFFFFFF0000
00007FFFFFFF8000
0000FFFFFFFFC000
0001FFFFFFFFE000
0003FFFFFFFFF000
0007FFFFFFFFF800
000FFFFFFFFFFC00
001FFFFFFFFFFE00
003FFFFFFFFFFF00
007FFFFFFFFFFF80
00FFFFFFFFFFFFC0
01FFFFFFFFFFFFE0
03FFFFFFFFFFFFF0
07FFFFFFFFFFFFF8
0FFFFFFFFFFFFFFC
1FFFFFFFFFFFFFFE
1FFFFFFFFFFFFFFE
0FFFFFFFFFFFFFFC
07FFFFFFFFFFFFF8
03FFFFFFFFFFFFF0
01FFFFFFFFFFFFE0
00FFFFFFFFFFFFC0
007FFFFFFFFFFF80
003FFFFFFFFFFF00
001FFFFFFFFFFE00
000FFFFFFFFFFC00
0007FFFFFFFFF800
0003FFFFFFFFF000
0001FFFFFFFFE000
0000FFFFFFFFC000
00007FFFFFFF8000
00003FFFFFFF0000
00001FFFFFFE0000
00000FFFFFFC0000
000007FFFFF80000
000003FFFFF00000
000001FFFFE00000
000000FFFFC00000
0000007FFF800000
0000003FFF000000
0000001FFE000000
0000000FFC000000
00000007F8000000
00000003F0000000
00000001E0000000
00000000C0000000
0000000000000000
0000000000000000
ENDCHAR

STARTCHAR kor_A1E0
ENCODING 41440
SWIDTH 1024 0
DWIDTH 64 0
BBX 64 64 0 -6
BITMAP
0000000000000000
0000000000000000
0000000000000000
0FFFFFFFFFFFFFF8
0FFFFFFFFFFFFFF8
0FFFFFFFFFFFFFF8
0FFFFFFFFFFFFFF8
0F00000000000078
0F00000000000078
0F00000000000078
0F00000000000078
0F00000000000078
0F00000000000078
0F00000000000078
0F00000000000078
0F00000000000078
0F00000000000078
0F00000000000078
0F00000000000078
0F00000000000078
0F00000000000078
0F00000000000078
0F00000000000078
0F00000000000078
0F00000000000078
0F00000000000078
0F00000000000078
0F00000000000078
0F00000000000078
0F00000000000078
0F00000000000078
0F00000000000078
0F00000000000078
0F00000000000078
0F00000000000078
0F00000000000078
0F00000000000078
0F00000000000078
0F00000000000078
0F00000000000078
0F00000000000078
0F00000000000078
0F00000000000078
0F00000000000078
0F00000000000078
0F00000000000078
0F00000000000078
0F00000000000078
0F00000000000078
0F00000000000078
0F00000000000078
0F00000000000078
0F00000000000078
0F00000000000078
0F00000000000078
0F00000000000078
0FFFFFFFFFFFFFF8
0FFFFFFFFFFFFFF8
0FFFFFFFFFFFFFF8
0FFFFFFFFFFFFFF8
0000000000000000
0000000000000000
0000000000000000
0000000000000000
ENDCHAR

STARTCHAR kor_A1E1
ENCODING 41441
SWIDTH 1024 0
DWIDTH 64 0
BBX 64 64 0 -6
BITMAP
0000000000000000
0000000000000000
0000000000000000
0FFFFFFFFFFFFFF8
0FFFFFFFFFFFFFF8
0FFFFFFFFFFFFFF8
0FFFFFFFFFFFFFF8
0FFFFFFFFFFFFFF8
0FFFFFFFFFFFFFF8
0FFFFFFFFFFFFFF8
0FFFFFFFFFFFFFF8
0FFFFFFFFFFFFFF8
0FFFFFFFFFFFFFF8
0FFFFFFFFFFFFFF8
0FFFFFFFFFFFFFF8
0FFFFFFFFFFFFFF8
0FFFFFFFFFFFFFF8
0FFFFFFFFFFFFFF8
0FFFFFFFFFFFFFF8
0FFFFFFFFFFFFFF8
0FFFFFFFFFFFFFF8
0FFFFFFFFFFFFFF8
0FFFFFFFFFFFFFF8
0FFFFFFFFFFFFFF8
0FFFFFFFFFFFFFF8
0FFFFFFFFFFFFFF8
0FFFFFFFFFFFFFF8
0FFFFFFFFFFFFFF8
0FFFFFFFFFFFFFF8
0FFFFFFFFFFFFFF8
0FFFFFFFFFFFFFF8
0FFFFFFFFFFFFFF8
0FFFFFFFFFFFFFF8
0FFFFFFFFFFFFFF8
0FFFFFFFFFFFFFF8
0FFFFFFFFFFFFFF8
0FFFFFFFFFFFFFF8
0FFFFFFFFFFFFFF8
0FFFFFFFFFFFFFF8
0FFFFFFFFFFFFFF8
0FFFFFFFFFFFFFF8
0FFFFFFFFFFFFFF8
0FFFFFFFFFFFFFF8
0FFFFFFFFFFFFFF8
0FFFFFFFFFFFFFF8
0FFFFFFFFFFFFFF8
0FFFFFFFFFFFFFF8
0FFFFFFFFFFFFFF8
0FFFFFFFFFFFFFF8
0FFFFFFFFFFFFFF8
0FFFFFFFFFFFFFF8
0FFFFFFFFFFFFFF8
0FFFFFFFFFFFFFF8
0FFFFFFFFFFFFFF8
0FFFFFFFFFFFFFF8
0FFFFFFFFFFFFFF8
0FFFFFFFFFFFFFF8
0FFFFFFFFFFFFFF8
0FFFFFFFFFFFFFF8
0FFFFFFFFFFFFFF8
0000000000000000
0000000000000000
0000000000000000
0000000000000000
ENDCHAR

STARTCHAR kor_A1E2
ENCODING 41442
SWIDTH 1024 0
DWIDTH 64 0
BBX 64 64 0 -6
BITMAP
0000000000000000
0000000000000000
0000000000000000
0000000000000000
0000000000000000
0000000000000000
0000000000000000
0000000000000000
0000000000000000
0000000000000000
00000000C0000000
00000001E0000000
00000001E0000000
00000003F0000000
00000003F0000000
00000007F8000000
0000000FFC000000
0000000FFC000000
0000001F3E000000
0000003E1F000000
0000003E1F000000
0000007C0F800000
000000F807800000
000000F807C00000
000001F003E00000
000003E003E00000
000003E001F00000
000007C000F80000
00000F8000F80000
00000F80007C0000
00001F00003C0000
00003E00003E0000
00003E00001F0000
00007C00001F0000
0000F800000F8000
0000F80000078000
0001F0000007C000
0001E0000003E000
0003E0000003E000
0007C0000001F000
000780000000F000
000F80000000F800
001F000000007C00
001E000000007C00
003E000000003E00
003C000000001F00
007C000000001F00
00FFFFFFFFFFFF80
00FFFFFFFFFFFF80
01FFFFFFFFFFFFC0
01FFFFFFFFFFFFC0
0000000000000000
0000000000000000
0000000000000000
0000000000000000
0000000000000000
0000000000000000
0000000000000000
0000000000000000
0000000000000000
0000000000000000
0000000000000000
0000000000000000
0000000000000000
ENDCHAR

STARTCHAR kor_A1E3
ENCODING 41443
SWIDTH 1024 0
DWIDTH 64 0
BBX 64 64 0 -6
BITMAP
0000000000000000
0000000000000000
0000000000000000
0000000000000000
0000000000000000
0000000000000000
0000000000000000
0000000000000000
0000000000000000
0000000000000000
0000000180000000
00000003C0000000
00000003C0000000
00000007E0000000
0000000FF0000000
0000000FF0000000
0000001FF8000000
0000001FFC000000
0000003FFC000000
0000007FFE000000
0000007FFF000000
000000FFFF000000
000001FFFF800000
000001FFFFC00000
000003FFFFC00000
000007FFFFE00000
000007FFFFF00000
00000FFFFFF00000
00001FFFFFF80000
00001FFFFFFC0000
00003FFFFFFC0000
00003FFFFFFE0000
00007FFFFFFF0000
0000FFFFFFFF0000
0000FFFFFFFF8000
0001FFFFFFFFC000
0003FFFFFFFFC000
0003FFFFFFFFE000
0007FFFFFFFFF000
000FFFFFFFFFF000
000FFFFFFFFFF800
001FFFFFFFFFFC00
003FFFFFFFFFFC00
003FFFFFFFFFFE00
007FFFFFFFFFFF00
007FFFFFFFFFFF00
00FFFFFFFFFFFF80
01FFFFFFFFFFFFC0
01FFFFFFFFFFFFC0
03FFFFFFFFFFFFE0
03FFFFFFFFFFFFE0
0000000000000000
0000000000000000
0000000000000000
0000000000000000
0000000000000000
0000000000000000
0000000000000000
0000000000000000
0000000000000000
0000000000000000
0000000000000000
0000000000000000
0000000000000000
ENDCHAR

STARTCHAR kor_A1E4
ENCODING 41444
SWIDTH 1024 0
DWIDTH 64 0
BBX 64 64 0 -6
BITMAP
0000000000000000
0000000000000000
0000000000000000
0000000000000000
0000000000000000
0000000000000000
0000000000000000
0000000000000000
0000000000000000
0000000000000000
01FFFFFFFFFFFFC0
01FFFFFFFFFFFFC0
00FFFFFFFFFFFF80
00FFFFFFFFFFFF80
007C000000001F00
003C000000001F00
003E000000003E00
001E000000007C00
001F000000007C00
000F80000000F800
000780000000F000
0007C0000001F000
0003E0000003E000
0001E0000003E000
0001F0000007C000
0000F80000078000
0000F800000F8000
00007C00001F0000
00003E00001F0000
00003E00003E0000
00001F00003C0000
00000F80007C0000
00000F8000F80000
000007C000F80000
000003E001F00000
000003E003E00000
000001F003E00000
000000F807C00000
000000F807800000
0000007C0F800000
0000003E1F000000
0000003E1F000000
0000001F3E000000
0000000FFC000000
0000000FFC000000
00000007F8000000
00000003F0000000
00000003F0000000
00000001E0000000
00000001E0000000
00000000C0000000
0000000000000000
0000000000000000
0000000000000000
0000000000000000
0000000000000000
0000000000000000
0000000000000000
0000000000000000
0000000000000000
0000000000000000
0000000000000000
0000000000000000
0000000000000000
ENDCHAR

STARTCHAR kor_A1E5
ENCODING 41445
SWIDTH 1024 0
DWIDTH 64 0
BBX 64 64 0 -6
BITMAP
0000000000000000
0000000000000000
0000000000000000
0000000000000000
0000000000000000
0000000000000000
0000000000000000
0000000000000000
0000000000000000
0000000000000000
0000000000000000
03FFFFFFFFFFFFE0
03FFFFFFFFFFFFE0
01FFFFFFFFFFFFC0
01FFFFFFFFFFFFC0
00FFFFFFFFFFFF80
007FFFFFFFFFFF00
007FFFFFFFFFFF00
003FFFFFFFFFFE00
003FFFFFFFFFFC00
001FFFFFFFFFFC00
000FFFFFFFFFF800
000FFFFFFFFFF000
0007FFFFFFFFF000
0003FFFFFFFFE000
0003FFFFFFFFC000
0001FFFFFFFFC000
0000FFFFFFFF8000
0000FFFFFFFF0000
00007FFFFFFF0000
00003FFFFFFE0000
00003FFFFFFC0000
00001FFFFFFC0000
00001FFFFFF80000
00000FFFFFF00000
000007FFFFF00000
000007FFFFE00000
000003FFFFC00000
000001FFFFC00000
000001FFFF800000
000000FFFF000000
0000007FFF000000
0000007FFE000000
0000003FFC000000
0000001FFC000000
0000001FF8000000
0000000FF0000000
0000000FF0000000
00000007E0000000
00000003C0000000
00000003C0000000
0000000180000000
0000000000000000
0000000000000000
0000000000000000
0000000000000000
0000000000000000
0000000000000000
0000000000000000
0000000000000000
0000000000000000
0000000000000000
0000000000000000
0000000000000000
ENDCHAR

STARTCHAR kor_A1E6
ENCODING 41446
SWIDTH 1024 0
DWIDTH 64 0
BBX 64 64 0 -6
BITMAP
0000000000000000
0000000000000000
0000000000000000
0000000000000000
0000000000000000
0000000000000000
0000000000000000
0000000000000000
0000000000000000
0000000000000000
0000000000000000
0000000000000000
0000000000000000
0000000000000000
0000000000000000
0000000000000000
0000000000000000
0000000000000000
0000000000000000
0000000000180000
00000000001C0000
00000000001F0000
00000000000F8000
000000000007E000
000000000003F000
000000000003FC00
000000000001FE00
000000000000FF80
0000000000007FC0
0000000000007FF0
0FFFFFFFFFFFFFF8
0FFFFFFFFFFFFFFC
0FFFFFFFFFFFFFFC
0FFFFFFFFFFFFFF8
0000000000007FE0
0000000000007FC0
000000000000FF80
000000000001FE00
000000000003FC00
000000000003F000
000000000007E000
00000000000F8000
00000000001F0000
00000000001E0000
0000000000180000
0000000000000000
0000000000000000
0000000000000000
0000000000000000
0000000000000000
0000000000000000
0000000000000000
0000000000000000
0000000000000000
0000000000000000
0000000000000000
0000000000000000
0000000000000000
0000000000000000
0000000000000000
0000000000000000
0000000000000000
0000000000000000
0000000000000000
ENDCHAR

STARTCHAR kor_A1E7
ENCODING 41447
SWIDTH 1024 0
DWIDTH 64 0
BBX 64 64 0 -6
BITMAP
0000000000000000
0000000000000000
0000000000000000
0000000000000000
0000000000000000
0000000000000000
0000000000000000
0000000000000000
0000000000000000
0000000000000000
0000000000000000
0000000000000000
0000000000000000
0000000000000000
0000000000000000
0000000000000000
0000000000000000
0000000000000000
00000C0000000000
00003C0000000000
00007C0000000000
0000F80000000000
0003F00000000000
0007E00000000000
001FE00000000000
003FC00000000000
00FF800000000000
01FF000000000000
07FF000000000000
0FFFFFFFFFFFFFFC
1FFFFFFFFFFFFFFC
1FFFFFFFFFFFFFFC
0FFFFFFFFFFFFFFC
07FF000000000000
01FF000000000000
00FF800000000000
003FC00000000000
001FE00000000000
0007E00000000000
0003F00000000000
0000F80000000000
00007C0000000000
00001C0000000000
00000C0000000000
0000000000000000
0000000000000000
0000000000000000
0000000000000000
0000000000000000
0000000000000000
0000000000000000
0000000000000000
0000000000000000
0000000000000000
0000000000000000
0000000000000000
0000000000000000
0000000000000000
0000000000000000
0000000000000000
0000000000000000
0000000000000000
0000000000000000
0000000000000000
ENDCHAR

STARTCHAR kor_A1E8
ENCODING 41448
SWIDTH 1024 0
DWIDTH 64 0
BBX 64 64 0 -6
BITMAP
0000000000000000
0000000000000000
00000000C0000000
00000001E0000000
00000003F0000000
00000003F0000000
00000007F8000000
0000000FFC000000
0000000FFC000000
0000001FFE000000
0000003FFF000000
0000003FFF000000
0000007FFF800000
000000FFFFC00000
000000FFFFC00000
000001F9E7E00000
000003F1E3F00000
000003E1E1F80000
00000781E0780000
00000F01E03C0000
00000E01E01C0000
00000001E0000000
00000001E0000000
00000001E0000000
00000001E0000000
00000001E0000000
00000001E0000000
00000001E0000000
00000001E0000000
00000001E0000000
00000001E0000000
00000001E0000000
00000001E0000000
00000001E0000000
00000001E0000000
00000001E0000000
00000001E0000000
00000001E0000000
00000001E0000000
00000001E0000000
00000001E0000000
00000001E0000000
00000001E0000000
00000001E0000000
00000001E0000000
00000001E0000000
00000001E0000000
00000001E0000000
00000001E0000000
00000001E0000000
00000001E0000000
00000001E0000000
00000001E0000000
00000001E0000000
00000001E0000000
00000001E0000000
00000001E0000000
00000001E0000000
00000001E0000000
00000001E0000000
00000001E0000000
0000000000000000
0000000000000000
0000000000000000
ENDCHAR

STARTCHAR kor_A1E9
ENCODING 41449
SWIDTH 1024 0
DWIDTH 64 0
BBX 64 64 0 -6
BITMAP
0000000000000000
0000000000000000
00000001E0000000
00000001E0000000
00000001E0000000
00000001E0000000
00000001E0000000
00000001E0000000
00000001E0000000
00000001E0000000
00000001E0000000
00000001E0000000
00000001E0000000
00000001E0000000
00000001E0000000
00000001E0000000
00000001E0000000
00000001E0000000
00000001E0000000
00000001E0000000
00000001E0000000
00000001E0000000
00000001E0000000
00000001E0000000
00000001E0000000
00000001E0000000
00000001E0000000
00000001E0000000
00000001E0000000
00000001E0000000
00000001E0000000
00000001E0000000
00000001E0000000
00000001E0000000
00000001E0000000
00000001E0000000
00000001E0000000
00000001E0000000
00000001E0000000
00000001E0000000
00000001E0000000
00000001E0000000
00000E01E01C0000
00000F01E03C0000
00000781E0780000
000003E1E1F80000
000003F1E3F00000
000001F9E7E00000
000000FFFFC00000
000000FFFFC00000
0000007FFF800000
0000003FFF000000
0000003FFF000000
0000001FFE000000
0000000FFC000000
0000000FFC000000
00000007F8000000
00000003F0000000
00000003F0000000
00000001E0000000
00000000C0000000
0000000000000000
0000000000000000
0000000000000000
ENDCHAR

STARTCHAR kor_A1EA
ENCODING 41450
SWIDTH 1024 0
DWIDTH 64 0
BBX 64 64 0 -6
BITMAP
0000000000000000
0000000000000000
0000000000000000
0000000000000000
0000000000000000
0000000000000000
0000000000000000
0000000000000000
0000000000000000
0000000000000000
0000000000000000
0000000000000000
0000000000000000
0000000000000000
0000000000000000
0000000000000000
0000000000000000
0000000000000000
00003000000C0000
00007000000E0000
0001F000000F8000
0003E0000007C000
0007E0000007E000
000FC0000003F800
003F80000001FC00
007F00000001FE00
00FF00000000FF80
01FE000000007FC0
07FC000000003FE0
0FFFFFFFFFFFFFF8
1FFFFFFFFFFFFFFC
1FFFFFFFFFFFFFFC
0FFFFFFFFFFFFFF8
07FC000000003FE0
01FE000000007FC0
00FF00000000FF80
007F00000000FF00
003F80000001FC00
000FC0000001F800
0007E0000003F000
0003E0000003E000
0001F0000007C000
0000700000070000
0000300000060000
0000000000000000
0000000000000000
0000000000000000
0000000000000000
0000000000000000
0000000000000000
0000000000000000
0000000000000000
0000000000000000
0000000000000000
0000000000000000
0000000000000000
0000000000000000
0000000000000000
0000000000000000
0000000000000000
0000000000000000
0000000000000000
0000000000000000
0000000000000000
ENDCHAR

STARTCHAR kor_A1EB
ENCODING 41451
SWIDTH 1024 0
DWIDTH 64 0
BBX 64 64 0 -6
BITMAP
0000000000000000
0000000000000000
0000000000000000
0000000000000000
0000000000000000
0000000000000000
0000000000000000
0000000000000000
0000000000000000
0000000000000000
0000000000000000
0000000000000000
0000000000000000
0000000000000000
0000000000000000
0000000000000000
0000000000000000
0000000000000000
0000000000000000
0000000000000000
0000000000000000
1FFFFFFFFFFFFFFC
1FFFFFFFFFFFFFFC
1FFFFFFFFFFFFFFC
1FFFFFFFFFFFFFFC
0000000000000000
0000000000000000
0000000000000000
0000000000000000
0000000000000000
0000000000000000
0000000000000000
0000000000000000
0000000000000000
0000000000000000
0000000000000000
0000000000000000
0000000000000000
1FFFFFFFFFFFFFFC
1FFFFFFFFFFFFFFC
1FFFFFFFFFFFFFFC
1FFFFFFFFFFFFFFC
0000000000000000
0000000000000000
0000000000000000
0000000000000000
0000000000000000
0000000000000000
0000000000000000
0000000000000000
0000000000000000
0000000000000000
0000000000000000
0000000000000000
0000000000000000
0000000000000000
0000000000000000
0000000000000000
0000000000000000
0000000000000000
0000000000000000
0000000000000000
0000000000000000
0000000000000000
ENDCHAR

STARTCHAR kor_A1EC
ENCODING 41452
SWIDTH 1024 0
DWIDTH 64 0
BBX 64 64 0 -6
BITMAP
0000000000000000
0000000000000000
0000000000000000
0000000000000000
0000000000000000
0000000000000000
0000000000000000
0000000000600180
0000000001F007C0
0000000003F00FC0
000000000FF03FC0
000000001FE07F80
000000007F80FE00
00000000FF03FC00
00000003FC07F000
00000007F81FE000
0000001FE03FC000
0000003FC0FF0000
000000FF01FE0000
000001FE03F80000
000003F80FF00000
00000FF01FE00000
00001FE07F800000
00007F80FF000000
0000FF03FC000000
0003FC07F8000000
0007F80FE0000000
001FE03FC0000000
003FC07F80000000
00FF01FE00000000
01FE03FC00000000
01FE03FC00000000
00FF01FE00000000
003FC07F00000000
001FE03FC0000000
0007F80FE0000000
0003FC07F8000000
0001FF03FC000000
00007F80FF000000
00003FC07F800000
00000FF01FE00000
000007F80FF00000
000001FE03FC0000
000000FF01FE0000
0000007FC07F8000
0000001FE03FC000
0000000FF80FE000
00000003FC07F800
00000001FF01FC00
000000007F80FF00
000000003FE03FC0
000000000FF01FE0
0000000007F00FE0
0000000001E003C0
0000000000C00180
0000000000000000
0000000000000000
0000000000000000
0000000000000000
0000000000000000
0000000000000000
0000000000000000
0000000000000000
0000000000000000
ENDCHAR

STARTCHAR kor_A1ED
ENCODING 41453
SWIDTH 1024 0
DWIDTH 64 0
BBX 64 64 0 -6
BITMAP
0000000000000000
0000000000000000
0000000000000000
0000000000000000
0000000000000000
0000000000000000
0000000000000000
006000C000000000
00F001E000000000
01FC03F800000000
01FE03FC00000000
00FF01FF00000000
003FC07F80000000
000FE03FE0000000
0007F80FF0000000
0001FC07FC000000
0000FF01FE000000
00007F80FF800000
00001FE03FC00000
00000FF01FE00000
000003FC07F80000
000001FE03FC0000
0000007F80FF0000
0000003FC07F8000
0000000FF03FE000
00000007F80FF000
00000001FC07F800
00000000FF01FE00
000000003F80FF00
000000001FE03FC0
000000000FF01FE0
000000000FF01FE0
000000001FE03FC0
000000007F80FF00
00000000FF01FE00
00000001FC07F800
00000007F80FF000
0000000FF03FC000
0000003FC07F8000
0000007F81FE0000
000001FE03FC0000
000003FC07F00000
000007F01FE00000
00001FE03FC00000
00003FC0FF000000
0000FF01FE000000
0001FE07F8000000
0003F80FF0000000
000FF03FC0000000
001FC07F80000000
007F81FE00000000
00FF03FC00000000
00FC03F000000000
00F803E000000000
0060018000000000
0000000000000000
0000000000000000
0000000000000000
0000000000000000
0000000000000000
0000000000000000
0000000000000000
0000000000000000
0000000000000000
ENDCHAR

STARTCHAR kor_A1EE
ENCODING 41454
SWIDTH 1024 0
DWIDTH 64 0
BBX 64 64 0 -6
BITMAP
0000000000000000
000000000FFFFFFF
000000000FFFFFFF
000000000FFFFFFF
000000001E000000
000000001E000000
000000001C000000
000000003C000000
000000003C000000
0000000078000000
0000000078000000
0000000078000000
00000000F0000000
00000000F0000000
00000000E0000000
00000001E0000000
00000001E0000000
00000003C0000000
00000003C0000000
00000003C0000000
0000000780000000
0000000780000000
0000000780000000
0000000F00000000
0000000F00000000
0000000F00000000
0000001E00000000
0000001E00000000
0000003E00000000
0000003C00000000
0000003C00000000
0000007C00000000
0000007800000000
0000007800000000
000000F000000000
000000F000000000
000C00F000000000
001C01E000000000
003E01E000000000
007E03E000000000
00FE03C000000000
01FF03C000000000
03FF07C000000000
07FF078000000000
0FDF878000000000
0F9F8F8000000000
070F8F0000000000
000FCF0000000000
000FDF0000000000
0007DE0000000000
0007FE0000000000
0007FE0000000000
0003FC0000000000
0003FC0000000000
0003F80000000000
0001F80000000000
0001F80000000000
0001F00000000000
0000F00000000000
0000F00000000000
0000600000000000
0000600000000000
0000000000000000
0000000000000000
ENDCHAR

STARTCHAR kor_A1EF
ENCODING 41455
SWIDTH 1024 0
DWIDTH 64 0
BBX 64 64 0 -6
BITMAP
0000000000000000
0000000000000000
0000000000000000
0000000000000000
0000000000000000
0000000000000000
0000000000000000
0000000000000000
0000000000000000
0000000000000000
0000000000000000
0000000000000000
0000000000000000
0000000000000000
0000000000000000
0000000000000000
0000000000000000
0000000000000000
0000000000000000
0001FF8000FFC000
0007FFE003FFF000
000FFFF007FFFC00
001FFFF00FFFFE00
003F81F01FC0FF00
007E00601F003F00
007C00003F000F80
00F800007E000F80
00F800007C0007C0
00F00000FC0007C0
00F00000F80003C0
00F00001F00003C0
00F00001F00003C0
00F00003E00003C0
00F00003E00003C0
00F00007C00003C0
00F00007C00007C0
00F8000F800007C0
00F8000F80000F80
007C001F00001F80
007E007F01803F00
003F81FE03F0FF00
003FFFFC03FFFE00
001FFFF803FFFC00
0007FFE001FFF000
0001FF80003FC000
0000000000000000
0000000000000000
0000000000000000
0000000000000000
0000000000000000
0000000000000000
0000000000000000
0000000000000000
0000000000000000
0000000000000000
0000000000000000
0000000000000000
0000000000000000
0000000000000000
0000000000000000
0000000000000000
0000000000000000
0000000000000000
0000000000000000
ENDCHAR

STARTCHAR kor_A1F0
ENCODING 41456
SWIDTH 1024 0
DWIDTH 64 0
BBX 64 64 0 -6
BITMAP
0000000000000000
0000000000000000
0000000000000000
0000000000000000
0000000000000000
0000000000000000
0000000000000000
0000000000000000
0000000000000000
0000000000000000
0000000000000000
0000000000000000
0000000000000000
0000000000000000
0000000000000000
0000000000000000
0000000000000000
0001FF8000FFC000
0007FFE003FFF000
001FFFF00FFFF800
003FFFF81FFFF800
007F81FC3FC1F000
007E007E3F006000
00FC003F7E000000
00F8001F7C000000
01F0000FF8000000
01F0000FF8000000
01E00007F0000000
01E00007F0000000
01E00003E0000000
01E00003E0000000
01E00007E0000000
01E00007F0000000
01F0000FF0000000
01F0000FF8000000
00F8001F78000000
00FC003F7C000000
007E007E3E000000
007F81FC3F807000
003FFFF81FE1F800
001FFFF00FFFF800
0007FFE007FFF800
0001FF8001FFE000
00000000007F8000
0000000000000000
0000000000000000
0000000000000000
0000000000000000
0000000000000000
0000000000000000
0000000000000000
0000000000000000
0000000000000000
0000000000000000
0000000000000000
0000000000000000
0000000000000000
0000000000000000
0000000000000000
0000000000000000
0000000000000000
0000000000000000
0000000000000000
0000000000000000
ENDCHAR

STARTCHAR kor_A1F1
ENCODING 41457
SWIDTH 1024 0
DWIDTH 64 0
BBX 64 64 0 -6
BITMAP
0000000000000000
0000000000000000
0000000000000000
0000000000000000
0000000000000000
0000000000000000
0000000000000000
0000000000000000
0000000000000000
0000000000000000
0000000000000000
0000000000000000
0000000000000000
0000000000000000
0001F000001F8000
0003F800003FC000
0007FC00007FE000
0007FC00007FE000
0007FC00007FE000
0007FC00007FE000
0007FC00007FE000
0003F800003FC000
0001F000001F8000
0000000000000000
0000000000000000
0000000000000000
0000000000000000
0000000000000000
0000000000000000
0000000000000000
0000000000000000
0000000000000000
0000000000000000
0000000000000000
0000000000000000
0000000000000000
0000000000000000
0000000000000000
00000007E0000000
0000000FF0000000
0000001FF8000000
0000001FF8000000
0000001FF8000000
0000001FF8000000
0000001FF8000000
0000000FF0000000
00000007E0000000
0000000000000000
0000000000000000
0000000000000000
0000000000000000
0000000000000000
0000000000000000
0000000000000000
0000000000000000
0000000000000000
0000000000000000
0000000000000000
0000000000000000
0000000000000000
0000000000000000
0000000000000000
0000000000000000
0000000000000000
ENDCHAR

STARTCHAR kor_A1F2
ENCODING 41458
SWIDTH 1024 0
DWIDTH 64 0
BBX 64 64 0 -6
BITMAP
0000000000000000
0000000000000000
0000000000000000
000000001F800000
000000007FE00000
00000000FFF00000
00000001FBF00000
00000001F3F00000
00000003E3F00000
00000003E3F00000
00000003C1E00000
00000003C0000000
00000003C0000000
00000003C0000000
00000007C0000000
00000007C0000000
00000007C0000000
00000007C0000000
00000007C0000000
00000007C0000000
00000007C0000000
00000007C0000000
0000000FC0000000
0000000FC0000000
0000000F80000000
0000000F80000000
0000000F80000000
0000000F80000000
0000000F80000000
0000000F80000000
0000000F80000000
0000000F80000000
0000000F80000000
0000000F80000000
0000000F80000000
0000000F80000000
0000001F80000000
0000001F80000000
0000001F00000000
0000001F00000000
0000001F00000000
0000001F00000000
0000001F00000000
0000001F00000000
0000001F00000000
0000001F00000000
0000001F00000000
0000001E00000000
0000001E00000000
0000001E00000000
0000001E00000000
0000001E00000000
0000783E00000000
0000FC3E00000000
0000FC7C00000000
0000FCFC00000000
0000FDF800000000
0000FFF000000000
00007FE000000000
00001F8000000000
0000000000000000
0000000000000000
0000000000000000
0000000000000000
ENDCHAR

STARTCHAR kor_A1F3
ENCODING 41459
SWIDTH 1024 0
DWIDTH 64 0
BBX 64 64 0 -6
BITMAP
0000000000000000
0000000000000000
0000000000000000
00000007E00FC000
0000001FF83FF000
0000003FFC7FF800
0000003EFCFFF800
0000007CFCFBF800
00000078FDF3F800
000000F8FDF3F800
000000F07BE1F000
000000F003E00000
000000F003E00000
000001F003E00000
000001F003E00000
000001F003E00000
000001F007E00000
000001F007E00000
000001F007C00000
000001F007C00000
000001F007C00000
000001F007C00000
000001F007C00000
000001F007C00000
000001F007C00000
000001F007C00000
000003F007C00000
000003F007C00000
000003E007C00000
000003E007C00000
000003E007C00000
000003E007C00000
000003E00FC00000
000003E00FC00000
000003E00F800000
000003E00F800000
000003E00F800000
000003E00F800000
000007E00F800000
000007E00F800000
000007C00F800000
000007C00F800000
000007C01F800000
000007C01F800000
000007C01F000000
000007C01F000000
000007C01F000000
000007C01F000000
000007C01F000000
000007C01F000000
000007801E000000
000007801E000000
000F0FBC1E000000
001F8FFE3E000000
001F9F7E3E000000
001F9F7E7C000000
001FBE7EFC000000
001FFE7FF8000000
000FFC3FF0000000
0007F00FC0000000
0000000000000000
0000000000000000
0000000000000000
0000000000000000
ENDCHAR

STARTCHAR kor_A1F4
ENCODING 41460
SWIDTH 1024 0
DWIDTH 64 0
BBX 64 64 0 -6
BITMAP
0000000000000000
0000000000000000
0000000000000000
0000000000000000
0000000000000000
0000000000000000
0000000000000000
0000000000000000
0000000000000000
0000000000000000
0000000000000000
0000000000000000
00000FFFFFFFFF00
00007FFFFFFFFF00
0001FFFFFFFFFF00
0003FFFFFFFFFF00
0007FC0000000000
000FE00000000000
001F800000000000
001F000000000000
003E000000000000
003C000000000000
007C000000000000
007C000000000000
0078000000000000
0078000000000000
0078000000000000
0078000000000000
007FFFFFFFFFFF00
007FFFFFFFFFFF00
007FFFFFFFFFFF00
007FFFFFFFFFFF00
0078000000000000
0078000000000000
0078000000000000
0078000000000000
007C000000000000
007C000000000000
003E000000000000
003E000000000000
001F000000000000
001F800000000000
000FE00000000000
0007FC0000000000
0003FFFFFFFFFF00
0001FFFFFFFFFF00
00007FFFFFFFFF00
00000FFFFFFFFF00
0000000000000000
0000000000000000
0000000000000000
0000000000000000
0000000000000000
0000000000000000
0000000000000000
0000000000000000
0000000000000000
0000000000000000
0000000000000000
0000000000000000
0000000000000000
0000000000000000
0000000000000000
0000000000000000
ENDCHAR

STARTCHAR kor_A1F5
ENCODING 41461
SWIDTH 1024 0
DWIDTH 64 0
BBX 64 64 0 -6
BITMAP
0000000000000000
0000000000000000
0000000000000000
0000000000000000
0000000000000000
0000000000000000
0000000000000000
0000000000000000
0000000000000000
0000000000000000
0000000000000000
0000000000000000
007FFFFFFFF80000
007FFFFFFFFF0000
007FFFFFFFFFC000
007FFFFFFFFFE000
00000000001FF000
000000000003F800
000000000000FC00
0000000000007C00
0000000000003E00
0000000000001E00
0000000000001F00
0000000000001F00
0000000000000F00
0000000000000F00
0000000000000F00
0000000000000F00
007FFFFFFFFFFF00
007FFFFFFFFFFF00
007FFFFFFFFFFF00
007FFFFFFFFFFF00
0000000000000F00
0000000000000F00
0000000000000F00
0000000000000F00
0000000000001F00
0000000000001F00
0000000000003E00
0000000000003E00
0000000000007C00
000000000000FC00
000000000003F800
00000000001FF000
007FFFFFFFFFE000
007FFFFFFFFFC000
007FFFFFFFFF0000
007FFFFFFFF80000
0000000000000000
0000000000000000
0000000000000000
0000000000000000
0000000000000000
0000000000000000
0000000000000000
0000000000000000
0000000000000000
0000000000000000
0000000000000000
0000000000000000
0000000000000000
0000000000000000
0000000000000000
0000000000000000
ENDCHAR

STARTCHAR kor_A1F6
ENCODING 41462
SWIDTH 1024 0
DWIDTH 64 0
BBX 64 64 0 -6
BITMAP
0000000000000000
0000000000000000
0000000000000000
0000000000000000
0000000000000000
0000000000000000
0000000000000000
0000000000000000
0000000000000000
0000000000000000
0000000000000000
00001FFFFFFFF800
00007FFFFFFFF800
0001FFFFFFFFF800
0003FFFFFFFFF800
0007F80000000000
0007E00000000000
000FC00000000000
000F800000000000
001F000000000000
001F000000000000
001E000000000000
001E000000000000
001E000000000000
001E000000000000
001E000000000000
001E000000000000
001E000000000000
001F000000000000
001F000000000000
000F800000000000
000FC00000000000
0007E00000000000
0007F80000000000
0003FFFFFFFFF800
0001FFFFFFFFF800
00007FFFFFFFF800
00001FFFFFFFF800
0000000000000000
0000000000000000
0000000000000000
0000000000000000
0000000000000000
0000000000000000
0000000000000000
001FFFFFFFFFF800
001FFFFFFFFFF800
001FFFFFFFFFF800
001FFFFFFFFFF800
0000000000000000
0000000000000000
0000000000000000
0000000000000000
0000000000000000
0000000000000000
0000000000000000
0000000000000000
0000000000000000
0000000000000000
0000000000000000
0000000000000000
0000000000000000
0000000000000000
0000000000000000
ENDCHAR

STARTCHAR kor_A1F7
ENCODING 41463
SWIDTH 1024 0
DWIDTH 64 0
BBX 64 64 0 -6
BITMAP
0000000000000000
0000000000000000
0000000000000000
0000000000000000
0000000000000000
0000000000000000
0000000000000000
0000000000000000
0000000000000000
0000000000000000
0000000000000000
001FFFFFFFF80000
001FFFFFFFFE0000
001FFFFFFFFF8000
001FFFFFFFFFC000
00000000001FE000
000000000007E000
000000000003F000
000000000001F000
000000000000F800
000000000000F800
0000000000007800
0000000000007800
0000000000007800
0000000000007800
0000000000007800
0000000000007800
0000000000007800
000000000000F800
000000000000F800
000000000001F000
000000000003F000
000000000007E000
00000000001FE000
001FFFFFFFFFC000
001FFFFFFFFF8000
001FFFFFFFFE0000
001FFFFFFFF80000
0000000000000000
0000000000000000
0000000000000000
0000000000000000
0000000000000000
0000000000000000
0000000000000000
001FFFFFFFFFF800
001FFFFFFFFFF800
001FFFFFFFFFF800
001FFFFFFFFFF800
0000000000000000
0000000000000000
0000000000000000
0000000000000000
0000000000000000
0000000000000000
0000000000000000
0000000000000000
0000000000000000
0000000000000000
0000000000000000
0000000000000000
0000000000000000
0000000000000000
0000000000000000
ENDCHAR

STARTCHAR kor_A1F8
ENCODING 41464
SWIDTH 1024 0
DWIDTH 64 0
BBX 64 64 0 -6
BITMAP
0000000000000000
0000000000000000
0000000000000000
0000000000000000
0000000000000000
0000000000000000
0000000000000000
0000000000000000
0000000000000000
0000000000000000
0000000000000000
0000000000000000
000007FFFFFFFE00
00003FFFFFFFFE00
0000FFFFFFFFFE00
0003FFFFFFFFFE00
0007FE0000000000
000FF00000000000
001FC00000000000
001F000000000000
003E000000000000
003E000000000000
003C000000000000
007C000000000000
007C000000000000
0078000000000000
0078000000000000
0078000000000000
0078000000000000
0078000000000000
0078000000000000
0078000000000000
0078000000000000
0078000000000000
0078000000000000
007C000000000000
007C000000000000
007C000000000000
003E000000000000
003E000000000000
001F000000000000
001FC00000000000
000FF00000000000
0007FE0000000000
0003FFFFFFFFFE00
0000FFFFFFFFFE00
00003FFFFFFFFE00
000007FFFFFFFE00
0000000000000000
0000000000000000
0000000000000000
0000000000000000
0000000000000000
0000000000000000
0000000000000000
0000000000000000
0000000000000000
0000000000000000
0000000000000000
0000000000000000
0000000000000000
0000000000000000
0000000000000000
0000000000000000
ENDCHAR

STARTCHAR kor_A1F9
ENCODING 41465
SWIDTH 1024 0
DWIDTH 64 0
BBX 64 64 0 -6
BITMAP
0000000000000000
0000000000000000
0000000000000000
0000000000000000
0000000000000000
0000000000000000
0000000000000000
0000000000000000
0000000000000000
0000000000000000
0000000000000000
0000000000000000
007FFFFFFFE00000
007FFFFFFFFC0000
007FFFFFFFFF0000
007FFFFFFFFFC000
00000000007FE000
00000000000FF000
000000000003F800
000000000000F800
0000000000007C00
0000000000007C00
0000000000003C00
0000000000003E00
0000000000003E00
0000000000001E00
0000000000001E00
0000000000001E00
0000000000001E00
0000000000001E00
0000000000001E00
0000000000001E00
0000000000001E00
0000000000001E00
0000000000001E00
0000000000003E00
0000000000003E00
0000000000003E00
0000000000007C00
0000000000007C00
000000000000F800
000000000003F800
00000000000FF000
00000000007FE000
007FFFFFFFFFC000
007FFFFFFFFF0000
007FFFFFFFFC0000
007FFFFFFFE00000
0000000000000000
0000000000000000
0000000000000000
0000000000000000
0000000000000000
0000000000000000
0000000000000000
0000000000000000
0000000000000000
0000000000000000
0000000000000000
0000000000000000
0000000000000000
0000000000000000
0000000000000000
0000000000000000
ENDCHAR

STARTCHAR kor_A1FA
ENCODING 41466
SWIDTH 1024 0
DWIDTH 64 0
BBX 64 64 0 -6
BITMAP
0000000000000000
0000000000000000
0000000000000000
0000000000000000
0000000000000000
0000000000000000
0000000000000000
0000000000000000
0003C0000003C000
0003C0000003C000
0003C0000003C000
0003C0000003C000
0003C0000003C000
0003C0000003C000
0003C0000003C000
0003C0000003C000
0003C0000003C000
0003C0000003C000
0003C0000003C000
0003C0000003C000
0003C0000003C000
0003C0000003C000
0003C0000003C000
0003C0000003C000
0003C0000003C000
0003C0000003C000
0003C0000003C000
0003C0000003C000
0003C0000003C000
0003C0000003C000
0003C0000003C000
0003C0000003C000
0003C0000003C000
0003C0000003C000
0003C0000003C000
0003C0000003C000
0003C0000003C000
0003C0000003C000
0003C0000003C000
0003E0000007C000
0003E0000007C000
0001E00000078000
0001F000000F8000
0001F000000F8000
0000F800001F0000
0000F800001F0000
00007C00003E0000
00007F0000FE0000
00003FC003FC0000
00001FF00FF80000
00000FFFFFF00000
000003FFFFC00000
000000FFFF000000
0000001FF8000000
0000000000000000
0000000000000000
0000000000000000
0000000000000000
0000000000000000
0000000000000000
0000000000000000
0000000000000000
0000000000000000
0000000000000000
ENDCHAR

STARTCHAR kor_A1FB
ENCODING 41467
SWIDTH 1024 0
DWIDTH 64 0
BBX 64 64 0 -6
BITMAP
0000000000000000
0000000000000000
0000000000000000
0000000000000000
0000000000000000
0000000000000000
0000000000000000
0000000000000000
0000001FF8000000
000000FFFF000000
000003FFFFC00000
00000FFFFFF00000
00001FF00FF80000
00003FC003FC0000
00007F0000FE0000
00007C00003E0000
0000F800001F0000
0000F800001F0000
0001F000000F8000
0001F000000F8000
0001E00000078000
0003E0000007C000
0003E0000007C000
0003C0000003C000
0003C0000003C000
0003C0000003C000
0003C0000003C000
0003C0000003C000
0003C0000003C000
0003C0000003C000
0003C0000003C000
0003C0000003C000
0003C0000003C000
0003C0000003C000
0003C0000003C000
0003C0000003C000
0003C0000003C000
0003C0000003C000
0003C0000003C000
0003C0000003C000
0003C0000003C000
0003C0000003C000
0003C0000003C000
0003C0000003C000
0003C0000003C000
0003C0000003C000
0003C0000003C000
0003C0000003C000
0003C0000003C000
0003C0000003C000
0003C0000003C000
0003C0000003C000
0003C0000003C000
0003C0000003C000
0000000000000000
0000000000000000
0000000000000000
0000000000000000
0000000000000000
0000000000000000
0000000000000000
0000000000000000
0000000000000000
0000000000000000
ENDCHAR

STARTCHAR kor_A1FC
ENCODING 41468
SWIDTH 1024 0
DWIDTH 64 0
BBX 64 64 0 -6
BITMAP
0000000000000000
0000000000000000
0000000000000000
0000000000000000
0000000000000000
0000000000000000
0000000000000000
0000000000000000
0000000000000000
0000000180000000
00000003C0000000
00000003C0000000
00000007E0000000
00000007E0000000
0000000FF0000000
0000000FF0000000
0000001FF8000000
0000001FF8000000
0000003E7C000000
0000003E7C000000
0000007C3E000000
0000007C3E000000
000000F81F000000
000000F81F000000
000001F00F800000
000001F00F800000
000003E007C00000
000003E007C00000
000007C003E00000
000007C003E00000
00000F8001F00000
00000F8001F00000
00001F0000F80000
00001F0000F80000
00003E00007C0000
00003E00007C0000
00007C00003E0000
00007C00003E0000
0000F800001F0000
0000F800001F0000
0001F000000F8000
0001F000000F8000
0003E0000007C000
0003E0000007C000
0007C0000003E000
0007C0000003E000
000F80000001F000
000F80000001F000
001F00000000F800
001F00000000F800
000E000000007000
0000000000000000
0000000000000000
0000000000000000
0000000000000000
0000000000000000
0000000000000000
0000000000000000
0000000000000000
0000000000000000
0000000000000000
0000000000000000
0000000000000000
0000000000000000
ENDCHAR

STARTCHAR kor_A1FD
ENCODING 41469
SWIDTH 1024 0
DWIDTH 64 0
BBX 64 64 0 -6
BITMAP
0000000000000000
0000000000000000
0000000000000000
0000000000000000
0000000000000000
0000000000000000
0000000000000000
0000000000000000
0000000000000000
0000000000000000
000E000000007000
001F00000000F800
001F00000000F800
000F80000001F000
000F80000001F000
0007C0000003E000
0007C0000003E000
0003E0000007C000
0003E0000007C000
0001F000000F8000
0001F000000F8000
0000F800001F0000
0000F800001F0000
00007C00003E0000
00007C00003E0000
00003E00007C0000
00003E00007C0000
00001F0000F80000
00001F0000F80000
00000F8001F00000
00000F8001F00000
000007C003E00000
000003C003C00000
000003E007C00000
000001E007800000
000001F00F800000
000000F00F000000
000000F81F000000
000000781E000000
0000007C3E000000
0000003C3C000000
0000003E7C000000
0000001E78000000
0000001FF8000000
0000000FF0000000
0000000FF0000000
00000007E0000000
00000007E0000000
00000003C0000000
00000003C0000000
0000000180000000
0000000000000000
0000000000000000
0000000000000000
0000000000000000
0000000000000000
0000000000000000
0000000000000000
0000000000000000
0000000000000000
0000000000000000
0000000000000000
0000000000000000
0000000000000000
ENDCHAR

STARTCHAR kor_A1FE
ENCODING 41470
SWIDTH 1024 0
DWIDTH 64 0
BBX 64 64 0 -6
BITMAP
0000000000000000
0000000000000000
0000000000000000
0000000000000000
0000000000000000
0000000000000000
0000000000000000
07FFFFFFFFFFFFC0
07FFFFFFFFFFFFC0
07FFFFFFFFFFFFC0
07FFFFFFFFFFFFC0
00000000000003C0
00000000000003C0
00000000000003C0
00000000000003C0
00000000000003C0
00000000000003C0
00000000000003C0
00000000000003C0
00000000000003C0
00000000000003C0
00000000000003C0
00000000000003C0
00000000000003C0
00000000000003C0
00000000000003C0
00000000000003C0
00000000000003C0
00000000000003C0
00000000000003C0
0000000000000000
0000000000000000
0000000000000000
0000000000000000
0000000000000000
0000000000000000
0000000000000000
0000000000000000
0000000000000000
0000000000000000
0000000000000000
0000000000000000
0000000000000000
0000000000000000
0000000000000000
0000000000000000
0000000000000000
0000000000000000
0000000000000000
0000000000000000
0000000000000000
0000000000000000
0000000000000000
0000000000000000
0000000000000000
0000000000000000
0000000000000000
0000000000000000
0000000000000000
0000000000000000
0000000000000000
0000000000000000
0000000000000000
0000000000000000
ENDCHAR

STARTCHAR kor_A2A1
ENCODING 41633
SWIDTH 1024 0
DWIDTH 64 0
BBX 64 64 0 -6
BITMAP
0000000000000000
0000000000000000
0000000000000000
0000000000000000
0000000000000000
0000000000000000
0000000000000000
0000000000000000
0000000000000000
0000000000000000
0000000000000000
0000000000000000
0000000000000000
0000000000000000
0000000000E00000
0000000001F00000
0000000001F80000
0000000000FC0000
00000000007E0000
00000000003F0000
00000000001F8000
00000000000FC000
000000000007E000
001FFFFFFFFFF000
001FFFFFFFFFF800
001FFFFFFFFFFC00
001FFFFFFFFFFE00
0000000000003F00
0000000000001F80
0000000000000FC0
00000000000007E0
00000000000007E0
0000000000000FC0
0000000000001F80
0000000000003F00
001FFFFFFFFFFE00
001FFFFFFFFFFC00
001FFFFFFFFFF800
001FFFFFFFFFF000
000000000007E000
00000000000FC000
00000000001F8000
00000000003F0000
00000000007E0000
0000000000FC0000
0000000001F80000
0000000001F00000
0000000000E00000
0000000000000000
0000000000000000
0000000000000000
0000000000000000
0000000000000000
0000000000000000
0000000000000000
0000000000000000
0000000000000000
0000000000000000
0000000000000000
0000000000000000
0000000000000000
0000000000000000
0000000000000000
0000000000000000
ENDCHAR

STARTCHAR kor_A2A2
ENCODING 41634
SWIDTH 1024 0
DWIDTH 64 0
BBX 64 64 0 -6
BITMAP
0000000000000000
0000000000000000
0000000000000000
0000000000000000
0000000000000000
0000000000000000
0000000000000000
0000000000000000
0000000000000000
0000000000000000
0000000000000000
0000000000000000
0000000000000000
0000000000000000
0000070000700000
00000F8000F80000
00001F8000FC0000
00003F00007E0000
00007E00003F0000
0000FC00001F8000
0001F800000FC000
0003F0000007E000
0007E0000003F000
000FFFFFFFFFF800
001FFFFFFFFFFC00
003FFFFFFFFFFE00
007FFFFFFFFFFF00
00FC000000001F80
01F8000000000FC0
03F00000000007E0
07E00000000003F0
07E00000000003F0
03F00000000007E0
01F8000000000FC0
00FC000000001F80
007FFFFFFFFFFF00
003FFFFFFFFFFE00
001FFFFFFFFFFC00
000FFFFFFFFFF800
0007E0000003F000
0003F0000007E000
0001F800000FC000
0000FC00001F8000
00007E00003F0000
00003F00007E0000
00001F8000FC0000
00000F8000F80000
0000070000700000
0000000000000000
0000000000000000
0000000000000000
0000000000000000
0000000000000000
0000000000000000
0000000000000000
0000000000000000
0000000000000000
0000000000000000
0000000000000000
0000000000000000
0000000000000000
0000000000000000
0000000000000000
0000000000000000
ENDCHAR

STARTCHAR kor_A2A3
ENCODING 41635
SWIDTH 1024 0
DWIDTH 64 0
BBX 64 64 0 -6
BITMAP
0000000000000000
0000000000000000
0000000000000000
0000000000000000
0000000000000000
0000000000000000
007C000000003E00
007C000000003E00
007E000000007E00
003E000000007C00
003F00000000FC00
001F00000000F800
001F00000000F800
000F80000001F000
000F80000001F000
0007C0000003E000
0007C0000003E000
0007C0000003E000
0003E0000007C000
0003E0000007C000
0001F000000F8000
0001FFFFFFFF8000
0000FFFFFFFF0000
0000FFFFFFFF0000
00007FFFFFFE0000
00007C00003E0000
00007C00003E0000
00003E00007C0000
00003E00007C0000
00001F0000F80000
00001F0000F80000
00000F0000F00000
00000F8001F00000
00000F8001F00000
000007C003E00000
000007C003E00000
000003E007C00000
000003E007C00000
000001E007800000
000001F00F800000
000000F00F000000
000000F81F000000
000000F81F000000
0000007C3E000000
0000007C3E000000
0000003C3C000000
0000003E7C000000
0000001E78000000
0000001FF8000000
0000001FF8000000
0000000FF0000000
0000000FF0000000
00000007E0000000
00000007E0000000
00000003C0000000
00000003C0000000
0000000180000000
0000000180000000
0000000000000000
0000000000000000
0000000000000000
0000000000000000
0000000000000000
0000000000000000
ENDCHAR

STARTCHAR kor_A2A4
ENCODING 41636
SWIDTH 1024 0
DWIDTH 64 0
BBX 64 64 0 -6
BITMAP
0000000000000000
0000000000000000
0000000000000000
0000000000000000
0000000000000000
0000000000000000
0000000000000000
0003FFFFFFFF0000
0003FFFFFFFF0000
0003FFFFFFFF0000
0003FFFFFFFF0000
00000000000F0000
00000000000F0000
00000000000F0000
00000000000F0000
00000000000F0000
00000000000F0000
00000000000F0000
00000000000F0000
00000000000F0000
00000000000F0000
00000000000F0000
00000000000F0000
00000000000F0000
00000000000F0000
00000000000F0000
00000000000F0000
00000000000F0000
00000000000F0000
0003FFFFFFFF0000
0003FFFFFFFF0000
0003FFFFFFFF0000
0003FFFFFFFF0000
00000000000F0000
00000000000F0000
00000000000F0000
00000000000F0000
00000000000F0000
00000000000F0000
00000000000F0000
00000000000F0000
00000000000F0000
00000000000F0000
00000000000F0000
00000000000F0000
00000000000F0000
00000000000F0000
00000000000F0000
00000000000F0000
00000000000F0000
00000000000F0000
0003FFFFFFFF0000
0003FFFFFFFF0000
0003FFFFFFFF0000
0003FFFFFFFF0000
0000000000000000
0000000000000000
0000000000000000
0000000000000000
0000000000000000
0000000000000000
0000000000000000
0000000000000000
0000000000000000
ENDCHAR

STARTCHAR kor_A2A5
ENCODING 41637
SWIDTH 1024 0
DWIDTH 64 0
BBX 64 64 0 -6
BITMAP
0000000000000000
000000007C000000
00000000FE000000
00000000FE000000
00000001FE000000
00000001FE000000
00000003FC000000
00000003F8000000
00000007F0000000
00000007E0000000
0000000FC0000000
0000000F80000000
0000001F00000000
0000001E00000000
0000001C00000000
0000000000000000
0000000000000000
0000000000000000
0000000000000000
0000000000000000
0000000000000000
0000000000000000
0000000000000000
0000000000000000
0000000000000000
0000000000000000
0000000000000000
0000000000000000
0000000000000000
0000000000000000
0000000000000000
0000000000000000
0000000000000000
0000000000000000
0000000000000000
0000000000000000
0000000000000000
0000000000000000
0000000000000000
0000000000000000
0000000000000000
0000000000000000
0000000000000000
0000000000000000
0000000000000000
0000000000000000
0000000000000000
0000000000000000
0000000000000000
0000000000000000
0000000000000000
0000000000000000
0000000000000000
0000000000000000
0000000000000000
0000000000000000
0000000000000000
0000000000000000
0000000000000000
0000000000000000
0000000000000000
0000000000000000
0000000000000000
0000000000000000
ENDCHAR

STARTCHAR kor_A2A6
ENCODING 41638
SWIDTH 1024 0
DWIDTH 64 0
BBX 64 64 0 -6
BITMAP
0000000000000000
000003FC00060000
00000FFF000E0000
00001FFFC01E0000
00003FFFF07E0000
00003FFFFFFC0000
00007F0FFFFC0000
00007C03FFF80000
0000F801FFF00000
0000E0007FC00000
0000C00000000000
0000000000000000
0000000000000000
0000000000000000
0000000000000000
0000000000000000
0000000000000000
0000000000000000
0000000000000000
0000000000000000
0000000000000000
0000000000000000
0000000000000000
0000000000000000
0000000000000000
0000000000000000
0000000000000000
0000000000000000
0000000000000000
0000000000000000
0000000000000000
0000000000000000
0000000000000000
0000000000000000
0000000000000000
0000000000000000
0000000000000000
0000000000000000
0000000000000000
0000000000000000
0000000000000000
0000000000000000
0000000000000000
0000000000000000
0000000000000000
0000000000000000
0000000000000000
0000000000000000
0000000000000000
0000000000000000
0000000000000000
0000000000000000
0000000000000000
0000000000000000
0000000000000000
0000000000000000
0000000000000000
0000000000000000
0000000000000000
0000000000000000
0000000000000000
0000000000000000
0000000000000000
0000000000000000
ENDCHAR

STARTCHAR kor_A2A7
ENCODING 41639
SWIDTH 1024 0
DWIDTH 64 0
BBX 64 64 0 -6
BITMAP
0000000000000000
0000380000380000
00003C0000780000
00001F0001F00000
00000F8003E00000
000007E00FC00000
000003F01F800000
000001FC7F000000
000000FFFE000000
0000007FFC000000
0000003FF8000000
0000001FF0000000
00000007C0000000
0000000000000000
0000000000000000
0000000000000000
0000000000000000
0000000000000000
0000000000000000
0000000000000000
0000000000000000
0000000000000000
0000000000000000
0000000000000000
0000000000000000
0000000000000000
0000000000000000
0000000000000000
0000000000000000
0000000000000000
0000000000000000
0000000000000000
0000000000000000
0000000000000000
0000000000000000
0000000000000000
0000000000000000
0000000000000000
0000000000000000
0000000000000000
0000000000000000
0000000000000000
0000000000000000
0000000000000000
0000000000000000
0000000000000000
0000000000000000
0000000000000000
0000000000000000
0000000000000000
0000000000000000
0000000000000000
0000000000000000
0000000000000000
0000000000000000
0000000000000000
0000000000000000
0000000000000000
0000000000000000
0000000000000000
0000000000000000
0000000000000000
0000000000000000
0000000000000000
ENDCHAR

STARTCHAR kor_A2A8
ENCODING 41640
SWIDTH 1024 0
DWIDTH 64 0
BBX 64 64 0 -6
BITMAP
0000000000000000
0000180000180000
00001C0000380000
00001C0000380000
00001E0000780000
00001F0000F80000
00000F8001F00000
00000FE007F00000
000007F81FE00000
000003FFFFC00000
000001FFFF800000
000000FFFF000000
0000007FFE000000
0000000FF0000000
0000000000000000
0000000000000000
0000000000000000
0000000000000000
0000000000000000
0000000000000000
0000000000000000
0000000000000000
0000000000000000
0000000000000000
0000000000000000
0000000000000000
0000000000000000
0000000000000000
0000000000000000
0000000000000000
0000000000000000
0000000000000000
0000000000000000
0000000000000000
0000000000000000
0000000000000000
0000000000000000
0000000000000000
0000000000000000
0000000000000000
0000000000000000
0000000000000000
0000000000000000
0000000000000000
0000000000000000
0000000000000000
0000000000000000
0000000000000000
0000000000000000
0000000000000000
0000000000000000
0000000000000000
0000000000000000
0000000000000000
0000000000000000
0000000000000000
0000000000000000
0000000000000000
0000000000000000
0000000000000000
0000000000000000
0000000000000000
0000000000000000
0000000000000000
ENDCHAR

STARTCHAR kor_A2A9
ENCODING 41641
SWIDTH 1024 0
DWIDTH 64 0
BBX 64 64 0 -6
BITMAP
0000000000000000
0000001F07C00000
0000003F8FE00000
0000003F8FE00000
0000007F9FE00000
0000007F9FE00000
000000FF3FC00000
000000FE3F800000
000001FC7F000000
000001F87E000000
000003F0FC000000
000003E0F8000000
000007C1F0000000
00000781E0000000
00000701C0000000
0000000000000000
0000000000000000
0000000000000000
0000000000000000
0000000000000000
0000000000000000
0000000000000000
0000000000000000
0000000000000000
0000000000000000
0000000000000000
0000000000000000
0000000000000000
0000000000000000
0000000000000000
0000000000000000
0000000000000000
0000000000000000
0000000000000000
0000000000000000
0000000000000000
0000000000000000
0000000000000000
0000000000000000
0000000000000000
0000000000000000
0000000000000000
0000000000000000
0000000000000000
0000000000000000
0000000000000000
0000000000000000
0000000000000000
0000000000000000
0000000000000000
0000000000000000
0000000000000000
0000000000000000
0000000000000000
0000000000000000
0000000000000000
0000000000000000
0000000000000000
0000000000000000
0000000000000000
0000000000000000
0000000000000000
0000000000000000
0000000000000000
ENDCHAR

STARTCHAR kor_A2AA
ENCODING 41642
SWIDTH 1024 0
DWIDTH 64 0
BBX 64 64 0 -6
BITMAP
0000000000000000
0000000000000000
00000007E0000000
0000001FF8000000
0000003FFC000000
0000003FFC000000
0000007E7E000000
0000007C3E000000
000000781E000000
000000781E000000
0000007C3E000000
0000007E7E000000
0000003FFC000000
0000003FFC000000
0000001FF8000000
00000007E0000000
0000000000000000
0000000000000000
0000000000000000
0000000000000000
0000000000000000
0000000000000000
0000000000000000
0000000000000000
0000000000000000
0000000000000000
0000000000000000
0000000000000000
0000000000000000
0000000000000000
0000000000000000
0000000000000000
0000000000000000
0000000000000000
0000000000000000
0000000000000000
0000000000000000
0000000000000000
0000000000000000
0000000000000000
0000000000000000
0000000000000000
0000000000000000
0000000000000000
0000000000000000
0000000000000000
0000000000000000
0000000000000000
0000000000000000
0000000000000000
0000000000000000
0000000000000000
0000000000000000
0000000000000000
0000000000000000
0000000000000000
0000000000000000
0000000000000000
0000000000000000
0000000000000000
0000000000000000
0000000000000000
0000000000000000
0000000000000000
ENDCHAR

STARTCHAR kor_A2AB
ENCODING 41643
SWIDTH 1024 0
DWIDTH 64 0
BBX 64 64 0 -6
BITMAP
0000000000000000
0000000000000000
0000000000000000
00000003C0000000
0000000FF0000000
0000000FF0000000
0000001FF8000000
0000001FF8000000
0000001FF8000000
0000001FF8000000
0000000FF0000000
0000000FF0000000
00000003C0000000
0000000000000000
0000000000000000
0000000000000000
0000000000000000
0000000000000000
0000000000000000
0000000000000000
0000000000000000
0000000000000000
0000000000000000
0000000000000000
0000000000000000
0000000000000000
0000000000000000
0000000000000000
0000000000000000
0000000000000000
0000000000000000
0000000000000000
0000000000000000
0000000000000000
0000000000000000
0000000000000000
0000000000000000
0000000000000000
0000000000000000
0000000000000000
0000000000000000
0000000000000000
0000000000000000
0000000000000000
0000000000000000
0000000000000000
0000000000000000
0000000000000000
0000000000000000
0000000000000000
0000000000000000
0000000000000000
0000000000000000
0000000000000000
0000000000000000
0000000000000000
0000000000000000
0000000000000000
0000000000000000
0000000000000000
0000000000000000
0000000000000000
0000000000000000
0000000000000000
ENDCHAR

STARTCHAR kor_A2AC
ENCODING 41644
SWIDTH 1024 0
DWIDTH 64 0
BBX 64 64 0 -6
BITMAP
0000000000000000
0000000000000000
0000000000000000
0000000000000000
0000000000000000
0000000000000000
0000000000000000
0000000000000000
0000000000000000
0000000000000000
0000000000000000
0000000000000000
0000000000000000
0000000000000000
0000000000000000
0000000000000000
0000000000000000
0000000000000000
0000000000000000
0000000000000000
0000000000000000
0000000000000000
0000000000000000
0000000000000000
0000000000000000
0000000000000000
0000000000000000
0000000000000000
0000000000000000
0000000000000000
0000000000000000
0000000000000000
0000000000000000
0000000000000000
0000000000000000
0000000000000000
0000000000000000
0000000000000000
0000000000000000
0000000000000000
0000000000000000
00000001C0000000
00000003C0000000
0000000380000000
0000000780000000
0000000F00000000
0000000F00000000
0000001FF8000000
0000001FFE000000
0000003FFF000000
0000003FFF000000
0000003C7F800000
000000003F800000
000000001F800000
000000E01F800000
000000F83F800000
0000007FFF000000
0000007FFF000000
0000003FFE000000
0000000FF8000000
0000000000000000
0000000000000000
0000000000000000
0000000000000000
ENDCHAR

STARTCHAR kor_A2AD
ENCODING 41645
SWIDTH 1024 0
DWIDTH 64 0
BBX 64 64 0 -6
BITMAP
0000000000000000
0000000000000000
0000000000000000
0000000000000000
0000000000000000
0000000000000000
0000000000000000
0000000000000000
0000000000000000
0000000000000000
0000000000000000
0000000000000000
0000000000000000
0000000000000000
0000000000000000
0000000000000000
0000000000000000
0000000000000000
0000000000000000
0000000000000000
0000000000000000
0000000000000000
0000000000000000
0000000000000000
0000000000000000
0000000000000000
0000000000000000
0000000000000000
0000000000000000
0000000000000000
0000000000000000
0000000000000000
0000000000000000
0000000000000000
0000000000000000
0000000000000000
0000000000000000
0000000000000000
0000000000000000
0000000000000000
0000000000000000
0000000000000000
0000000000000000
0000000000000000
00000000E0000000
00000003E0000000
00000007C0000000
0000000F80000000
0000001F00000000
0000001F00000000
0000003E00000000
0000003E07000000
0000003E0F000000
0000003F1F000000
0000003FFE000000
0000003FFE000000
0000001FFC000000
0000001FF8000000
00000007E0000000
0000000000000000
0000000000000000
0000000000000000
0000000000000000
0000000000000000
ENDCHAR

STARTCHAR kor_A2AE
ENCODING 41646
SWIDTH 1024 0
DWIDTH 64 0
BBX 64 64 0 -6
BITMAP
0000000000000000
0000000000000000
0000000000000000
0000000000000000
0000000000000000
0000000000000000
0000000000000000
00000003E0000000
00000007F0000000
0000000FF8000000
0000000FF8000000
0000000FF8000000
0000000FF8000000
00000007F0000000
00000003E0000000
0000000000000000
0000000000000000
0000000000000000
0000000000000000
0000000000000000
00000001C0000000
00000001C0000000
00000001C0000000
00000001C0000000
00000001C0000000
00000001C0000000
00000001C0000000
00000001C0000000
00000001C0000000
00000001C0000000
00000001C0000000
00000001C0000000
00000003E0000000
00000003E0000000
00000003E0000000
00000003E0000000
00000003E0000000
00000003E0000000
00000003E0000000
00000003E0000000
00000003E0000000
00000003E0000000
00000003E0000000
00000003E0000000
00000007F0000000
00000007F0000000
00000007F0000000
00000007F0000000
00000007F0000000
00000007F0000000
00000007F0000000
00000007F0000000
00000007F0000000
00000007F0000000
00000007F0000000
00000003E0000000
0000000000000000
0000000000000000
0000000000000000
0000000000000000
0000000000000000
0000000000000000
0000000000000000
0000000000000000
ENDCHAR

STARTCHAR kor_A2AF
ENCODING 41647
SWIDTH 1024 0
DWIDTH 64 0
BBX 64 64 0 -6
BITMAP
0000000000000000
0000000000000000
0000000000000000
0000000000000000
0000000000000000
0000000000000000
0000000000000000
00000000F8000000
00000001FC000000
00000003FE000000
00000003FE000000
00000003FE000000
00000003FE000000
00000001FC000000
00000000F8000000
0000000000000000
0000000000000000
0000000000000000
0000000000000000
0000000000000000
0000000000000000
0000000070000000
0000000070000000
0000000070000000
0000000070000000
0000000070000000
0000000070000000
0000000070000000
0000000070000000
0000000070000000
00000007F0000000
0000001FF0000000
0000007FF0000000
000000FFF0000000
000001FFF0000000
000003FC00000000
000003F000000000
000007E000000000
000007E000000000
000007C000000000
000007C000000000
000007C000000000
000007C000000000
000007C000000000
000007C000000000
000007C000000000
000007C000000000
000007E000000000
000003E01F800000
000003F03FC00000
000001F87FC00000
000000FFFFC00000
0000007FFFC00000
0000003FFF800000
0000000FFF000000
00000001FC000000
0000000000000000
0000000000000000
0000000000000000
0000000000000000
0000000000000000
0000000000000000
0000000000000000
0000000000000000
ENDCHAR

STARTCHAR kor_A2B0
ENCODING 41648
SWIDTH 1024 0
DWIDTH 64 0
BBX 64 64 0 -6
BITMAP
0000000000000000
0000000000000000
0000000000000000
0000000000000000
0000000000000000
0000000000000000
0000000000000000
0000000000000000
0000000000000000
0000000000000000
0000000000000000
0000000000000000
0000000000000000
0000000000000000
0000000000000000
0000000000000000
0000000000000000
0000000000000000
0000000000000000
0000003FFE000000
0000003FFE000000
0000003FFE000000
0000001FFC000000
0000001FFC000000
0000000FF8000000
0000000FF8000000
00000007F0000000
00000007F0000000
00000003E0000000
00000003E0000000
00000001C0000000
0000000000000000
0000000000000000
0000000000000000
0000000000000000
0000000000000000
0000000000000000
0000000000000000
00000001C0000000
00000003E0000000
00000003E0000000
00000007F0000000
00000007F0000000
0000000FF8000000
0000000FF8000000
0000001FFC000000
0000001FFC000000
0000003FFE000000
0000003FFE000000
0000003FFE000000
0000000000000000
0000000000000000
0000000000000000
0000000000000000
0000000000000000
0000000000000000
0000000000000000
0000000000000000
0000000000000000
0000000000000000
0000000000000000
0000000000000000
0000000000000000
0000000000000000
ENDCHAR

STARTCHAR kor_A2B1
ENCODING 41649
SWIDTH 1024 0
DWIDTH 64 0
BBX 64 64 0 -6
BITMAP
0000000000000000
0000000000000000
0000000000000000
0000000000000000
0000000000FE0000
0000000003FF8000
0000000007FFC000
000000000FFFC000
000000001F9FC000
000000001F1FC000
000000003E1FC000
000000003E0F8000
000000007C000000
000000007C000000
000000007C000000
000000007C000000
00000000FC000000
00000000F8000000
00000000F8000000
00000000F8000000
00000000F8000000
0000000FFC000000
0000003FFF000000
0000007FFF800000
000000FFFFC00000
000001FDFFE00000
000001F1F3E00000
000003E1F1F00000
000003E3F1F00000
000003C3F0F00000
000003C3F0F00000
000003C3E0F00000
000003C3E0F00000
000003C3E0F00000
000003E3E1F00000
000003E7E1F00000
000001F7E3E00000
000001FFCFE00000
000000FFFFC00000
0000007FFF800000
0000003FFF000000
0000000FFC000000
0000000FC0000000
0000000F80000000
0000000F80000000
0000000F80000000
0000001F80000000
0000001F00000000
0000001F00000000
0000001F00000000
0000003F00000000
0000003E00000000
0001F03E00000000
0003F87E00000000
0003F87C00000000
0003F8F800000000
0003FDF800000000
0003FFF000000000
0001FFE000000000
00007F8000000000
0000000000000000
0000000000000000
0000000000000000
0000000000000000
ENDCHAR

STARTCHAR kor_A2B2
ENCODING 41650
SWIDTH 1024 0
DWIDTH 64 0
BBX 64 64 0 -6
BITMAP
0000000000000000
0000000000000000
0000000000000000
0000000000000000
0000000000000000
03FFFFFFFFFFFF80
03FFFFFFFFFFFF80
03FFFFFFFFFFFF80
01FFFFFFFFFFFF80
00FF800000003F80
007FC00000003F80
003FE00000003F80
001FF00000001F80
000FF80000001F80
0007FC0000001F80
0003FE0000001F80
0001FF0000001F80
0000FF8000000F80
00007FC000000F80
00003FE000000F80
00001FF000000F80
00000FF800000F80
000007FC00000780
000003FE00000780
000001FF00000780
000000FF80000780
0000007FC0000780
0000003FE0000380
0000001FF0000380
0000000FF8000000
00000007F8000000
00000003F8000000
00000003F0000000
00000007E0000000
0000000FC0000000
0000001F80000000
0000003F00000000
0000007E00000000
000000FC00000000
000001F800000000
000003F000000000
000007E000000780
00000FC000000780
00001F8000000780
00003F0000000780
00007E0000000780
0000FC0000000780
0001F80000000780
0003F00000000780
0007E00000000780
000FC00000000780
001F800000000780
003F000000000780
007FFFFFFFFFFF80
00FFFFFFFFFFFF80
01FFFFFFFFFFFF80
03FFFFFFFFFFFF80
03FFFFFFFFFFFF80
03FFFFFFFFFFFF80
0000000000000000
0000000000000000
0000000000000000
0000000000000000
0000000000000000
ENDCHAR

STARTCHAR kor_A2B3
ENCODING 41651
SWIDTH 1024 0
DWIDTH 64 0
BBX 64 64 0 -6
BITMAP
0000000000000000
0000000000000000
0000000000000000
0000000000000000
0000000000000000
0000000000000000
0000000000000000
001FFFFFFFFFFC00
001FFFFFFFFFFC00
001FFFFFFFFFFC00
00007F8000FF0000
00003F00007E0000
00003F00007E0000
00003F00007E0000
00003F00007E0000
00003F00007E0000
00003F00007E0000
00003F00007E0000
00003F00007E0000
00003F00007E0000
00003F00007E0000
00003F00007E0000
00003F00007E0000
00003F00007E0000
00003F00007E0000
00003F00007E0000
00003F00007E0000
00003F00007E0000
00003F00007E0000
00003F00007E0000
00003F00007E0000
00003F00007E0000
00003F00007E0000
00003F00007E0000
00003F00007E0000
00003F00007E0000
00003F00007E0000
00003F00007E0000
00003F00007E0000
00003F00007E0000
00003F00007E0000
00003F00007E0000
00003F00007E0000
00003F00007E0000
00003F00007E0000
00003F00007E0000
00003F00007E0000
00003F00007E0000
00003F00007E0000
00003F00007E0000
00003F00007E0000
00007F8000FF8000
001FFFFC1FFFFC00
001FFFFC1FFFFC00
001FFFFC1FFFFC00
0000000000000000
0000000000000000
0000000000000000
0000000000000000
0000000000000000
0000000000000000
0000000000000000
0000000000000000
0000000000000000
ENDCHAR

STARTCHAR kor_A2B4
ENCODING 41652
SWIDTH 1024 0
DWIDTH 64 0
BBX 64 64 0 -6
BITMAP
0000000000000000
0000000000000000
0000000000000000
0000000000000000
0000000000000000
0000000000000000
0000000000000300
00E0000000000780
01F0000000000F80
01F8000000001F80
00FC000000003F00
007E001FF8007E00
003F00FFFF00FC00
001F83FFFFC1F800
000FCFFFFFF3F000
0007FFF00FFFE000
0003FF8001FFC000
0001FE00007F8000
0000FC00003F0000
0001F800001F8000
0001F000000F8000
0003E0000007C000
0003E0000007C000
0007C0000003E000
0007C0000003E000
000780000001E000
000F80000001F000
000F80000001F000
000F00000000F000
000F00000000F000
000F00000000F000
000F00000000F000
000F00000000F000
000F00000000F000
000F00000000F000
000F80000001F000
000F80000001F000
000780000001E000
0007C0000003E000
0007C0000003E000
0003E0000007C000
0003E0000007C000
0001F000000F8000
0001F800001F8000
0000FC00003F0000
0001FE00007F8000
0003FF8001FFC000
0007FFF00FFFE000
000FCFFFFFF3F000
001F83FFFFC1F800
003F00FFFF00FC00
007E001FF8007E00
00FC000000003F00
01F8000000001F80
01F0000000000F80
00E0000000000780
0000000000000300
0000000000000000
0000000000000000
0000000000000000
0000000000000000
0000000000000000
0000000000000000
0000000000000000
ENDCHAR

STARTCHAR kor_A2B5
ENCODING 41653
SWIDTH 1024 0
DWIDTH 64 0
BBX 64 64 0 -6
BITMAP
0000000000000000
0000000000000000
0000000000000000
0000000000000000
0000000000000000
0000000000000000
0000000000000000
000003FFFFFFFF80
000003FFFFFFFF80
00FE03FFFFFFFFC0
03FF807FF803FFC0
07FFC01FE0007FC0
07FFC00FC0001FE0
0FC7E00FC0000FE0
0F83E00FC00007F0
0F01E00FC00003F0
0F01E00FC00001F0
0F83E00FC00000F8
0FC7E00FC0000078
07FFC00FC0000038
07FFC00FC000E000
03FF800FC000E000
00FE000FC000E000
0000000FC000E000
0000000FC001E000
0000000FC001E000
0000000FC003E000
0000000FC007E000
0000000FFFFFE000
0000000FFFFFE000
0000000FFFFFE000
0000000FC007E000
0000000FC003E000
0000000FC001E000
0000000FC001E000
0000000FC001E000
0000000FC000E000
0000000FC000E000
0000000FC000E000
0000000FC000E000
0000000FC0000000
0000000FC0000000
0000000FC0000000
0000000FC0000000
0000000FC0000000
0000000FC0000000
0000000FC0000000
0000000FC0000000
0000000FC0000000
0000000FC0000000
0000001FE0000000
0000007FF8000000
000007FFFF800000
000007FFFF800000
000007FFFF800000
0000000000000000
0000000000000000
0000000000000000
0000000000000000
0000000000000000
0000000000000000
0000000000000000
0000000000000000
0000000000000000
ENDCHAR

STARTCHAR kor_A2B6
ENCODING 41654
SWIDTH 1024 0
DWIDTH 64 0
BBX 64 64 0 -6
BITMAP
0000000000000000
0000000000000000
0000000000000000
0000000000000000
0001FC00001C0000
0007FF00003E0000
001FFF80007E0000
003F8FC0007C0000
007E07C000F80000
00FC07E001F80000
00F803E003F00000
01F803E003E00000
01F003E007C00000
03F003E00FC00000
03E003E01F800000
03E003E01F000000
03E003E03E000000
07E003E07E000000
07E007E0FC000000
07C007E0F8000000
07C007C1F0000000
07C007C3F0000000
07C00FC7E0000000
07C00FC7C0000000
07C01F8F80000000
07C01F9F80000000
07C03F3F00000000
07E07F3E00000000
03E0FE7C00000000
03F3FCFC00000000
01FFF9F800000000
00FFE1F000000000
003F83E0FC001F00
000007E3FE007FC0
00000FC7FF00FFE0
00000F8FDF81FBF0
00001F1F8F83F1F0
00003F1F0FC3E1F8
00007E3F07C7E0F8
00007C3E07C7C0F8
0000F87E07CFC0F8
0001F87E07CFC0F8
0003F07C07CF80F8
0003E0FC07DF80F8
0007C0FC07DF80F8
000FC0F80FDF01F8
001F80F80FDF01F8
001F01F80FBF01F0
003E01F80FBF01F0
007E01F01FBE03F0
00FC01F01FBE03F0
00F801F01F3E03E0
01F001F01F3E03E0
03F001F03F3E07E0
07E001F03E3E07C0
07C001F87E3F0FC0
0F8000FCFC1F9F80
0F8000FFF81FFF00
0F00007FF00FFE00
0600001FC003F800
0000000000000000
0000000000000000
0000000000000000
0000000000000000
ENDCHAR

STARTCHAR kor_A2B7
ENCODING 41655
SWIDTH 1024 0
DWIDTH 64 0
BBX 64 64 0 -6
BITMAP
0000000000000000
0000000000000000
0000000000000000
0000000000000000
0000000000003000
000000000000F000
000000000001F000
000000000007F000
00000000000FF000
00000000003FF000
00000000007FF000
0000000000FEF000
0000000003FCF000
0000000007F0F000
000000001FE0F000
000000003FC0F000
00000000FF00F000
00000001FE00F000
00000007F800F000
0000000FF000F000
0000003FC000F000
0000007F8000F000
000001FE0000F000
000003FC0000F000
000007F00000F000
00001FE00000F000
00003F800000F000
0000FF000000F000
0001FC000000F000
0007F8000000F000
000FE0000000F000
000FE0000000F000
0007F8000000F000
0001FC000000F000
0000FF000000F000
00003F800000F000
00001FE00000F000
000007F80000F000
000003FC0000F000
000000FF0000F000
0000007F8000F000
0000001FE000F000
0000000FF000F000
00000003FC00F000
00000001FE00F000
000000007F80F000
000000001FE0F000
000000000FF0F000
0000000003FCF000
0000000001FEF000
00000000007FF000
00000000003FF000
00000000000FF000
000000000007F000
000000000001F000
000000000000F000
0000000000003000
0000000000000000
0000000000000000
0000000000000000
0000000000000000
0000000000000000
0000000000000000
0000000000000000
ENDCHAR

STARTCHAR kor_A2B8
ENCODING 41656
SWIDTH 1024 0
DWIDTH 64 0
BBX 64 64 0 -6
BITMAP
0000000000000000
0000000000000000
0000000000000000
0000000000000000
0000000000003000
000000000000F000
000000000001F000
000000000007F000
00000000000FF000
00000000003FF000
00000000007FF000
0000000000FFF000
0000000003FFF000
0000000007FFF000
000000001FFFF000
000000003FFFF000
00000000FFFFF000
00000001FFFFF000
00000007FFFFF000
0000000FFFFFF000
0000003FFFFFF000
0000007FFFFFF000
000001FFFFFFF000
000003FFFFFFF000
000007FFFFFFF000
00001FFFFFFFF000
00003FFFFFFFF000
0000FFFFFFFFF000
0001FFFFFFFFF000
0007FFFFFFFFF000
000FFFFFFFFFF000
000FFFFFFFFFF000
0007FFFFFFFFF000
0001FFFFFFFFF000
0000FFFFFFFFF000
00003FFFFFFFF000
00001FFFFFFFF000
000007FFFFFFF000
000003FFFFFFF000
000000FFFFFFF000
0000007FFFFFF000
0000001FFFFFF000
0000000FFFFFF000
00000003FFFFF000
00000001FFFFF000
000000007FFFF000
000000001FFFF000
000000000FFFF000
0000000003FFF000
0000000001FFF000
00000000007FF000
00000000003FF000
00000000000FF000
000000000007F000
000000000001F000
000000000000F000
0000000000003000
0000000000000000
0000000000000000
0000000000000000
0000000000000000
0000000000000000
0000000000000000
0000000000000000
ENDCHAR

STARTCHAR kor_A2B9
ENCODING 41657
SWIDTH 1024 0
DWIDTH 64 0
BBX 64 64 0 -6
BITMAP
0000000000000000
0000000000000000
0000000000000000
0000000000000000
000C000000000000
000F000000000000
000F800000000000
000FE00000000000
000FF00000000000
000FFC0000000000
000FFE0000000000
000F7F0000000000
000F3FC000000000
000F0FE000000000
000F07F800000000
000F03FC00000000
000F00FF00000000
000F007F80000000
000F001FE0000000
000F000FF0000000
000F0003FC000000
000F0001FE000000
000F00007F800000
000F00003FC00000
000F00000FE00000
000F000007F80000
000F000001FC0000
000F000000FF0000
000F0000003F8000
000F0000001FE000
000F00000007F000
000F00000007F000
000F0000001FE000
000F0000003F8000
000F000000FF0000
000F000001FC0000
000F000007F80000
000F00001FE00000
000F00003FC00000
000F0000FF000000
000F0001FE000000
000F0007F8000000
000F000FF0000000
000F003FC0000000
000F007F80000000
000F01FE00000000
000F07F800000000
000F0FF000000000
000F3FC000000000
000F7F8000000000
000FFE0000000000
000FFC0000000000
000FF00000000000
000FE00000000000
000F800000000000
000F000000000000
000C000000000000
0000000000000000
0000000000000000
0000000000000000
0000000000000000
0000000000000000
0000000000000000
0000000000000000
ENDCHAR

STARTCHAR kor_A2BA
ENCODING 41658
SWIDTH 1024 0
DWIDTH 64 0
BBX 64 64 0 -6
BITMAP
0000000000000000
0000000000000000
0000000000000000
0000000000000000
000C000000000000
000F000000000000
000F800000000000
000FE00000000000
000FF00000000000
000FFC0000000000
000FFE0000000000
000FFF0000000000
000FFFC000000000
000FFFE000000000
000FFFF800000000
000FFFFC00000000
000FFFFF00000000
000FFFFF80000000
000FFFFFE0000000
000FFFFFF0000000
000FFFFFFC000000
000FFFFFFE000000
000FFFFFFF800000
000FFFFFFFC00000
000FFFFFFFE00000
000FFFFFFFF80000
000FFFFFFFFC0000
000FFFFFFFFF0000
000FFFFFFFFF8000
000FFFFFFFFFE000
000FFFFFFFFFF000
000FFFFFFFFFF000
000FFFFFFFFFE000
000FFFFFFFFF8000
000FFFFFFFFF0000
000FFFFFFFFC0000
000FFFFFFFF80000
000FFFFFFFE00000
000FFFFFFFC00000
000FFFFFFF000000
000FFFFFFE000000
000FFFFFF8000000
000FFFFFF0000000
000FFFFFC0000000
000FFFFF80000000
000FFFFE00000000
000FFFF800000000
000FFFF000000000
000FFFC000000000
000FFF8000000000
000FFE0000000000
000FFC0000000000
000FF00000000000
000FE00000000000
000F800000000000
000F000000000000
000C000000000000
0000000000000000
0000000000000000
0000000000000000
0000000000000000
0000000000000000
0000000000000000
0000000000000000
ENDCHAR

STARTCHAR kor_A2BB
ENCODING 41659
SWIDTH 1024 0
DWIDTH 64 0
BBX 64 64 0 -6
BITMAP
0000000000000000
0000000000000000
0000000000000000
0000000180000000
00000003C0000000
00000003C0000000
00000007E0000000
0000000FF0000000
0000000FF0000000
0000001FF8000000
0000003FFC000000
0000007FFE000000
000000FFFF000000
000001FE7F800000
000001FC3F800000
000003F81FC00000
000007F00FE00000
00000FE007F00000
00001FE007F80000
00003FC003FC0000
00003F8001FC0000
00007F0000FE0000
0000FE00007F0000
0001FE00007F8000
0003FC00003F8000
0003F800001FC000
0007F000000FE000
000FE0000007F000
000FE0000007F000
001FC0000003F800
001FC0000003F800
003F80000001FC00
003F80000001FC00
003F00000000FC00
007F00000000FE00
007E000000007E00
007E000000007E00
007E000000007E00
007E000000007E00
007E000000007E00
007E001E78007E00
007F007FFE00FE00
007F00FFFF00FE00
003FC3FFFFC3FC00
003FFFFFFFFFFC00
001FFFFFFFFFF800
000FFFFFFFFFF000
0007FFFFFFFFE000
0001FF3FFCFF8000
0000003FFC000000
0000007FFE000000
0000007E7E000000
000000FE7F000000
000001FC3F800000
000007FFFFE00000
000007FFFFE00000
000007FFFFE00000
000007FFFFE00000
000007FFFFE00000
0000000000000000
0000000000000000
0000000000000000
0000000000000000
0000000000000000
ENDCHAR

STARTCHAR kor_A2BC
ENCODING 41660
SWIDTH 1024 0
DWIDTH 64 0
BBX 64 64 0 -6
BITMAP
0000000000000000
0000000000000000
0000000000000000
0000000180000000
00000003C0000000
00000003C0000000
00000007E0000000
0000000FF0000000
0000000FF0000000
0000001FF8000000
0000003FFC000000
0000007FFE000000
000000FFFF000000
000001FFFF800000
000001FFFF800000
000003FFFFC00000
000007FFFFE00000
00000FFFFFF00000
00001FFFFFF80000
00003FFFFFFC0000
00003FFFFFFC0000
00007FFFFFFE0000
0000FFFFFFFF0000
0001FFFFFFFF8000
0001FFFFFFFF8000
0003FFFFFFFFC000
0007FFFFFFFFE000
000FFFFFFFFFF000
000FFFFFFFFFF000
001FFFFFFFFFF800
001FFFFFFFFFF800
003FFFFFFFFFFC00
003FFFFFFFFFFC00
003FFFFFFFFFFC00
007FFFFFFFFFFE00
007FFFFFFFFFFE00
007FFFFFFFFFFE00
007FFFFFFFFFFE00
007FFFFFFFFFFE00
007FFFFFFFFFFE00
007FFFFFFFFFFE00
007FFFFFFFFFFE00
007FFFFFFFFFFE00
003FFFFFFFFFFC00
003FFFFFFFFFFC00
001FFFFFFFFFF800
000FFFEFF7FFF000
0007FFCFF3FFE000
0001FF0FF0FF8000
0000001FF8000000
0000001FF8000000
0000003FFC000000
0000007FFE000000
000000FFFF000000
000001FFFF800000
000007FFFFE00000
000007FFFFE00000
000007FFFFE00000
000007FFFFE00000
0000000000000000
0000000000000000
0000000000000000
0000000000000000
0000000000000000
ENDCHAR

STARTCHAR kor_A2BD
ENCODING 41661
SWIDTH 1024 0
DWIDTH 64 0
BBX 64 64 0 -6
BITMAP
0000000000000000
0000000000000000
0000000000000000
0000000000000000
0000FF8001FF0000
0003FFE007FFC000
000FFFF81FFFF000
001FFFFC3FFFF800
003FFFFE7FFFFC00
007FC3FE7FC3FE00
007F00FFFF00FE00
00FE007FFE007F00
00FE003FFC007F00
00FC003FFC003F00
01FC001FF8003F80
01F8001FF8001F80
01F8000FF0001F80
01F8000FF0001F80
01F8000FF0001F80
01F8000FF0001F80
01F80007E0001F80
01F80007E0001F80
01FC0003C0001F80
01FC000000003F80
00FC000000003F00
00FC000000003F00
00FC000000003F00
00FE000000007F00
007E000000007E00
007E000000007E00
007F00000000FE00
003F00000000FC00
003F80000001FC00
001F80000001F800
001FC0000003F800
000FE0000007F000
000FE0000007F000
0007F000000FE000
0003F800000FC000
0003F800001FC000
0001FC00003F8000
0001FE00007F8000
0000FF00007F0000
00007F0000FE0000
00003F8001FC0000
00003FC003FC0000
00001FE007F80000
00000FF00FF00000
000007F81FE00000
000003FC3FC00000
000001FE7F800000
000000FFFF000000
0000007FFE000000
0000003FFC000000
0000001FF8000000
0000000FF0000000
00000007E0000000
00000003C0000000
0000000180000000
0000000000000000
0000000000000000
0000000000000000
0000000000000000
0000000000000000
ENDCHAR

STARTCHAR kor_A2BE
ENCODING 41662
SWIDTH 1024 0
DWIDTH 64 0
BBX 64 64 0 -6
BITMAP
0000000000000000
0000000000000000
0000000000000000
0000000000000000
0000FF8001FF0000
0003FFE007FFC000
000FFFF81FFFF000
001FFFFC3FFFF800
003FFFFE7FFFFC00
007FFFFE7FFFFE00
007FFFFFFFFFFE00
00FFFFFFFFFFFF00
00FFFFFFFFFFFF00
00FFFFFFFFFFFF00
01FFFFFFFFFFFF80
01FFFFFFFFFFFF80
01FFFFFFFFFFFF80
01FFFFFFFFFFFF80
01FFFFFFFFFFFF80
01FFFFFFFFFFFF80
01FFFFFFFFFFFF80
01FFFFFFFFFFFF80
01FFFFFFFFFFFF80
01FFFFFFFFFFFF80
00FFFFFFFFFFFF00
00FFFFFFFFFFFF00
00FFFFFFFFFFFF00
00FFFFFFFFFFFF00
007FFFFFFFFFFE00
007FFFFFFFFFFE00
007FFFFFFFFFFE00
003FFFFFFFFFFC00
003FFFFFFFFFFC00
001FFFFFFFFFF800
001FFFFFFFFFF800
000FFFFFFFFFF000
000FFFFFFFFFF000
0007FFFFFFFFE000
0003FFFFFFFFC000
0003FFFFFFFFC000
0001FFFFFFFF8000
0001FFFFFFFF8000
0000FFFFFFFF0000
00007FFFFFFE0000
00003FFFFFFC0000
00003FFFFFFC0000
00001FFFFFF80000
00000FFFFFF00000
000007FFFFE00000
000003FFFFC00000
000001FFFF800000
000000FFFF000000
0000007FFE000000
0000003FFC000000
0000001FF8000000
0000000FF0000000
00000007E0000000
00000003C0000000
0000000180000000
0000000000000000
0000000000000000
0000000000000000
0000000000000000
0000000000000000
ENDCHAR

STARTCHAR kor_A2BF
ENCODING 41663
SWIDTH 1024 0
DWIDTH 64 0
BBX 64 64 0 -6
BITMAP
0000000000000000
0000000000000000
0000000000000000
0000000000000000
0000001FFC000000
0000007FFF000000
000001FFFFC00000
000003FFFFE00000
000007FFFFF00000
00000FFFFFF80000
00000FF80FF80000
00001FE003FC0000
00001FC001FC0000
00003F8000FE0000
00003F8000FE0000
00003F00007E0000
00003F00007E0000
00003F00007E0000
00003F8000FE0000
00003F8000FE0000
00001FC001FC0000
00001FC001FC0000
00000FE003F80000
00000FF007F80000
000007F80FF00000
0007FBFC1FEFF000
001FFFFE3FFFFC00
007FFFFF7FFFFF00
00FFFFFF7FFFFF80
01FFFFFF7FFFFFC0
03FFFFFF7FFFFFE0
07FC0FFF7FF83FF0
07F003FE3FE00FF0
07E000FC1F8007F0
0FE00000000003F8
0FE00000000003F8
0FC00000000001F8
0FC00000000001F8
0FC00000000001F8
0FC0001E3C0001F8
0FE0003F7E0003F8
0FE0007F7F0003F8
07E000FF7F8003F0
07F001FF7FC007F0
07F807FF7FF00FF0
03FE1FFF7FFC3FE0
03FFFFFF7FFFFFE0
01FFFFFF7FFFFFC0
00FFFFFF7FFFFF80
007FFFBF7EFFFF00
001FFE3F7F3FFC00
0007F87F7F0FF000
0000007F3F800000
000000FE3F800000
000001FE1FC00000
000003FFFFE00000
000003FFFFE00000
000003FFFFE00000
000003FFFFE00000
000003FFFFE00000
0000000000000000
0000000000000000
0000000000000000
0000000000000000
ENDCHAR

STARTCHAR kor_A2C0
ENCODING 41664
SWIDTH 1024 0
DWIDTH 64 0
BBX 64 64 0 -6
BITMAP
0000000000000000
0000000000000000
0000000000000000
0000000000000000
0000001FFC000000
0000007FFF000000
000001FFFFC00000
000003FFFFE00000
000007FFFFF00000
00000FFFFFF80000
00000FFFFFF80000
00001FFFFFFC0000
00001FFFFFFC0000
00003FFFFFFE0000
00003FFFFFFE0000
00003FFFFFFE0000
00003FFFFFFE0000
00003FFFFFFE0000
00003FFFFFFE0000
00003FFFFFFE0000
00001FFFFFFC0000
00001FFFFFFC0000
00000FFFFFF80000
00000FFFFFF80000
000007FFFFF00000
0007FBFFFFEFF000
001FFFFFFFFFFC00
007FFFFFFFFFFF00
00FFFFFFFFFFFF80
01FFFFFFFFFFFFC0
03FFFFFFFFFFFFE0
07FFFFFFFFFFFFF0
07FFFFFFFFFFFFF0
07FFFFFFFFFFFFF0
0FFFFFFFFFFFFFF8
0FFFFFFFFFFFFFF8
0FFFFFFFFFFFFFF8
0FFFFFFFFFFFFFF8
0FFFFFFFFFFFFFF8
0FFFFFFFFFFFFFF8
0FFFFFFFFFFFFFF8
0FFFFFFFFFFFFFF8
07FFFFFFFFFFFFF0
07FFFFFFFFFFFFF0
07FFFFFFFFFFFFF0
03FFFFFFFFFFFFE0
03FFFFFFFFFFFFE0
01FFFFFFFBFFFFC0
00FFFFDFF9FFFF80
007FFFBFFCFFFF00
001FFE3FFC3FFC00
0007F83FFC0FF000
0000007FFE000000
0000007FFE000000
000000FFFF000000
000001FFFF800000
000003FFFFC00000
000003FFFFC00000
000003FFFFC00000
000003FFFFC00000
0000000000000000
0000000000000000
0000000000000000
0000000000000000
ENDCHAR

STARTCHAR kor_A2C1
ENCODING 41665
SWIDTH 1024 0
DWIDTH 64 0
BBX 64 64 0 -6
BITMAP
0000000000000000
0000000000000000
0000000000000000
0000000000000000
0000000000000000
0000007FFF000000
000003FFFFE00000
00001FFFFFFC0000
00007FFFFFFF0000
0001FFC001FFC000
0003FE00003FE000
0007F800000FF000
000FE0000003F800
001F80000000FC00
003F000000007E00
007E000000003F00
007C000000001F00
00F8000000000F80
00F8000000000780
01F00000000007C0
01F00000000003C0
01E00000000003C0
03E00007F80003E0
03E0001FFE0001E0
03C0003FFF0001E0
07C0007FFF8001F0
07C0007FFF8000F0
078000FFFFC000F0
078000FFFFC000F0
078000FFFFC000F0
078000FFFFC000F0
078000FFFFC000F0
078000FFFFC000F0
078000FFFFC000F0
078000FFFFC000F0
0780007FFF8000F0
07C0007FFF8001F0
03C0003FFF0001E0
03C0001FFE0001E0
03E00007F80003E0
01E00000000003C0
01E00000000003C0
01F00000000007C0
00F0000000000780
00F8000000000F80
007C000000001F00
007E000000003F00
003F000000007E00
001F80000000FC00
000FC0000001F800
0007E0000003F000
0003F800000FE000
0001FF00007FC000
0000FFE003FF8000
00003FFFFFFE0000
00000FFFFFF80000
000001FFFFC00000
0000003FFE000000
0000000000000000
0000000000000000
0000000000000000
0000000000000000
0000000000000000
0000000000000000
ENDCHAR

STARTCHAR kor_A2C2
ENCODING 41666
SWIDTH 1024 0
DWIDTH 64 0
BBX 64 64 0 -6
BITMAP
0000000000000000
0000000000000000
00000001C0000000
00000003E0000000
00000007F0000000
0000000FF8000000
0000001FFC000000
0000003F7E000000
0000007E3F000000
000000FC1F800000
000001F80FC00000
000003F1C7E00000
000007E3E3F00000
00000FC7F1F80000
00001F8FF8FC0000
00003F1FFC7E0000
00007E3FFE3F0000
0000FC7FFF1F8000
0001F8FFFF8FC000
0003F1FFFFC7E000
0007E3FFFFE3F000
000FC7FFFFF1F800
001F8FFFFFF8FC00
003F1FFFFFFC7E00
007E3FFFFFFE3F00
00FC7FFFFFFF1F80
01F8FFFFFFFF8FC0
03F1FFFFFFFFC7E0
07E3FFFFFFFFE3F0
0FC7FFFFFFFFF1F8
1F8FFFFFFFFFF8FC
1F8FFFFFFFFFF8FC
0FC7FFFFFFFFF1F8
07E3FFFFFFFFE3F0
03F1FFFFFFFFC7E0
01F8FFFFFFFF8FC0
00FC7FFFFFFF1F80
007E3FFFFFFE3F00
003F1FFFFFFC7E00
001F8FFFFFF8FC00
000FC7FFFFF1F800
0007E3FFFFE3F000
0003F1FFFFC7E000
0001F8FFFF8FC000
0000FC7FFF1F8000
00007E3FFE3F0000
00003F1FFC7E0000
00001F8FF8FC0000
00000FC7F1F80000
000007E3E3F00000
000003F1C7E00000
000001F80FC00000
000000FC1F800000
0000007E3F000000
0000003F7E000000
0000001FFC000000
0000000FF8000000
00000007F0000000
00000003E0000000
00000001C0000000
0000000000000000
0000000000000000
0000000000000000
0000000000000000
ENDCHAR

STARTCHAR kor_A2C3
ENCODING 41667
SWIDTH 1024 0
DWIDTH 64 0
BBX 64 64 0 -6
BITMAP
0000000000000000
0000000000000000
0000000000000000
0000000000000000
0000000000000000
0000000000000000
01FFFFFFFFFFFFC0
01FFFFFFFFFFFFC0
01FFFFFFFFFFFFC0
01FFFFFFFFFFFFC0
01E00000000003C0
01E00000000003C0
01E00000000003C0
01E00000000003C0
01E00000000003C0
01E00000000003C0
01E00000000003C0
01E03FFFFFFE03C0
01E03FFFFFFE03C0
01E03FFFFFFE03C0
01E03FFFFFFE03C0
01E03FFFFFFE03C0
01E03FFFFFFE03C0
01E03FFFFFFE03C0
01E03FFFFFFE03C0
01E03FFFFFFE03C0
01E03FFFFFFE03C0
01E03FFFFFFE03C0
01E03FFFFFFE03C0
01E03FFFFFFE03C0
01E03FFFFFFE03C0
01E03FFFFFFE03C0
01E03FFFFFFE03C0
01E03FFFFFFE03C0
01E03FFFFFFE03C0
01E03FFFFFFE03C0
01E03FFFFFFE03C0
01E03FFFFFFE03C0
01E03FFFFFFE03C0
01E03FFFFFFE03C0
01E03FFFFFFE03C0
01E03FFFFFFE03C0
01E03FFFFFFE03C0
01E03FFFFFFE03C0
01E03FFFFFFE03C0
01E03FFFFFFE03C0
01E00000000003C0
01E00000000003C0
01E00000000003C0
01E00000000003C0
01E00000000003C0
01E00000000003C0
01E00000000003C0
01FFFFFFFFFFFFC0
01FFFFFFFFFFFFC0
01FFFFFFFFFFFFC0
01FFFFFFFFFFFFC0
0000000000000000
0000000000000000
0000000000000000
0000000000000000
0000000000000000
0000000000000000
0000000000000000
ENDCHAR

STARTCHAR kor_A2C4
ENCODING 41668
SWIDTH 1024 0
DWIDTH 64 0
BBX 64 64 0 -6
BITMAP
0000000000000000
0000000000000000
0000000000000000
0000000000000000
0000000000000000
0000007FFF000000
000003FFFFE00000
00001FFFFFFC0000
00007FFFFFFF0000
0001FFFF81FFC000
0003FFFF803FE000
0007FFFF800FF000
000FFFFF8003F800
001FFFFF8000FC00
003FFFFF80007E00
007FFFFF80003F00
007FFFFF80001F00
00FFFFFF80000F80
00FFFFFF80000780
01FFFFFF800007C0
01FFFFFF800003C0
01FFFFFF800003C0
03FFFFFF800003E0
03FFFFFF800001E0
03FFFFFF800001E0
07FFFFFF800001F0
07FFFFFF800000F0
07FFFFFF800000F0
07FFFFFF800000F0
07FFFFFF800000F0
07FFFFFF800000F0
07FFFFFF800000F0
07FFFFFF800000F0
07FFFFFF800000F0
07FFFFFF800000F0
07FFFFFF800000F0
07FFFFFF800001F0
03FFFFFF800001E0
03FFFFFF800001E0
03FFFFFF800003E0
01FFFFFF800003C0
01FFFFFF800003C0
01FFFFFF800007C0
00FFFFFF80000780
00FFFFFF80000F80
007FFFFF80001F00
007FFFFF80003F00
003FFFFF80007E00
001FFFFF8000FC00
000FFFFF8001F800
0007FFFF8003F000
0003FFFF800FE000
0001FFFF807FC000
0000FFFF83FF8000
00003FFFFFFE0000
00000FFFFFF80000
000001FFFFC00000
0000003FFE000000
0000000000000000
0000000000000000
0000000000000000
0000000000000000
0000000000000000
0000000000000000
ENDCHAR

STARTCHAR kor_A2C5
ENCODING 41669
SWIDTH 1024 0
DWIDTH 64 0
BBX 64 64 0 -6
BITMAP
0000000000000000
0000000000000000
0000000000000000
0000000000000000
0000000000000000
0000007FFF000000
000003FFFFE00000
00001FFFFFFC0000
00007FFFFFFF0000
0001FFC1FFFFC000
0003FE01FFFFE000
0007F801FFFFF000
000FE001FFFFF800
001F8001FFFFFC00
003F0001FFFFFE00
007E0001FFFFFF00
007C0001FFFFFF00
00F80001FFFFFF80
00F80001FFFFFF80
01F00001FFFFFFC0
01F00001FFFFFFC0
01E00001FFFFFFC0
03E00001FFFFFFE0
03E00001FFFFFFE0
03C00001FFFFFFE0
07C00001FFFFFFF0
07C00001FFFFFFF0
07800001FFFFFFF0
07800001FFFFFFF0
07800001FFFFFFF0
07800001FFFFFFF0
07800001FFFFFFF0
07800001FFFFFFF0
07800001FFFFFFF0
07800001FFFFFFF0
07800001FFFFFFF0
07C00001FFFFFFF0
03C00001FFFFFFE0
03C00001FFFFFFE0
03E00001FFFFFFE0
01E00001FFFFFFC0
01E00001FFFFFFC0
01F00001FFFFFFC0
00F00001FFFFFF80
00F80001FFFFFF80
007C0001FFFFFF00
007E0001FFFFFF00
003F0001FFFFFE00
001F8001FFFFFC00
000FC001FFFFF800
0007E001FFFFF000
0003F801FFFFE000
0001FF01FFFFC000
0000FFE1FFFF8000
00003FFFFFFE0000
00000FFFFFF80000
000001FFFFC00000
0000003FFE000000
0000000000000000
0000000000000000
0000000000000000
0000000000000000
0000000000000000
0000000000000000
ENDCHAR

STARTCHAR kor_A2C6
ENCODING 41670
SWIDTH 1024 0
DWIDTH 64 0
BBX 64 64 0 -6
BITMAP
0000000000000000
0000000000000000
0000000000000000
0000000000000000
0000000000000000
01FFFFFFFFFFFFC0
01FFFFFFFFFFFFC0
01FFFFFFFFFFFFC0
01FFFFFFFFFFFFC0
01E380700700E3C0
01E7C0F80F81F3C0
01E7C0F80F81F3C0
01E7C0F80F81F3C0
01E380700700E3C0
01E00000000003C0
01E00000000003C0
01E00000000003C0
01E00000000003C0
01E00000000003C0
01E00000000003C0
01E00000000003C0
01E00000000003C0
01FC0E01C0701FC0
01FE1F03E0F83FC0
01FE1F03E0F83FC0
01FE1F03E0F83FC0
01FC0E01C0701FC0
01E00000000003C0
01E00000000003C0
01E00000000003C0
01E00000000003C0
01E00000000003C0
01E00000000003C0
01E00000000003C0
01E00000000003C0
01E380700700E3C0
01E7C0F80F81F3C0
01E7C0F80F81F3C0
01E7C0F80F81F3C0
01E380700700E3C0
01E00000000003C0
01E00000000003C0
01E00000000003C0
01E00000000003C0
01E00000000003C0
01E00000000003C0
01E00000000003C0
01E00000000003C0
01FC0E01C0701FC0
01FE1F03E0F83FC0
01FE1F03E0F83FC0
01FE1F03E0F83FC0
01FC0E01C0701FC0
01FFFFFFFFFFFFC0
01FFFFFFFFFFFFC0
01FFFFFFFFFFFFC0
01FFFFFFFFFFFFC0
0000000000000000
0000000000000000
0000000000000000
0000000000000000
0000000000000000
0000000000000000
0000000000000000
ENDCHAR

STARTCHAR kor_A2C7
ENCODING 41671
SWIDTH 1024 0
DWIDTH 64 0
BBX 64 64 0 -6
BITMAP
0000000000000000
0000000000000000
0000000000000000
0000000000000000
0000000000000000
01FFFFFFFFFFFFC0
01FFFFFFFFFFFFC0
01FFFFFFFFFFFFC0
01FFFFFFFFFFFFC0
01E00000000003C0
01E00000000003C0
01E00000000003C0
01E00000000003C0
01E00000000003C0
01E00000000003C0
01E00000000003C0
01E00000000003C0
01FFFFFFFFFFFFC0
01FFFFFFFFFFFFC0
01FFFFFFFFFFFFC0
01FFFFFFFFFFFFC0
01E00000000003C0
01E00000000003C0
01E00000000003C0
01E00000000003C0
01E00000000003C0
01E00000000003C0
01E00000000003C0
01E00000000003C0
01FFFFFFFFFFFFC0
01FFFFFFFFFFFFC0
01FFFFFFFFFFFFC0
01FFFFFFFFFFFFC0
01E00000000003C0
01E00000000003C0
01E00000000003C0
01E00000000003C0
01E00000000003C0
01E00000000003C0
01E00000000003C0
01E00000000003C0
01FFFFFFFFFFFFC0
01FFFFFFFFFFFFC0
01FFFFFFFFFFFFC0
01FFFFFFFFFFFFC0
01E00000000003C0
01E00000000003C0
01E00000000003C0
01E00000000003C0
01E00000000003C0
01E00000000003C0
01E00000000003C0
01E00000000003C0
01FFFFFFFFFFFFC0
01FFFFFFFFFFFFC0
01FFFFFFFFFFFFC0
01FFFFFFFFFFFFC0
0000000000000000
0000000000000000
0000000000000000
0000000000000000
0000000000000000
0000000000000000
0000000000000000
ENDCHAR

STARTCHAR kor_A2C8
ENCODING 41672
SWIDTH 1024 0
DWIDTH 64 0
BBX 64 64 0 -6
BITMAP
0000000000000000
0000000000000000
0000000000000000
0000000000000000
0000000000000000
01FFFFFFFFFFFFE0
01FFFFFFFFFFFFE0
01FFFFFFFFFFFFE0
01FFFFFFFFFFFFE0
01E01E01E01E01E0
01E01E01E01E01E0
01E01E01E01E01E0
01E01E01E01E01E0
01E01E01E01E01E0
01E01E01E01E01E0
01E01E01E01E01E0
01E01E01E01E01E0
01E01E01E01E01E0
01E01E01E01E01E0
01E01E01E01E01E0
01E01E01E01E01E0
01E01E01E01E01E0
01E01E01E01E01E0
01E01E01E01E01E0
01E01E01E01E01E0
01E01E01E01E01E0
01E01E01E01E01E0
01E01E01E01E01E0
01E01E01E01E01E0
01E01E01E01E01E0
01E01E01E01E01E0
01E01E01E01E01E0
01E01E01E01E01E0
01E01E01E01E01E0
01E01E01E01E01E0
01E01E01E01E01E0
01E01E01E01E01E0
01E01E01E01E01E0
01E01E01E01E01E0
01E01E01E01E01E0
01E01E01E01E01E0
01E01E01E01E01E0
01E01E01E01E01E0
01E01E01E01E01E0
01E01E01E01E01E0
01E01E01E01E01E0
01E01E01E01E01E0
01E01E01E01E01E0
01E01E01E01E01E0
01E01E01E01E01E0
01E01E01E01E01E0
01E01E01E01E01E0
01E01E01E01E01E0
01FFFFFFFFFFFFE0
01FFFFFFFFFFFFE0
01FFFFFFFFFFFFE0
01FFFFFFFFFFFFE0
0000000000000000
0000000000000000
0000000000000000
0000000000000000
0000000000000000
0000000000000000
0000000000000000
ENDCHAR

STARTCHAR kor_A2C9
ENCODING 41673
SWIDTH 1024 0
DWIDTH 64 0
BBX 64 64 0 -6
BITMAP
0000000000000000
0000000000000000
0000000000000000
0000000000000000
0000000000000000
01FFFFFFFFFFFFC0
01FFFFFFFFFFFFC0
01FFFFFFFFFFFFC0
01FFFFFFFFFFFFC0
01E00007E0001FC0
01E0000FC0003FC0
01E0001F80007FC0
01E0003F0000FFC0
01E0007E0001FBC0
01E000FC0003F3C0
01E001F80007E3C0
01E003F0000FC3C0
01E007E0001F83C0
01E00FC0003F03C0
01E01F80007E03C0
01E03F0000FC03C0
01E07E0001F803C0
01E0FC0003F003C0
01E1F80007E003C0
01E3F0000FC003C0
01E7E0001F8003C0
01EFC0003F0003C0
01FF80007E0003C0
01FF0000FC0003C0
01FE0001F80007C0
01FC0003F0000FC0
01F80007E0001FC0
01F0000FC0003FC0
01E0001F80007FC0
01E0003F0000FFC0
01E0007E0001FBC0
01E000FC0003F3C0
01E001F80007E3C0
01E003F0000FC3C0
01E007E0001F83C0
01E00FC0003F03C0
01E01F80007E03C0
01E03F0000FC03C0
01E07E0001F803C0
01E0FC0003F003C0
01E1F80007E003C0
01E3F0000FC003C0
01E7E0001F8003C0
01EFC0003F0003C0
01FF80007E0003C0
01FF0000FC0003C0
01FE0001F80003C0
01FC0003F00003C0
01FFFFFFFFFFFFC0
01FFFFFFFFFFFFC0
01FFFFFFFFFFFFC0
01FFFFFFFFFFFFC0
0000000000000000
0000000000000000
0000000000000000
0000000000000000
0000000000000000
0000000000000000
0000000000000000
ENDCHAR

STARTCHAR kor_A2CA
ENCODING 41674
SWIDTH 1024 0
DWIDTH 64 0
BBX 64 64 0 -6
BITMAP
0000000000000000
0000000000000000
0000000000000000
0000000000000000
0000000000000000
01FFFFFFFFFFFFC0
01FFFFFFFFFFFFC0
01FFFFFFFFFFFFC0
01FFFFFFFFFFFFC0
01F80007E00003C0
01FC0003F00003C0
01FE0001F80003C0
01FF0000FC0003C0
01FF80007E0003C0
01EFC0003F0003C0
01E7E0001F8003C0
01E3F0000FC003C0
01E1F80007E003C0
01E0FC0003F003C0
01E07E0001F803C0
01E03F0000FC03C0
01E01F80007E03C0
01E00FC0003F03C0
01E007E0001F83C0
01E003F0000FC3C0
01E001F80007E3C0
01E000FC0003F3C0
01E0007E0001FBC0
01E0003F0000FFC0
01E0001F80007FC0
01F0000FC0003FC0
01F80007E0001FC0
01FC0003F0000FC0
01FE0001F80007C0
01FF0000FC0003C0
01FF80007E0003C0
01EFC0003F0003C0
01E7E0001F8003C0
01E3F0000FC003C0
01E1F80007E003C0
01E0FC0003F003C0
01E07E0001F803C0
01E03F0000FC03C0
01E01F80007E03C0
01E00FC0003F03C0
01E007E0001F83C0
01E003F0000FC3C0
01E001F80007E3C0
01E000FC0003F3C0
01E0007E0001FBC0
01E0003F0000FFC0
01E0001F80007FC0
01E0000FC0003FC0
01FFFFFFFFFFFFC0
01FFFFFFFFFFFFC0
01FFFFFFFFFFFFC0
01FFFFFFFFFFFFC0
0000000000000000
0000000000000000
0000000000000000
0000000000000000
0000000000000000
0000000000000000
0000000000000000
ENDCHAR

STARTCHAR kor_A2CB
ENCODING 41675
SWIDTH 1024 0
DWIDTH 64 0
BBX 64 64 0 -6
BITMAP
0000000000000000
0000000000000000
0000000000000000
0000000000000000
0000000000000000
01FFFFFFFFFFFFC0
01FFFFFFFFFFFFC0
01FFFFFFFFFFFFC0
01FFFFFFFFFFFFC0
01E03C03C03C03C0
01E03C03C03C03C0
01E03C03C03C03C0
01E03C03C03C03C0
01E03C03C03C03C0
01E03C03C03C03C0
01E03C03C03C03C0
01E03C03C03C03C0
01FFFFFFFFFFFFC0
01FFFFFFFFFFFFC0
01FFFFFFFFFFFFC0
01FFFFFFFFFFFFC0
01E03C03C03C03C0
01E03C03C03C03C0
01E03C03C03C03C0
01E03C03C03C03C0
01E03C03C03C03C0
01E03C03C03C03C0
01E03C03C03C03C0
01E03C03C03C03C0
01FFFFFFFFFFFFC0
01FFFFFFFFFFFFC0
01FFFFFFFFFFFFC0
01FFFFFFFFFFFFC0
01E03C03C03C03C0
01E03C03C03C03C0
01E03C03C03C03C0
01E03C03C03C03C0
01E03C03C03C03C0
01E03C03C03C03C0
01E03C03C03C03C0
01E03C03C03C03C0
01FFFFFFFFFFFFC0
01FFFFFFFFFFFFC0
01FFFFFFFFFFFFC0
01FFFFFFFFFFFFC0
01E03C03C03C03C0
01E03C03C03C03C0
01E03C03C03C03C0
01E03C03C03C03C0
01E03C03C03C03C0
01E03C03C03C03C0
01E03C03C03C03C0
01E03C03C03C03C0
01FFFFFFFFFFFFC0
01FFFFFFFFFFFFC0
01FFFFFFFFFFFFC0
01FFFFFFFFFFFFC0
0000000000000000
0000000000000000
0000000000000000
0000000000000000
0000000000000000
0000000000000000
0000000000000000
ENDCHAR

STARTCHAR kor_A2CC
ENCODING 41676
SWIDTH 1024 0
DWIDTH 64 0
BBX 64 64 0 -6
BITMAP
0000000000000000
0000000000000000
0000000000000000
0000000000000000
0000000000000000
01FFFFFFFFFFFFC0
01FFFFFFFFFFFFC0
01FFFFFFFFFFFFC0
01FFFFFFFFFFFFC0
01FC000FF8003FC0
01FE001FFC007FC0
01FF003F7E00FFC0
01FF807E3F01FBC0
01EFC0FC1F83F3C0
01E7E1F80FC7E3C0
01E3F3F007EFC3C0
01E1FFE003FF83C0
01E0FFC001FF03C0
01E07F8000FE03C0
01E07F0000FE03C0
01E0FF8001FF03C0
01E1FFC003FF83C0
01E3F7E007EFC3C0
01E7E3F00FC7E3C0
01EFC1F81F83F3C0
01FF80FC3F01FBC0
01FF007E7E00FFC0
01FE003FFC007FC0
01FC001FF8003FC0
01F8000FF0001FC0
01F80007E0001FC0
01FC000FF0003FC0
01FE001FF8007FC0
01FF003FFC00FFC0
01FF807E7E01FBC0
01EFC0FC3F03F3C0
01E7E1F81F87E3C0
01E3F3F00FCFC3C0
01E1FFE007FF83C0
01E0FFC003FF03C0
01E07F8001FE03C0
01E03F0000FC03C0
01E07F8001FE03C0
01E0FFC003FF03C0
01E1FFE007FF83C0
01E3F3F00FCFC3C0
01E7E1F81F87E3C0
01EFC0FC3F03F3C0
01FF807E7E01FBC0
01FF003FFC00FFC0
01FE001FF8007FC0
01FC000FF0003FC0
01F80007E0001FC0
01FFFFFFFFFFFFC0
01FFFFFFFFFFFFC0
01FFFFFFFFFFFFC0
01FFFFFFFFFFFFC0
0000000000000000
0000000000000000
0000000000000000
0000000000000000
0000000000000000
0000000000000000
0000000000000000
ENDCHAR

STARTCHAR kor_A2CD
ENCODING 41677
SWIDTH 1024 0
DWIDTH 64 0
BBX 64 64 0 -6
BITMAP
0000000000000000
0000000000000000
0000000000000000
0000000000000000
00000000E0000000
00000000F0000000
000000E0F0000000
000000E0F8700000
000001E0F8780000
000001E1F8780000
000001E1F8780000
000003E3F8F80000
000003E3F0F80000
000007C7F1F80000
000007C7F1F00000
00000FCFE3F00000
00000FCFE3F00000
00000FCFE7E00000
00000FCFE7E00000
00000FCFE7E00000
00000FCFE7E00000
00000FCFE7E00000
00000FCFE7E00000
00000FC7F7F00000
00000FE7F7F00000
00000FE7F3F00000
000007E7FBF80000
000007F7FBF80000
000007F3FFF80000
000003F3FDFC0000
000003F3FDFC0000
000003F9FDFC0000
000003F9FDFC0000
00007FF9FDFC0000
0001FFF9FDFFC000
0007FFF9FDFFF000
000FF3F9FDFFFC00
003FC3FBFDFCFF00
007F03F3F9F83F80
00FE07F3F9F81FC0
01FC07E3F3F00FC0
01F807E7F3F00FE0
03F007C7E3F007E0
03F00F87C3E007E0
03F00F8FC7E00FE0
03F80F0F87C00FE0
03F80F0F87801FE0
03FC0F0F07803FE0
03FF070F0380FFE0
01FFE7070383FFC0
01FFFF07007FFFC0
00FFFFFFFFFFFF80
007FFFFFFFFFFF00
003FFFFFFFFFFE00
001FFFFFFFFFFC00
0007FFFFFFFFF000
0001FFFFFFFFC000
00003FFFFFFE0000
000001FFFFC00000
0000000000000000
0000000000000000
0000000000000000
0000000000000000
0000000000000000
ENDCHAR

STARTCHAR kor_A2CE
ENCODING 41678
SWIDTH 1024 0
DWIDTH 64 0
BBX 64 64 0 -6
BITMAP
0000000000000000
0000000000000000
0000000000000000
0000000000000000
0000000000000000
0000000000000000
0000000000000000
0000000000000000
0000000000000000
0000000000000000
00000FFFFFF80000
0000FFFFFFFF8000
0007FFFFFFFFF000
001FFE00003FFC00
007FC0000001FF00
00FE000000003F80
01F87FF00FFC0FC0
03E0FFFFFFFF03E0
07C1FFFFFFFF81F0
0F81EFDFFBF780F8
0F01CFC003F38078
1E01EFFFFFF7803C
1E01EFFFFFF7803C
3C01EEFFFF77001E
3C00EE1FF877001E
3801FE7FFE7F800E
3807FFFFFFFFF00E
3C3FFFF81FFFFE1E
3FFFBFE007FCFFFE
1FFE7F8001FE3FFC
0FF0FF0000FF07F8
0001FF0000FF8000
0003EE00007FC000
0007DE00007BE000
000F9E000039F000
001F1C000038F800
003E1C0000387C00
007C1C0000383E00
00781C0000381E00
00F01E0000780F00
00F01E0000780F00
00E00E0000700780
01E00F0000F00380
01C00F0000F00380
01C0078001E00380
01C007E007E00380
03C003F81FC003C0
038001FFFF8001C0
0380007FFE0001C0
03C0001FF80003C0
03FFFFFFFFFFFFC0
01FFFFFFFFFFFF80
00FFFFFFFFFFFF00
0000000000000000
0000000000000000
0000000000000000
0000000000000000
0000000000000000
0000000000000000
0000000000000000
0000000000000000
0000000000000000
0000000000000000
0000000000000000
ENDCHAR

STARTCHAR kor_A2CF
ENCODING 41679
SWIDTH 1024 0
DWIDTH 64 0
BBX 64 64 0 -6
BITMAP
0000000000000000
0000000000000000
0000000000000000
0000000000000000
0000000000000000
0000000000000000
0000000000000000
0000000000000000
0000000000000000
0000000000000000
00000FFFFFF80000
0000FFFFFFFF8000
0007FFFFFFFFF000
001FFFFFFFFFFC00
007FFFFFFFFFFF00
00FFFFFFFFFFFF80
01FFFFFFFFFFFFC0
03FFFFFFFFFFFFE0
07FFFFBFFDFFFFF0
0FFFEF8001F7FFF8
0FFFCF8001F3FFF8
1FFFEFC003F7FFFC
1FFFEFFFFFF7FFFC
3FFFEFFFFFF7FFFE
3FFFEFFFFFF7FFFE
3FFFFFF81FFFFFFE
3FFFFFE007FFFFFE
3FFFFF8001FFFFFE
3FFFBF0000FCFFFE
1FFE7E00007E3FFC
0FF0FC00003F07F8
0001FC00003F8000
0003F800001FC000
0007F800001FE000
000FF000000FF000
001FF000000FF800
003FF000000FFC00
007FF000000FFE00
007FF000000FFE00
00FFF000000FFF00
00FFF800001FFF00
00FFF800001FFF80
01FFFC00003FFF80
01FFFC00003FFF80
01FFFE00007FFF80
01FFFF0000FFFF80
03FFFF8001FFFFC0
03FFFFE007FFFFC0
03FFFFF81FFFFFC0
03FFFFFFFFFFFFC0
03FFFFFFFFFFFFC0
01FFFFFFFFFFFF80
00FFFFFFFFFFFF00
0000000000000000
0000000000000000
0000000000000000
0000000000000000
0000000000000000
0000000000000000
0000000000000000
0000000000000000
0000000000000000
0000000000000000
0000000000000000
ENDCHAR

STARTCHAR kor_A2D0
ENCODING 41680
SWIDTH 1024 0
DWIDTH 64 0
BBX 64 64 0 -6
BITMAP
0000000000000000
0000000000000000
0000000000000000
0000000000000000
0000000000000000
0000000000000000
0000000000000000
0000000000000000
0000000000000000
0000000000000000
0000000000000000
0000000000000000
0000000000000000
0000000000000000
0000000000000000
0000000000000000
0000000000000000
000003FFFFF00000
000FFFFFFFFE0000
07FFFFFFFFFF81FE
1FFFFE01FFFFE1FE
3FF80003FFF3FDFE
3E000007FF00FFCE
3C00000F80003FCE
3FFFFFFF000007CE
1FFFFFFE000001CE
07FFFFFCFF8001CE
0000FBF1FFC001CE
0000E7C7FFC001CE
0000E79FFFE001CE
0000FFFFFFF001CE
00007FFFF77801CE
00007FFFEF3C01CE
00001FFFBF9F01CE
00001FFEFF8FC1CE
00001E03FF83C1CE
00001FFFFB8003CE
00000FFFC7801FCE
000003FF1F007FFE
000000F87E07FFFE
000000FFFFFFF1FE
0000007FFFFFC000
0000000FFFFC0000
0000000000000000
0000000000000000
0000000000000000
0000000000000000
0000000000000000
0000000000000000
0000000000000000
0000000000000000
0000000000000000
0000000000000000
0000000000000000
0000000000000000
0000000000000000
0000000000000000
0000000000000000
0000000000000000
0000000000000000
0000000000000000
0000000000000000
0000000000000000
0000000000000000
ENDCHAR

STARTCHAR kor_A2D1
ENCODING 41681
SWIDTH 1024 0
DWIDTH 64 0
BBX 64 64 0 -6
BITMAP
0000000000000000
0000000000000000
0000000000000000
0000000000000000
0000000000000000
0000000000000000
0000000000000000
0000000000000000
0000000000000000
0000000000000000
0000000000000000
0000000000000000
0000000000000000
0000000000000000
0000000000000000
0000000000000000
0000000000000000
000007FFFFE00000
00003FFFFFFFF800
3FC0FFFFFFFFFFF0
3FC3FFFFC03FFFFC
3FDFE7FFE0000FFE
39FF807FF000003E
39FE0000F800001E
39F000007FFFFFFE
39C000003FFFFFFC
39C000FF9FFFFFF0
39C001FFC7EF8000
39C001FFF1F38000
39C003FFFCF38000
39C007FFFFFF8000
39C00F77FFFF0000
39C01E7BFFFF0000
39C07CFEFFFC0000
39C1F8FFBFFC0000
39C1E0FFE03C0000
39E000EFFFFC0000
39FC00F1FFF80000
3FFF007C7FE00000
3FFFF03F0F800000
3FC7FFFFFF800000
0001FFFFFF000000
00001FFFF8000000
0000000000000000
0000000000000000
0000000000000000
0000000000000000
0000000000000000
0000000000000000
0000000000000000
0000000000000000
0000000000000000
0000000000000000
0000000000000000
0000000000000000
0000000000000000
0000000000000000
0000000000000000
0000000000000000
0000000000000000
0000000000000000
0000000000000000
0000000000000000
0000000000000000
ENDCHAR

STARTCHAR kor_A2D2
ENCODING 41682
SWIDTH 1024 0
DWIDTH 64 0
BBX 64 64 0 -6
BITMAP
0000000000000000
0000000000000000
0000000000000000
0000007FFFFF8000
000003FFFFFF8000
00000FFFFFFF8000
00001FFFFFFF8000
00003FEFC7F00000
00003F8FC7E00000
00007F0FC7E00000
00007F0FC7E00000
00007E0FC7E00000
0000FE0FC7E00000
0000FE0FC7E00000
0000FE0FC7E00000
0000FE0FC7E00000
0000FE0FC7E00000
0000FE0FC7E00000
0000FE0FC7E00000
0000FE0FC7E00000
00007E0FC7E00000
00007E0FC7E00000
00007F0FC7E00000
00003F0FC7E00000
00003F8FC7E00000
00001FEFC7E00000
00000FFFC7E00000
000007FFC7E00000
000001FFC7E00000
0000003FC7E00000
0000000FC7E00000
0000000FC7E00000
0000000FC7E00000
0000000FC7E00000
0000000FC7E00000
0000000FC7E00000
0000000FC7E00000
0000000FC7E00000
0000000FC7E00000
0000000FC7E00000
0000000FC7E00000
0000000FC7E00000
0000000FC7E00000
0000000FC7E00000
0000000FC7E00000
0000000FC7E00000
0000000FC7E00000
0000000FC7E00000
0000000FC7E00000
0000000FC7E00000
0000000FC7E00000
0000000FC7E00000
0000000FC7E00000
0000000FC7E00000
0000000FC7E00000
0000001FC7F00000
000003FFC7FF8000
000003FFC7FF8000
000003FFC7FF8000
000003FFC7FF8000
0000000000000000
0000000000000000
0000000000000000
0000000000000000
ENDCHAR

STARTCHAR kor_A2D3
ENCODING 41683
SWIDTH 1024 0
DWIDTH 64 0
BBX 64 64 0 -6
BITMAP
0000000000000000
00000003E0000000
00000003E0000000
00000003E0000000
00000003E0000000
00000003E0000000
00000003E0000000
00000003E0000000
00000003E0000000
00000003E0000000
00000003E0000000
00000003E0000000
00000003E0000000
00000003E0000000
00000003E0000000
00000003E0000000
00000003E0000000
0001FFFFFFFFC000
0001FFFFFFFFC000
0001FFFFFFFFC000
0001FFFFFFFFC000
0001FFFFFFFFC000
00000003E0000000
00000003E0000000
00000003E0000000
00000003E0000000
00000003E0000000
00000003E0000000
00000003E0000000
00000003E0000000
00000003E0000000
00000003E0000000
00000003E0000000
00000003E0000000
00000003E0000000
00000003E0000000
00000003E0000000
00000003E0000000
00000003E0000000
00000003E0000000
00000003E0000000
00000003E0000000
00000003E0000000
00000003E0000000
00000003E0000000
00000003E0000000
00000003E0000000
00000003E0000000
00000003E0000000
00000003E0000000
00000003E0000000
00000003E0000000
00000003E0000000
00000003E0000000
00000003E0000000
00000003E0000000
00000003E0000000
00000003E0000000
00000003E0000000
00000003E0000000
00000003E0000000
0000000000000000
0000000000000000
0000000000000000
ENDCHAR

STARTCHAR kor_A2D4
ENCODING 41684
SWIDTH 1024 0
DWIDTH 64 0
BBX 64 64 0 -6
BITMAP
0000000000000000
00000003E0000000
00000003E0000000
00000003E0000000
00000003E0000000
00000003E0000000
00000003E0000000
00000003E0000000
00000003E0000000
00000003E0000000
00000003E0000000
00000003E0000000
00000003E0000000
00000003E0000000
00000003E0000000
0001FFFFFFFF8000
0001FFFFFFFF8000
0001FFFFFFFF8000
0001FFFFFFFF8000
0001FFFFFFFF8000
00000003E0000000
00000003E0000000
00000003E0000000
00000003E0000000
00000003E0000000
0000FFFFFFFF0000
0000FFFFFFFF0000
0000FFFFFFFF0000
0000FFFFFFFF0000
0000FFFFFFFF0000
00000003E0000000
00000003E0000000
00000003E0000000
00000003E0000000
00000003E0000000
00000003E0000000
00000003E0000000
00000003E0000000
00000003E0000000
00000003E0000000
00000003E0000000
00000003E0000000
00000003E0000000
00000003E0000000
00000003E0000000
00000003E0000000
00000003E0000000
00000003E0000000
00000003E0000000
00000003E0000000
00000003E0000000
00000003E0000000
00000003E0000000
00000003E0000000
00000003E0000000
00000003E0000000
00000003E0000000
00000003E0000000
00000003E0000000
00000003E0000000
00000003E0000000
0000000000000000
0000000000000000
0000000000000000
ENDCHAR

STARTCHAR kor_A2D5
ENCODING 41685
SWIDTH 1024 0
DWIDTH 64 0
BBX 64 64 0 -6
BITMAP
0000000000000000
0000000000000000
0000000000000000
0000000000000000
0000000180000000
00000003C0000000
00000007E0000000
0000000FF0000000
0000001FF8000000
0000003FFC000000
0000007FFE000000
000000FFFF000000
000001FFFF800000
000003FFFFC00000
000007F3CFE00000
00000FC3C3F00000
00001F03C0F80000
00001C03C0380000
00000003C0000000
00000003C0000000
00000003C0000000
00000003C0000000
00000003C0000000
00000003C0000000
00000003C0000000
00000003C0000000
00000003C0000000
00000003C0000000
00000003C0000000
00000003C0000000
00000003C0000000
00000003C0000000
00000003C0000000
00000003C0000000
00000003C0000000
00000003C0000000
00000003C0000000
00000003C0000000
00000003C0000000
00000003C0000000
00000003C0000000
00000003C0000000
00000003C0000000
00000003C0000000
00000003C0000000
00001C03C0380000
00001F03C0F80000
00000FC3C3F00000
000007F3CFE00000
000003FFFFC00000
000001FFFF800000
000000FFFF000000
0000007FFE000000
0000003FFC000000
0000001FF8000000
0000000FF0000000
00000007E0000000
00000003C0000000
0000000180000000
0000000000000000
0000000000000000
0000000000000000
0000000000000000
0000000000000000
ENDCHAR

STARTCHAR kor_A2D6
ENCODING 41686
SWIDTH 1024 0
DWIDTH 64 0
BBX 64 64 0 -6
BITMAP
0000000000000000
0000000000000000
0000000000000000
0000000000000000
0000000000000000
0000000000000000
0000000000000000
0000000000000000
0000000000000000
0000000000000000
0000000000000000
00000003FFFF8000
00000003FFFF8000
000000007FFF8000
000000000FFF8000
0000000001FF8000
00000000007F8000
0000000000FF8000
0000000001FF8000
0000000003FF8000
0000000007EF8000
000000000FCF8000
000000001F878000
000000003F078000
000000007E078000
00000000FC038000
00000001F8038000
00000003F0038000
00000007E0018000
0000000FC0018000
0000001F80018000
0000003F00000000
0000007E00000000
000000FC00000000
000001F800000000
000003F000000000
000007E000000000
00000FC000000000
00001F8000000000
00003F0000000000
00007E0000000000
0000FC0000000000
0001F80000000000
0003F00000000000
0007E00000000000
000FC00000000000
001F800000000000
003F000000000000
003E000000000000
003C000000000000
0018000000000000
0000000000000000
0000000000000000
0000000000000000
0000000000000000
0000000000000000
0000000000000000
0000000000000000
0000000000000000
0000000000000000
0000000000000000
0000000000000000
0000000000000000
0000000000000000
ENDCHAR

STARTCHAR kor_A2D7
ENCODING 41687
SWIDTH 1024 0
DWIDTH 64 0
BBX 64 64 0 -6
BITMAP
0000000000000000
0000000000000000
0000000000000000
0000000000000000
0000000000000000
0000000000000000
0000000000000000
0000000000000000
0000000000000000
0000000000000000
0000000000000000
0000000000003000
0000000000007800
000000000000F800
000000000001F800
000000000003F000
000000000007E000
00000000000FC000
00000000001F8000
00000000003F0000
00000000007E0000
0000000000FC0000
0000000001F80000
0000000003F00000
0000000007E00000
000000000FC00000
000000001F800000
000000003F000000
000000007E000000
00000000FC000000
00000001F8000000
00030003F0000000
00030007E0000000
0003000FC0000000
0003801F80000000
0003803F00000000
0003807E00000000
0003C0FC00000000
0003C1F800000000
0003C3F000000000
0003E7E000000000
0003EFC000000000
0003FF8000000000
0003FF0000000000
0003FE0000000000
0003FC0000000000
0003FF0000000000
0003FFE000000000
0003FFFC00000000
0003FFFF80000000
0003FFFF80000000
0000000000000000
0000000000000000
0000000000000000
0000000000000000
0000000000000000
0000000000000000
0000000000000000
0000000000000000
0000000000000000
0000000000000000
0000000000000000
0000000000000000
0000000000000000
ENDCHAR

STARTCHAR kor_A2D8
ENCODING 41688
SWIDTH 1024 0
DWIDTH 64 0
BBX 64 64 0 -6
BITMAP
0000000000000000
0000000000000000
0000000000000000
0000000000000000
0000000000000000
0000000000000000
0000000000000000
0000000000000000
0000000000000000
0000000000000000
0000000000000000
0003FFFFC0000000
0003FFFFC0000000
0003FFFE00000000
0003FFF000000000
0003FF8000000000
0003FE0000000000
0003FF0000000000
0003FF8000000000
0003EFC000000000
0003E7E000000000
0003C3F000000000
0003C1F800000000
0003C0FC00000000
0003807E00000000
0003803F00000000
0003801F80000000
0003000FC0000000
00030007E0000000
00030003F0000000
00000001F8000000
00000000FC000000
000000007E000000
000000003F000000
000000001F800000
000000000FC00000
0000000007E00000
0000000003F00000
0000000001F80000
0000000000FC0000
00000000007E0000
00000000003F0000
00000000001F8000
00000000000FC000
000000000007E000
000000000003F000
000000000001F800
000000000000FC00
0000000000007C00
0000000000003C00
0000000000001800
0000000000000000
0000000000000000
0000000000000000
0000000000000000
0000000000000000
0000000000000000
0000000000000000
0000000000000000
0000000000000000
0000000000000000
0000000000000000
0000000000000000
0000000000000000
ENDCHAR

STARTCHAR kor_A2D9
ENCODING 41689
SWIDTH 1024 0
DWIDTH 64 0
BBX 64 64 0 -6
BITMAP
0000000000000000
0000000000000000
0000000000000000
0000000000000000
0000000000000000
0000000000000000
0000000000000000
0000000000000000
0000000000000000
0000000000000000
0000000000000000
001C000000000000
003E000000000000
003F000000000000
001F800000000000
000FC00000000000
0007E00000000000
0003F00000000000
0001F80000000000
0000FC0000000000
00007E0000000000
00003F0000000000
00001F8000000000
00000FC000000000
000007E000000000
000003F000000000
000001F800000000
000000FC00000000
0000007E00000000
0000003F00000000
0000001F80000000
0000000FC000C000
00000007E000C000
00000003F000C000
00000001F801C000
00000000FC01C000
000000007E01C000
000000003F03C000
000000001F83C000
000000000FC3C000
0000000007E7C000
0000000003F7C000
0000000001FFC000
0000000000FFC000
00000000007FC000
0000000001FFC000
000000000FFFC000
000000007FFFC000
00000003FFFFC000
00000003FFFFC000
0000000000000000
0000000000000000
0000000000000000
0000000000000000
0000000000000000
0000000000000000
0000000000000000
0000000000000000
0000000000000000
0000000000000000
0000000000000000
0000000000000000
0000000000000000
0000000000000000
ENDCHAR

STARTCHAR kor_A2DA
ENCODING 41690
SWIDTH 1024 0
DWIDTH 64 0
BBX 64 64 0 -6
BITMAP
0000000000000000
0000000000000000
0000000000000000
0000000000000000
0000000000000000
0000000000000000
0000000000000000
0000078000000000
0000078000000000
0000078000000000
0000078000000000
0000078000000000
0000078000000000
0000078000000000
0000078000000000
0000078000000000
0000078000000000
0000078000000000
0000078000000000
0000078000000000
0000078000000000
0000078000000000
00000783FC000000
0000078FFF000000
000007BFFF800000
000007FFFFC00000
000007FFFFE00000
000007F87FE00000
000007E01FF00000
000007C01FF00000
000007800FF00000
000007800FF00000
000007800FF00000
000007800FF00000
000007800FF00000
000007800FF00000
000007800FF00000
000007801FE00000
000007801FE00000
000007801FE00000
000007803FC00000
000007803FC00000
000007807F800000
000007807F800000
00000780FF000000
00000781FE000000
00000783FC000000
00000787F8000000
0000078FF0000000
000007BFE0000000
000007FFC0000000
000007FF00000000
000007FC00000000
000007F000000000
0000078000000000
0000000000000000
0000000000000000
0000000000000000
0000000000000000
0000000000000000
0000000000000000
0000000000000000
0000000000000000
0000000000000000
ENDCHAR

STARTCHAR kor_A2DB
ENCODING 41691
SWIDTH 1024 0
DWIDTH 64 0
BBX 64 64 0 -6
BITMAP
0000000000000000
0000000000000000
0000000000000000
0000000000000000
000000003C000000
000000003C000000
000000003C000000
000000003C000000
000000003C000000
000000003C000000
000000003C000000
000000003C000000
000000003C000000
000000003C000000
000000003C000000
000000003C000000
000000003C000000
000000003C000000
000000003C000000
000000003C000000
000000003C000000
000000003C000000
000000003C000000
000000003C000000
000000003C000000
000000003C000000
000000003C000000
000000003C000000
000000003C000000
000000003C000000
000000003C000000
000000003C000000
000000003C000000
000000003C000000
000000003C000000
000000003C000000
000000003C000000
000000003C000000
000000003C000000
000000003C000000
000000003C000000
000000003C000000
000000003C000000
000000003C000000
000000003C000000
000000003C000000
00000003FC000000
0000000FFC000000
0000003FFC000000
0000007FFC000000
000000FFFC000000
000001FFF8000000
000001FFF8000000
000003FFF0000000
000003FFF0000000
000003FFE0000000
000003FFC0000000
000003FF00000000
000001FC00000000
0000000000000000
0000000000000000
0000000000000000
0000000000000000
0000000000000000
ENDCHAR

STARTCHAR kor_A2DC
ENCODING 41692
SWIDTH 1024 0
DWIDTH 64 0
BBX 64 64 0 -6
BITMAP
0000000000000000
0000000000000000
0000000000000000
0000000000000000
0000003000000000
0000003800000000
0000003C00000000
0000003C00000000
0000003E00000000
0000003F00000000
0000003F80000000
0000003FC0000000
0000003FE0000000
0000003FF0000000
0000003FF8000000
0000003FFE000000
0000003FFF000000
0000003FFFC00000
0000003FFFE00000
0000003DFFF00000
0000003C7FF80000
0000003C3FFC0000
0000003C0FFC0000
0000003C07FE0000
0000003C03FE0000
0000003C01FE0000
0000003C00FF0000
0000003C007F0000
0000003C007F0000
0000003C003F0000
0000003C003F0000
0000003C003F0000
0000003C003E0000
0000003C007E0000
0000003C007E0000
0000003C00FC0000
0000003C00FC0000
0000003C01F80000
0000003C03F00000
0000003C07E00000
0000003C0FC00000
0000003C1F000000
0000003C3E000000
0000003C78000000
0000003C60000000
000003FC00000000
00001FFC00000000
00003FFC00000000
00007FFC00000000
0000FFF800000000
0001FFF800000000
0001FFF000000000
0003FFF000000000
0003FFE000000000
0003FFC000000000
0003FF8000000000
0003FF0000000000
0001FC0000000000
0000000000000000
0000000000000000
0000000000000000
0000000000000000
0000000000000000
0000000000000000
ENDCHAR

STARTCHAR kor_A2DD
ENCODING 41693
SWIDTH 1024 0
DWIDTH 64 0
BBX 64 64 0 -6
BITMAP
0000000000000000
0000000000000000
0000000000000000
0000000000000000
000000000001E000
00000000001FE000
0000000003FFE000
000000003FFFE000
00000003FFFFE000
0000007FFFFFE000
000007FFFFFFE000
00003FFFFFFFE000
00003FFFFFFDE000
00003FFFFFC1E000
00003FFFF803E000
00003FFF803FE000
00003FF003FFE000
00003F003FFFE000
00003C03FFFFE000
00003C3FFFFFE000
00003FFFFFFFE000
00003FFFFFFFE000
00003FFFFFF9E000
00003FFFFF81E000
00003FFFF801E000
00003FFF8001E000
00003FF00001E000
00003F000001E000
00003C000001E000
00003C000001E000
00003C000001E000
00003C000001E000
00003C000001E000
00003C000001E000
00003C000001E000
00003C000001E000
00003C000001E000
00003C00001FE000
00003C00007FE000
00003C0000FFE000
00003C0001FFE000
00003C0003FFC000
00003C0007FFC000
00003C0007FFC000
0003FC000FFF8000
000FFC000FFF8000
001FFC000FFF0000
003FFC000FFE0000
007FF8000FFC0000
00FFF8000FF80000
00FFF80007E00000
01FFF00000000000
01FFF00000000000
01FFE00000000000
01FFC00000000000
01FF800000000000
01FF000000000000
00FC000000000000
0000000000000000
0000000000000000
0000000000000000
0000000000000000
0000000000000000
0000000000000000
ENDCHAR

STARTCHAR kor_A2DE
ENCODING 41694
SWIDTH 1024 0
DWIDTH 64 0
BBX 64 64 0 -6
BITMAP
0000000000000000
0000000000000000
0000000000000000
0000000000000000
000000FFFE000000
000007FFFFC00000
00001FFFFFF80000
00007FFFFFFE0000
0001FFFFFFFF8000
0003FFFFFFFFC000
0007FF8003FFE000
000FFC00007FF000
001FF800001FF800
003FE0000007FC00
007FC0000003FE00
007F80000001FE00
00FF00000000FF00
00FE00000000FF00
01FC000000007F80
01FC000000003F80
03F801F83FC03FC0
03F801F87FC01FC0
03F001F8FF801FC0
07F001F9FF000000
07F001FBFE000000
07E001FFFC000000
07E001FFF8000000
07E001FFF0000000
07E001FFE0000000
07FFF1FFE07FFFF0
07FFF1FFF07FFFF0
07FFF1FFF07FFFF0
07FFF1FFF87FFFF0
07FFF1FFF87FFFF0
000001F9FC0007F0
000001F9FC0007F0
000001F8FE0007F0
000001F8FF0007F0
000001F87F0007E0
000001F87F8007E0
03F801F83FC00FE0
03F801F83FC00FE0
03FC01F81FC01FC0
01FC000000001FC0
01FE000000003FC0
00FE000000003F80
00FF000000007F80
007F80000000FF00
007FC0000001FF00
003FE0000003FE00
001FF8000007FC00
000FFE00001FF800
0007FFC000FFF000
0003FFFFFFFFE000
0001FFFFFFFFC000
00007FFFFFFF8000
00001FFFFFFE0000
000007FFFFF80000
000000FFFFC00000
0000000000000000
0000000000000000
0000000000000000
0000000000000000
0000000000000000
ENDCHAR

STARTCHAR kor_A2DF
ENCODING 41695
SWIDTH 1024 0
DWIDTH 64 0
BBX 64 64 0 -6
BITMAP
0000000000000000
0000000000000000
0000000000000000
0000000000000000
0000000000000000
0000000000000000
000E000000003800
001E000000003C00
003C0000001F1E00
007F000003FFDF00
00F7FFFFFFFFCF80
00F3FFFFFFFFC780
01E0FFFFFFFF87C0
01E03FC3F00003C0
03E00F01F80003E0
03E00003F80003E0
03C00007F80001E0
07C0000FF00001F0
07C0001FF00001F0
0780003FFE0000F0
0780007FFFC000F0
0F8000FF1FF800F8
0F8003FE07FF00F8
0F8007FC01FFC0F8
0F000FF0007FE078
0F003FE0003FF078
0F007F80000FF078
0F01FF000003F078
0F07FC000000F078
0F3FE00000000078
0F3F000000000078
0F00000000000078
0F0000000001FC78
0FE00000003FFF78
0FFFFFFFFFFFFF78
0F7FFFFFFFFFFF78
0F1FFFFFFFFFFE78
0F07FC03E0000078
0F01E003E0000078
0F800003E00000F8
0F800003E00000F8
0F800003E00000F8
0F800003E00000F8
07800003E00000F0
07C00003E00001F0
07C00003E00001F0
03C00003E00001E0
03C00003E00001E0
03E00003E00003E0
03E00003E00003E0
01E00003E00003C0
01F00003E00007C0
00F00003E0000780
00F80003E0000F80
00780003C0000F00
003C0003C0001E00
001E0003C0003C00
000E000180003800
0000000000000000
0000000000000000
0000000000000000
0000000000000000
0000000000000000
0000000000000000
ENDCHAR

STARTCHAR kor_A2E0
ENCODING 41696
SWIDTH 1024 0
DWIDTH 64 0
BBX 64 64 0 -6
BITMAP
0000000000000000
0000000000000000
0000000000000000
0000000000000000
0000000000000000
0000000000000000
0000000000000000
3FF001FFF0000000
3FF801FFF0000000
3FF801FFF0000000
03FC001F00000000
01FC000E00000000
01FE000E00000000
01FE000E00000000
01FF000E00000000
01FF000E00000000
01FF800E00000000
01FF800E00000000
01DFC00E00000000
01DFC00E00000000
01CFE00E00000000
01CFE00E00000000
01C7F00E001F8000
01C7F00E007FE000
01C3F80E00FFF000
01C3F80E01F9F800
01C1FC0E03E07C00
01C1FC0E03E07C00
01C0FE0E07C03E00
01C0FE0E07C03E00
01C07F0E0FC03F00
01C07F0E0F801F00
01C03F8E0F801F00
01C03F8E0F801F00
01C01FCE0F801F00
01C01FCE0F801F00
01C00FEE0F801F00
01C00FEE0F801F00
01C007FE0F801F00
01C007FE0F801F00
01C003FE0F801F00
01C003FE0F801F00
01C001FE0F801F00
01C001FE0F801F00
01C000FE0F801F00
01C000FE0F801F00
01C0007E0FC03F00
01C0007E07C03E7C
01C0003E07C03EFE
01C0003E03E07CFE
01C0001E03E07CFE
03E0001E01F9F8FE
3FFE000E00FFF0FE
3FFE000E007FE0FE
3FFE0006001F807C
0000000000000000
0000000000000000
0000000000000000
0000000000000000
0000000000000000
0000000000000000
0000000000000000
0000000000000000
0000000000000000
ENDCHAR

STARTCHAR kor_A2E1
ENCODING 41697
SWIDTH 1024 0
DWIDTH 64 0
BBX 64 64 0 -6
BITMAP
0000000000000000
0000000000000000
0000000000000000
0000000000000000
0000000000000000
0000000000000000
0000000000000000
0000FE3800000000
0003FFB800000000
000FFFFC00000000
001FFFFC00000000
003F83FC00000000
007E00FC00000000
00FC007E00000000
00F8003E00000000
01F8001E00000000
01F8001E00000000
01F0000F00000000
03F0000F00000000
03F0000700000000
03F0000600000000
03F0000000000000
07F00000003F0000
07F0000000FFC000
07E0000001FFE000
07E0000003F3F000
07E0000007E1F800
07E0000007C0F800
07E000000FC0FC00
07E000000F807C00
07E000000F807C00
07E000001F807E00
07E000001F003E00
07E000001F003E00
07E000001F003E00
07E000001F003E00
07E000001F003E00
07E000001F003E00
07F000001F003E00
07F000001F003E00
03F000031F003E00
03F000039F003E00
03F000079F003E00
03F000079F003E00
01F0000F1F003E00
01F8000F1F807E00
00F8001E0F807C00
00FC003E0F807CF8
007E007C0FC0FDFC
007F00FC07C0F9FC
003FC3F807E1F9FC
001FFFF003F3F1FC
000FFFE001FFE1FC
0003FFC000FFC1FC
0000FF00003F00F8
0000000000000000
0000000000000000
0000000000000000
0000000000000000
0000000000000000
0000000000000000
0000000000000000
0000000000000000
0000000000000000
ENDCHAR

STARTCHAR kor_A2E2
ENCODING 41698
SWIDTH 1024 0
DWIDTH 64 0
BBX 64 64 0 -6
BITMAP
0000000000000000
0000000000000000
0000000000000000
0000000000000000
0000000000000000
0000000000000000
0000000000000000
07FFFFF7FF000FFC
07FFFFF7FF000FFC
0FFFFFFFFF000FFC
0FC7F1F8FF800FE0
0F83E0F87F800FC0
0F83E0F87F800FC0
1F03E07C7F800FC0
1F03E07C7F800FC0
1E03E03C7FC01FC0
1E03E03C7FC01FC0
3C03E01E7FC01DC0
3C03E01E7FC01DC0
3803E00E7FC01DC0
1803E00C77E01DC0
0003E00077E03DC0
0003E00077E039C0
0003E00077E039C0
0003E00077E039C0
0003E00073F039C0
0003E00073F079C0
0003E00073F071C0
0003E00073F071C0
0003E00071F071C0
0003E00071F871C0
0003E00071F8F1C0
0003E00071F8E1C0
0003E00071F8E1C0
0003E00070F8E1C0
0003E00070FCE1C0
0003E00070FCE1C0
0003E00070FDE1C0
0003E00070FDC1C0
0003E000707DC1C0
0003E000707FC1C0
0003E000707FC1C0
0003E000707FC1C0
0003E000703F81C0
0003E000703F81C0
0003E000703F81C0
0003E000703F81C0
0003E000703F01C0
0003E000701F01C0
0003E000701F01C0
0003E000701F01C0
0007F800F81F03E0
007FFF8FFF8E3FFE
007FFF8FFF8E3FFE
007FFF8FFF8E3FFE
0000000000000000
0000000000000000
0000000000000000
0000000000000000
0000000000000000
0000000000000000
0000000000000000
0000000000000000
0000000000000000
ENDCHAR

STARTCHAR kor_A2E3
ENCODING 41699
SWIDTH 1024 0
DWIDTH 64 0
BBX 64 64 0 -6
BITMAP
0000000000000000
0000000000000000
0000000000000000
0000000000000000
0000000000000000
0000000000000000
0000000000000000
0000000000000000
0000000000000000
0000000000000000
0000000000000000
0000000000000000
0000000000000000
0000000000000000
0000000000000000
0000000000000000
0000000000000000
0000000000000000
0000000000000000
0000000000000000
0000000000000000
0000000000000000
007F800073E3F000
01FFE001FFFFFC00
07FFF00FFFFFFC00
0FFFF00FFFFFFE00
0FC3F80FFFFFFE00
1F81F801FCFE7E00
1F80F800F87C3E00
1F80F800F87C3E00
1F80F800F87C3E00
1F80F800F87C3E00
1F80F800F87C3E00
0F01F800F87C3E00
000FF800F87C3E00
003FF800F87C3E00
00FFF800F87C3E00
03FEF800F87C3E00
07F8F800F87C3E00
0FE0F800F87C3E00
1FC0F800F87C3E00
1F80F800F87C3E00
3F00F800F87C3E00
3F00F800F87C3E00
3E00F800F87C3E00
3E00F800F87C3E00
3E00F800F87C3E00
3E00F8C0F87C3E00
3E01F8C0F87C3E00
3F07F9FCF87C3E3C
1FFFFBFEF87C3E7E
1FFFFFFFFCFE7F7E
0FFFFFFFFFFFFFFE
07FEFF7FFFFFFFFE
01F87C3FFFFFFFBC
0000000000000000
0000000000000000
0000000000000000
0000000000000000
0000000000000000
0000000000000000
0000000000000000
0000000000000000
0000000000000000
ENDCHAR

STARTCHAR kor_A2E4
ENCODING 41700
SWIDTH 1024 0
DWIDTH 64 0
BBX 64 64 0 -6
BITMAP
0000000000000000
0000000000000000
0000000000000000
0000000000000000
0000000000000000
0000000000000000
0000000000000000
0000000000000000
0000000000000000
0000000000000000
0000000000000000
0000000000000000
0000000000000000
0000000000000000
0000000000000000
0000000000000000
0000000000000000
0000000000000000
0000000000000000
0000000000000000
0000000000000000
0000000000000000
00E7E00073E1F000
07FFF801FFFFFC00
1FFFFC0FFFFFFC00
1FFFFE0FFFFFFE00
1FFC7E0FFEFF7E00
03F03F01FC7E3E00
03E01F00F87C3E00
03E01F00F87C3E00
03E01F80F87C3E00
03E00F80F87C3E00
03E00F80F87C3E00
03E00F80F87C3E00
03E00F80F87C3E00
03E00F80F87C3E00
03E00F80F87C3E00
03E00F80F87C3E00
03E00F80F87C3E00
03E00F80F87C3E00
03E00F80F87C3E00
03E00F80F87C3E00
03E00F80F87C3E00
03E00F80F87C3E00
03E00F80F87C3E00
03E01F80F87C3E00
03E01F00F87C3E00
03E01F00F87C3E00
03F03F00F87C3E00
03F83EF0F87C3E3C
03FC7FF8F87C3E7E
03FFFDFBFCFE7F7E
03FFF9FBFFFFFFFE
03EFF1FBFFFFFFFE
03E7C0F3FFFFFFBC
03E0000000000000
03E0000000000000
03E0000000000000
03E0000000000000
03E0000000000000
07F8000000000000
1FFE000000000000
1FFE000000000000
1FFE000000000000
ENDCHAR

STARTCHAR kor_A2E5
ENCODING 41701
SWIDTH 1024 0
DWIDTH 64 0
BBX 64 64 0 -6
BITMAP
0000000000000000
0000000000000000
0000000000000000
0000000000000000
0000000000000000
0000000000000000
0000000000000000
03FFFFFE000000E0
03FFFFFE000001E0
07FFFFFF000007E0
07F9FCFF00003FE0
07E0F83F80003FE0
0FC0F81F80003FE0
0F80F80F800007E0
1F00F807C00003E0
1E00F803C00003E0
1E00F803C00003E0
3C00F801E00003E0
3800F800E00003E0
3800F800E00003E0
0000F800000003E0
0000F800000003E0
0000F8000FC003E0
0000F8003FF003E0
0000F8007FF803E0
0000F800FCFC03E0
0000F801F87E03E0
0000F801F03E03E0
0000F803F03F03E0
0000F803E01F03E0
0000F803E01F03E0
0000F807E01F83E0
0000F807C00F83E0
0000F807C00F83E0
0000F807C00F83E0
0000F807FFFF83E0
0000F807FFFF83E0
0000F807FFFF83E0
0000F807C00003E0
0000F807C00003E0
0000F807C00003E0
0000F807C00003E0
0000F807C00003E0
0000F807C00003E0
0000F807C00003E0
0000F807E00183E0
0000F803E00183E0
0000F803F00383E0
0000F803F00383E0
0000F801F80783E0
0000F801FC1F03E0
0001FC00FFFF07F0
001FFFC07FFE3FFE
001FFFC03FFC3FFE
001FFFC00FF03FFE
0000000000000000
0000000000000000
0000000000000000
0000000000000000
0000000000000000
0000000000000000
0000000000000000
0000000000000000
0000000000000000
ENDCHAR

STARTCHAR default_char
ENCODING 41702
SWIDTH 64 0
DWIDTH 64 0
BBX 64 64 0 -6
BITMAP
0000000000000000
0000000000000000
300000000000000C
300000000000000C
0000000000000000
0000000000000000
0000000000000000
0000000000000000
0000000000000000
0000000000000000
0000000000000000
0000000000000000
0000000000000000
0000000000000000
0000000000000000
0000000000000000
0000000000000000
0000000000000000
0000000000000000
0000000000000000
0000000000000000
0000000000000000
0000000000000000
0000000000000000
0000000000000000
0000000000000000
0000000000000000
0000000000000000
0000000000000000
0000000000000000
0000000000000000
0000000000000000
0000000000000000
0000000000000000
0000000000000000
0000000000000000
0000000000000000
0000000000000000
0000000000000000
0000000000000000
0000000000000000
0000000000000000
0000000000000000
0000000000000000
0000000000000000
0000000000000000
0000000000000000
0000000000000000
0000000000000000
0000000000000000
0000000000000000
0000000000000000
0000000000000000
0000000000000000
0000000000000000
0000000000000000
0000000000000000
0000000000000000
0000000000000000
0000000000000000
300000000000000C
300000000000000C
0000000000000000
0000000000000000
ENDCHAR

STARTCHAR kor_A3A1
ENCODING 41889
SWIDTH 1024 0
DWIDTH 64 0
BBX 64 64 0 -6
BITMAP
0000000000000000
0000000000000000
0000000000000000
0000000000000000
0000000000000000
0000000000000000
00000007C0000000
0000000FE0000000
0000000FE0000000
0000000FE0000000
0000000FE0000000
0000000FE0000000
0000000FE0000000
0000000FE0000000
0000000FE0000000
0000000FE0000000
0000000FE0000000
0000000FE0000000
0000000FE0000000
0000000FE0000000
0000000FE0000000
00000007C0000000
00000007C0000000
00000007C0000000
00000007C0000000
00000007C0000000
00000007C0000000
00000007C0000000
00000007C0000000
00000007C0000000
00000007C0000000
00000007C0000000
00000007C0000000
00000007C0000000
00000007C0000000
00000007C0000000
0000000380000000
0000000380000000
0000000380000000
0000000380000000
0000000380000000
0000000380000000
0000000380000000
0000000380000000
0000000380000000
0000000380000000
0000000000000000
0000000000000000
0000000000000000
0000000000000000
0000000000000000
0000000000000000
00000007C0000000
0000000FE0000000
0000000FE0000000
0000000FE0000000
0000000FE0000000
0000000FE0000000
0000000FE0000000
00000007C0000000
0000000000000000
0000000000000000
0000000000000000
0000000000000000
ENDCHAR

STARTCHAR kor_A3A2
ENCODING 41890
SWIDTH 1024 0
DWIDTH 64 0
BBX 64 64 0 -6
BITMAP
0000000000000000
000000F81F000000
000001FC3F800000
000001FC3F800000
000001FC3F800000
000001FC3F800000
000001FC3F800000
000001FC3F800000
000000F81F000000
000000F81F000000
000000F81F000000
000000F81F000000
000000F81F000000
000000F81F000000
000000700E000000
000000700E000000
000000700E000000
000000700E000000
0000000000000000
0000000000000000
0000000000000000
0000000000000000
0000000000000000
0000000000000000
0000000000000000
0000000000000000
0000000000000000
0000000000000000
0000000000000000
0000000000000000
0000000000000000
0000000000000000
0000000000000000
0000000000000000
0000000000000000
0000000000000000
0000000000000000
0000000000000000
0000000000000000
0000000000000000
0000000000000000
0000000000000000
0000000000000000
0000000000000000
0000000000000000
0000000000000000
0000000000000000
0000000000000000
0000000000000000
0000000000000000
0000000000000000
0000000000000000
0000000000000000
0000000000000000
0000000000000000
0000000000000000
0000000000000000
0000000000000000
0000000000000000
0000000000000000
0000000000000000
0000000000000000
0000000000000000
0000000000000000
ENDCHAR

STARTCHAR kor_A3A3
ENCODING 41891
SWIDTH 1024 0
DWIDTH 64 0
BBX 64 64 0 -6
BITMAP
0000000000000000
0000000000000000
0000000000000000
0000000000000000
0000000000000000
0000000780078000
0000000780078000
0000000F800F8000
0000000F000F0000
0000000F000F0000
0000000F000F0000
0000001F001F0000
0000001E001E0000
0000001E001E0000
0000001E001E0000
0000003E003E0000
0000003C003C0000
0000003C003C0000
0000003C003C0000
0000007C007C0000
0007FFFFFFFFFF80
0007FFFFFFFFFF80
000FFFFFFFFFFF80
000FFFFFFFFFFF00
000FFFFFFFFFFF00
000001F001F00000
000001E001E00000
000001E001E00000
000001E001E00000
000003E003E00000
000003C003C00000
000003C003C00000
000003C003C00000
000007C007C00000
0000078007800000
0000078007800000
0000078007800000
00000F800F800000
00000F000F000000
00FFFFFFFFFFF000
00FFFFFFFFFFF000
01FFFFFFFFFFF000
01FFFFFFFFFFE000
01FFFFFFFFFFE000
00003E003E000000
00003C003C000000
00003C003C000000
00003C003C000000
00007C007C000000
0000780078000000
0000780078000000
0000780078000000
0000F800F8000000
0000F000F0000000
0000F000F0000000
0000F000F0000000
0001F001F0000000
0001E001E0000000
0001E001E0000000
0000000000000000
0000000000000000
0000000000000000
0000000000000000
0000000000000000
ENDCHAR

STARTCHAR kor_A3A4
ENCODING 41892
SWIDTH 1024 0
DWIDTH 64 0
BBX 64 64 0 -6
BITMAP
0000000000000000
0000003C3C000000
0000003C3C000000
0000003C3C000000
0000003C3C000000
0000003C3C000000
0000007FFC000000
000003FFFCE00000
00000FFFFFE00000
00001FFC3FF00000
00003FFC3FF00000
00007FBC3FF80000
00007F3C3DF80000
0000FE3C3CFC0000
0000FC3C3C7C0000
0001FC3C3C3E0000
0001F83C3C1E0000
0001F83C3C1F0000
0001F83C3C0F0000
0001F83C3C0F0000
0001F83C3C060000
0001FC3C3C000000
0001FE3C3C000000
0000FF3C3C000000
0000FFFC3C000000
00007FFC3C000000
00003FFFBC000000
00001FFFFC000000
00000FFFFF000000
000003FFFFE00000
000000FFFFF80000
0000003FFFFC0000
0000003DFFFE0000
0000003C3FFF0000
0000003C3FFF0000
0000003C3C7F8000
0000003C3C3F8000
0000003C3C1FC000
0000003C3C1FC000
0000003C3C0FC000
0000003C3C0FC000
0001C03C3C0FC000
0001E03C3C0FC000
0001E03C3C0FC000
0000F03C3C0FC000
0000F03C3C1FC000
0000783C3C1F8000
0000783C3C3F8000
00007C3C3C3F0000
00003E3C3C7F0000
00003F3C3CFE0000
00001FFC3FFC0000
00001FFC3FF80000
00000FFFFFF00000
00000EFFFFC00000
0000003FFF000000
0000003C3C000000
0000003C3C000000
0000003C3C000000
0000003C3C000000
0000003C3C000000
0000003C3C000000
0000000000000000
0000000000000000
ENDCHAR

STARTCHAR kor_A3A5
ENCODING 41893
SWIDTH 1024 0
DWIDTH 64 0
BBX 64 64 0 -6
BITMAP
0000000000000000
0000000000000000
0000000000000000
0000000000000000
0000FE0000000180
0003FF80000003C0
0007FFC0000007C0
000FC7E000000FC0
001F83F000001F80
001F01F000003F00
003F00F800007E00
003E00F80000FC00
003E00FC0001F800
007E00FC0003F000
007E007C0007E000
007C007C000FC000
007C007C001F8000
007C007C001F0000
007C007C003E0000
007C007C007E0000
007C007C00FC0000
007C007C01F80000
007E00FC03F00000
007E00FC07E00000
003E00F80FC00000
003E00F81F800000
003F01F83F000000
001F01F03E000000
001F83F07C000000
000FC7E0FC000000
0007FFC1F8000000
0003FF83F07F0000
0000FE07E1FFC000
0000000FC3FFE000
0000001F87E3F000
0000003F0FC1F800
0000003E0F80F800
0000007C1F807C00
000000FC1F007C00
000001F81F007C00
000003F03F007E00
000007E03F007E00
00000FC03E003E00
00001F803E003E00
00003F003E003E00
00007E003E003E00
0000FC003E003E00
0000F8003E003E00
0001F0003E003E00
0003F0003F007E00
0007E0003F007E00
000FC0001F007C00
001F80001F007C00
003F00001F80FC00
007E00000F80F800
00FC00000FC1F800
01F8000007E3F000
03F0000003FFE000
03E0000001FFC000
01C00000007F0000
0000000000000000
0000000000000000
0000000000000000
0000000000000000
ENDCHAR

ENDFONT
